<svg width="27" height="27" viewBox="0 0 27 27" xmlns="http://www.w3.org/2000/svg">
<path d="M10.4962 14.715C10.2727 14.9549 10.151 15.2722 10.1568 15.6001C10.1626 15.928 10.2954 16.2409 10.5273 16.4727C10.7591 16.7046 11.072 16.8374 11.3999 16.8432C11.7278 16.849 12.0451 16.7273 12.285 16.5037L21.0938 7.695V10.5469C21.0938 10.8825 21.2271 11.2045 21.4644 11.4418C21.7018 11.6792 22.0237 11.8125 22.3594 11.8125C22.695 11.8125 23.017 11.6792 23.2543 11.4418C23.4917 11.2045 23.625 10.8825 23.625 10.5469V4.64062C23.625 4.30496 23.4917 3.98304 23.2543 3.74569C23.017 3.50834 22.695 3.375 22.3594 3.375H16.4531C16.1175 3.375 15.7955 3.50834 15.5582 3.74569C15.3208 3.98304 15.1875 4.30496 15.1875 4.64062C15.1875 4.97629 15.3208 5.29821 15.5582 5.53556C15.7955 5.77291 16.1175 5.90625 16.4531 5.90625H19.305L10.4962 14.715Z"/>
<path d="M5.90625 11.3906C5.90625 10.2262 6.85125 9.28125 8.01562 9.28125H11.8125C12.1482 9.28125 12.4701 9.14791 12.7074 8.91056C12.9448 8.67321 13.0781 8.35129 13.0781 8.01562C13.0781 7.67996 12.9448 7.35804 12.7074 7.12069C12.4701 6.88334 12.1482 6.75 11.8125 6.75H8.01562C6.78485 6.75 5.60449 7.23892 4.73421 8.10921C3.86392 8.97949 3.375 10.1599 3.375 11.3906V18.9844C3.375 20.2151 3.86392 21.3955 4.73421 22.2658C5.60449 23.1361 6.78485 23.625 8.01562 23.625H15.6094C16.8401 23.625 18.0205 23.1361 18.8908 22.2658C19.7611 21.3955 20.25 20.2151 20.25 18.9844V15.1875C20.25 14.8518 20.1167 14.5299 19.8793 14.2926C19.642 14.0552 19.32 13.9219 18.9844 13.9219C18.6487 13.9219 18.3268 14.0552 18.0894 14.2926C17.8521 14.5299 17.7188 14.8518 17.7188 15.1875V18.9844C17.7188 20.1488 16.7738 21.0938 15.6094 21.0938H8.01562C6.85125 21.0938 5.90625 20.1488 5.90625 18.9844V11.3906Z"/>
</svg>
