<svg width="75" height="85" viewBox="0 0 75 85"  xmlns="http://www.w3.org/2000/svg">
<path fill-rule="evenodd" clip-rule="evenodd" d="M5.21918e-05 0.37746C-0.0215864 1.13892 6.69242 76.251 6.79357 76.3778C6.85093 76.4493 13.7667 78.4186 22.1615 80.7543L37.4248 85L52.7696 80.7493C61.2086 78.4116 68.1581 76.4422 68.212 76.3728C68.3076 76.2505 75.0176 1.12986 75 0.37746C74.9954 0.169605 58.1208 0 37.5013 0C16.8817 0 0.00609087 0.169605 5.21918e-05 0.37746ZM13.3018 18.2439C13.4869 19.9742 13.7677 22.1257 13.9258 23.0251L14.2136 24.6607H26.0836C32.7378 24.6607 37.7443 24.851 37.4761 25.0931C37.2129 25.3311 32.2426 27.4957 26.4303 29.9034C20.6181 32.3111 15.6704 34.4712 15.4359 34.7042C15.2009 34.9367 15.1682 37.0394 15.363 39.3761L15.7167 43.6248L32.1052 43.9595C41.1189 44.1432 48.5853 44.3858 48.698 44.498C48.8102 44.6103 48.7418 47.3063 48.5455 50.4886L48.1892 56.2753L42.6241 57.8108L37.0584 59.3468L31.8702 58.0468L26.682 56.7464V54.6069C26.682 53.4297 26.5406 51.7593 26.3674 50.8942L26.0529 49.3215H21.3352H16.6175L16.622 50.7055C16.6291 53.0105 17.6295 63.5864 17.8625 63.8195C17.9822 63.9392 22.4871 65.3499 27.8741 66.9544L37.6678 69.8714L47.3977 67.0581C52.7489 65.511 57.1703 64.2221 57.2236 64.1939C57.2764 64.1657 57.7882 58.7132 58.3609 52.0769C58.933 45.4407 59.5379 38.8261 59.705 37.3786L60.0079 34.7465L49.1001 34.6106L38.1917 34.4747L49.3205 29.7298C55.4417 27.1198 60.5398 24.8379 60.6505 24.6592C60.7613 24.4801 61.0083 22.2556 61.2001 19.716L61.5488 15.0984H37.2567H12.9651L13.3018 18.2439Z"/>
</svg>
