<svg width="66" height="98" viewBox="0 0 66 98" xmlns="http://www.w3.org/2000/svg">
<path fill-rule="evenodd" clip-rule="evenodd" d="M14.2943 0.978121C7.93894 2.53848 4.32577 5.13509 1.7974 9.95898C-0.27159 13.9077 -0.263851 20.2279 1.81499 24.1964C3.65393 27.7068 8.62344 32.1325 11.3425 32.682C13.3031 33.078 13.2968 33.0893 10.2872 34.4337C3.86428 37.3033 0.287688 42.6639 0.287688 49.4217C0.287688 56.1795 3.86428 61.5402 10.2872 64.4097L13.3158 65.7626L11.1525 66.1952C9.9629 66.433 7.40779 68.1073 5.47458 69.9153C-5.45848 80.1421 1.47308 97.8604 16.4048 97.8526C23.6945 97.8491 30.4586 92.7614 32.1604 86.0029C32.5944 84.2779 32.949 76.6204 32.9645 68.6321C32.9884 56.2231 33.1136 54.6234 33.9156 56.4567C36.0317 61.2947 43.1434 65.9539 48.4119 65.9539C56.6949 65.9539 64.0479 59.1666 65.0651 50.5818C65.8249 44.1666 59.8135 35.2125 53.8703 33.9068L51.6832 33.427L54.3579 32.5075C57.6207 31.3854 61.3943 27.8722 63.3929 24.0958C66.4644 18.2926 64.9251 10.0089 59.9106 5.3574C55.2077 0.995004 54.678 0.900034 34.344 0.760742C24.0906 0.690392 15.0682 0.788177 14.2943 0.978121ZM32.9645 39.0451C32.9905 44.1617 33.0489 44.3671 33.917 42.3867C35.0897 39.7099 38.9899 35.8196 41.7308 34.5927C43.7252 33.6999 43.5409 33.6465 38.3892 33.6204L32.937 33.593L32.9645 39.0451Z"/>
</svg>
