<svg width="75" height="75" viewBox="0 0 75 75" xmlns="http://www.w3.org/2000/svg">
<path fill-rule="evenodd" clip-rule="evenodd" d="M35.3765 0.405206C34.7956 0.678416 32.7388 2.50322 30.8056 4.46006L27.2908 8.01813L31.5921 12.3303L35.8937 16.6426L37.5714 16.5281C40.7365 16.312 43.2982 18.9487 43.2982 22.4215V24.3998L47.271 28.3614C50.9538 32.0335 51.3217 32.3071 52.3114 32.1092C55.2272 31.5262 58.5191 33.9625 58.9814 37.0471C59.1814 38.3786 59.0737 38.9641 58.3825 40.3073C55.4631 45.9799 46.9961 43.5524 47.6048 37.2171L47.7664 35.5342L43.9482 31.7276L40.1296 27.9209V38.0132V48.1054L41.1425 48.8265C44.0214 50.8766 43.9904 56.0141 41.0865 58.0822C39.624 59.1236 36.7595 59.3394 35.066 58.5356C31.3717 56.7826 30.9584 50.9459 34.3721 48.736L35.5438 47.9772L35.5459 37.7671L35.548 27.5569L34.5016 26.9612C32.793 25.9891 31.9984 24.3562 32.0829 21.9913L32.1561 19.9464L27.9608 15.7402L23.7655 11.5339L12.2227 23.0662C0.0331293 35.2444 -0.365067 35.7476 0.123262 38.3501C0.305285 39.3218 3.42502 42.6063 17.8605 57.0249C29.6553 68.8057 35.6934 74.5969 36.3472 74.7543C39.1004 75.4183 38.7491 75.7127 57.1267 57.371C70.6298 43.8946 74.3829 39.9566 74.6882 38.9451C75.5409 36.1176 75.9838 36.6506 57.0785 17.7481C39.8349 0.506954 39.4958 0.192904 37.978 0.0517222C37.0827 -0.0313676 35.9885 0.117208 35.3765 0.405206Z"/>
</svg>
