<svg width="20" height="20" viewBox="0 0 20 20" xmlns="http://www.w3.org/2000/svg">
<path fill-rule="evenodd" clip-rule="evenodd" d="M9.47615 0.0069839C7.94071 0.0753957 6.58248 0.424365 5.30774 1.07797C3.02511 2.24837 1.33453 4.2484 0.519494 6.74269C0.0364846 8.22086 -0.115327 9.88919 0.0876604 11.4884C0.466526 14.4732 2.06573 17.1393 4.46788 18.791C5.17453 19.2768 5.90209 19.651 6.70327 19.9407C6.98772 20.0436 7.23287 20.0117 7.38274 19.8523C7.45049 19.7803 7.49871 19.6821 7.51214 19.589C7.51784 19.5494 7.52045 18.9399 7.51792 18.2346L7.51331 16.9522L7.45974 16.96C7.43027 16.9643 7.34813 16.9768 7.27719 16.9877C7.0018 17.03 6.8417 17.0406 6.47757 17.0403C6.07571 17.0399 5.9186 17.0253 5.61347 16.96C5.15579 16.8621 4.76636 16.6631 4.50431 16.3932C4.32724 16.2108 4.21016 16.0199 4.11035 15.7509C3.98343 15.4087 3.74589 14.9732 3.53423 14.6945C3.36803 14.4757 3.2398 14.361 2.96869 14.1888C2.86575 14.1234 2.67163 13.9323 2.62697 13.8524C2.52177 13.6642 2.64222 13.5666 2.97986 13.5667C3.36119 13.5667 3.8758 13.8037 4.21934 14.1374C4.37523 14.2888 4.47684 14.4215 4.61367 14.6521C4.98072 15.271 5.37713 15.5896 5.94879 15.7253C6.11737 15.7653 6.50059 15.7754 6.70327 15.7451C6.96159 15.7066 7.25242 15.6223 7.45869 15.5264L7.53748 15.4897L7.55385 15.3856C7.62405 14.9389 7.8217 14.5014 8.0946 14.1885C8.15408 14.1203 8.169 14.0962 8.15159 14.0962C8.11094 14.0962 7.59738 14.0317 7.35458 13.9961C6.06725 13.8076 5.2654 13.47 4.6848 12.8722C4.07825 12.2477 3.7512 11.3472 3.67124 10.0815C3.65175 9.77285 3.66284 9.09549 3.69044 8.90963C3.7882 8.2514 3.99766 7.81206 4.49467 7.2228L4.60333 7.09397L4.57046 6.99114C4.38006 6.39513 4.35546 5.65154 4.50376 4.97493C4.54245 4.79838 4.62194 4.52188 4.67485 4.37978L4.71182 4.2805L4.78862 4.26346C4.89169 4.2406 5.11378 4.25102 5.28312 4.28664C5.78479 4.3922 6.4971 4.73925 7.30958 5.27396L7.49674 5.39713L7.69004 5.34612C8.21793 5.20682 8.80862 5.1112 9.41166 5.06741C9.71853 5.04513 10.3963 5.04861 10.7181 5.07412C11.304 5.12057 11.8338 5.20839 12.3619 5.34661L12.5587 5.39809L12.6392 5.341C12.9997 5.08549 13.655 4.70943 14.0482 4.53246C14.255 4.4394 14.5547 4.3348 14.7319 4.29384C14.9174 4.25095 15.1446 4.23789 15.2599 4.26346L15.3367 4.2805L15.3737 4.37978C15.6231 5.04948 15.7034 5.85336 15.5887 6.53089C15.5607 6.69642 15.5257 6.84196 15.4782 6.99093L15.4454 7.09358L15.5668 7.23583C16.1207 7.88467 16.3546 8.35056 16.4494 8.99374C16.4786 9.192 16.4825 9.94536 16.4559 10.2374C16.3889 10.9714 16.2529 11.5201 16.0153 12.0146C15.5946 12.8906 14.9105 13.4392 13.8504 13.7509C13.3839 13.8881 12.6732 14.0149 11.9494 14.0902L11.8626 14.0992L11.9668 14.2135C12.26 14.535 12.4394 14.9747 12.5157 15.5589C12.5361 15.7157 12.5382 15.9038 12.5387 17.6769L12.5392 19.6229L12.5756 19.7037C12.6688 19.9107 12.8722 20.0122 13.1407 19.9857C13.3337 19.9666 13.9877 19.6983 14.5447 19.4097C15.2825 19.0273 15.944 18.5684 16.5816 17.9965C16.8048 17.7963 17.292 17.2931 17.4869 17.0614C17.903 16.5668 18.2731 16.0368 18.587 15.4861C18.8441 15.0351 19.1429 14.3857 19.327 13.8777C19.7008 12.8463 19.9339 11.6723 19.9702 10.6373C19.9748 10.5078 19.9834 10.3987 19.9893 10.395C19.9953 10.3912 20.0001 10.244 20 10.0678C19.9999 9.8562 19.9956 9.75435 19.9873 9.76747C19.9787 9.78116 19.9747 9.75238 19.9745 9.67481C19.9736 9.39118 19.9207 8.8517 19.851 8.41724C19.6863 7.39031 19.3839 6.44626 18.9245 5.52483C18.2671 4.20637 17.3488 3.07785 16.1865 2.1602C14.7706 1.04226 13.0363 0.319894 11.2044 0.0850989C10.6682 0.0163694 9.9718 -0.0151096 9.47615 0.0069839ZM0.00234598 10.0852C0.00234598 10.2636 0.00417737 10.3365 0.00640857 10.2473C0.00863976 10.1582 0.00863976 10.0122 0.00640857 9.92301C0.00417737 9.83383 0.00234598 9.9068 0.00234598 10.0852ZM3.49919 13.9152C3.4245 13.9712 3.53354 14.1094 3.65246 14.1094C3.769 14.1094 3.78279 13.976 3.67231 13.9174C3.62612 13.8929 3.53054 13.8917 3.49919 13.9152ZM3.92184 14.2613C3.8234 14.3321 3.94459 14.5462 4.0831 14.5462C4.13987 14.5462 4.17802 14.5081 4.17802 14.4513C4.17802 14.3134 4.0163 14.1934 3.92184 14.2613ZM4.31631 14.81C4.27289 14.8545 4.26773 14.9042 4.29864 14.9802C4.33737 15.0754 4.42164 15.1419 4.50337 15.1419C4.58619 15.1419 4.62156 15.0411 4.57592 14.9352C4.54206 14.8567 4.50464 14.8134 4.44991 14.7894C4.38819 14.7624 4.35813 14.7671 4.31631 14.81ZM4.79549 15.4012C4.72722 15.4602 4.74376 15.565 4.83532 15.6534C4.92757 15.7425 5.02305 15.7623 5.08719 15.7057C5.11808 15.6784 5.12304 15.6647 5.12111 15.6122C5.11474 15.4395 4.90699 15.305 4.79549 15.4012ZM5.50833 15.8443C5.37825 15.9104 5.41578 16.0572 5.57717 16.1137C5.72447 16.1652 5.85206 16.1158 5.85206 16.0072C5.85206 15.9683 5.84162 15.9484 5.79721 15.9029C5.7129 15.8163 5.606 15.7946 5.50833 15.8443ZM7.12496 15.8874C7.02455 15.9498 6.99963 16.0382 7.06222 16.1101C7.09297 16.1454 7.11007 16.153 7.1704 16.1582C7.39444 16.1772 7.54455 15.9726 7.37259 15.8825C7.30183 15.8455 7.18882 15.8477 7.12496 15.8874ZM6.34751 15.9815C6.26356 16.019 6.22827 16.1119 6.27198 16.1804C6.3168 16.2506 6.48046 16.276 6.58226 16.2286C6.64573 16.199 6.67748 16.1567 6.67748 16.1017C6.67748 16.014 6.59977 15.9624 6.46918 15.9632C6.42414 15.9635 6.36939 15.9717 6.34751 15.9815Z"/>
</svg>
