<svg width="75" height="75" viewBox="0 0 75 75" xmlns="http://www.w3.org/2000/svg">
<path fill-rule="evenodd" clip-rule="evenodd" d="M27.9745 2.07369C20.2864 4.08753 12.6488 9.16834 7.92191 15.4123C-1.07328 27.2951 -2.47277 41.6917 4.05478 55.2028C7.34353 62.0112 13.5419 68.3465 20.2477 71.7528C27.1705 75.2704 28.3955 74.8638 28.3955 69.0516V65.3665L26.075 65.7145C21.1805 66.4486 17.1292 64.2543 14.9086 59.6671C14.2857 58.3803 12.9571 56.6737 11.9561 55.8751C9.46264 53.886 9.53943 52.8479 12.1505 53.2528C13.7358 53.4988 14.7926 54.2522 17.1179 56.7929C20.4948 60.4828 22.3212 61.3603 25.6035 60.87C27.4745 60.5907 28.0099 60.2519 28.4229 59.0855C28.7037 58.2933 29.1828 57.2128 29.4878 56.6839C30.1806 55.4836 29.7284 54.692 28.3504 54.692C26.5492 54.692 21.3932 52.6551 19.4583 51.1794C16.771 49.1301 14.9994 45.9772 14.0843 41.6165C13.0634 36.7516 13.4957 33.0064 15.5224 29.1532C16.8086 26.7092 17.0159 25.7941 16.7657 23.6734C16.6003 22.2734 16.742 20.1011 17.0809 18.8456C17.6512 16.7307 17.83 16.5632 19.5163 16.5632C20.5415 16.5632 22.8673 17.3612 24.8436 18.3912C27.9095 19.9894 28.6065 20.1602 30.3868 19.7467C31.507 19.4868 34.719 19.2741 37.5249 19.2741C40.3309 19.2741 43.5429 19.4868 44.6631 19.7467C46.4433 20.1602 47.1404 19.9894 50.2063 18.3912C52.1589 17.3736 54.5111 16.5632 55.5126 16.5632C57.106 16.5632 57.3852 16.7871 57.9572 18.5201C58.3288 19.6446 58.4765 21.7074 58.3046 23.3695C58.0485 25.8511 58.2241 26.6754 59.5382 29.1747C61.5542 33.0069 61.9849 36.7591 60.9656 41.6165C60.0505 45.9772 58.2789 49.1301 55.5916 51.1794C53.5224 52.7582 48.4609 54.692 46.3993 54.692C44.8016 54.692 44.7479 55.0084 45.9396 57.397C46.6533 58.8288 46.8128 60.5462 46.7242 65.8579C46.605 72.9714 46.9111 74.025 49.0952 74.025C49.7745 74.025 52.3426 73.0025 54.8021 71.7528C61.508 68.3465 67.7063 62.0112 70.9951 55.2028C80.2744 35.9955 72.9488 14.2266 53.9848 4.65356C46.7156 0.984061 36.1373 -0.0652889 27.9745 2.07369ZM16.0439 57.8825C16.0439 58.1607 16.2856 58.5372 16.5809 58.7197C16.8763 58.9023 17.1179 58.6746 17.1179 58.2144C17.1179 57.7542 16.8763 57.3772 16.5809 57.3772C16.2856 57.3772 16.0439 57.6043 16.0439 57.8825ZM18.192 59.9989C18.192 60.2943 18.4337 60.6853 18.729 60.8678C19.0244 61.0504 19.266 60.9581 19.266 60.6627C19.266 60.3673 19.0244 59.9764 18.729 59.7938C18.4337 59.6112 18.192 59.7036 18.192 59.9989ZM20.3401 61.6734C20.3401 61.9688 20.7026 62.2104 21.1456 62.2104C21.5887 62.2104 21.9512 61.9688 21.9512 61.6734C21.9512 61.378 21.5887 61.1364 21.1456 61.1364C20.7026 61.1364 20.3401 61.378 20.3401 61.6734ZM26.5159 61.6734C26.3333 61.9688 26.561 62.2104 27.0212 62.2104C27.4815 62.2104 27.8585 61.9688 27.8585 61.6734C27.8585 61.378 27.6313 61.1364 27.3531 61.1364C27.0749 61.1364 26.6985 61.378 26.5159 61.6734ZM23.5623 62.2104C23.5623 62.5058 23.9248 62.7474 24.3678 62.7474C24.8108 62.7474 25.1733 62.5058 25.1733 62.2104C25.1733 61.9151 24.8108 61.6734 24.3678 61.6734C23.9248 61.6734 23.5623 61.9151 23.5623 62.2104Z"/>
</svg>
