<svg width="20" height="21" viewBox="0 0 20 21" xmlns="http://www.w3.org/2000/svg">
<path fill-rule="evenodd" clip-rule="evenodd" d="M9.60772 0.0132396C8.10363 0.0959336 6.60065 0.534972 5.3017 1.27107C4.40853 1.77723 3.68363 2.33967 2.96153 3.08675C1.86533 4.22089 1.04032 5.58738 0.54786 7.08457C-0.445645 10.105 -0.0753665 13.4125 1.55656 16.0951C2.14422 17.0612 2.92269 17.9648 3.78489 18.6816C5.59515 20.1867 7.83332 21.0001 10.1648 21C13.6344 20.9999 16.5724 19.4817 18.318 16.7867C19.1526 15.4982 19.6711 14.032 19.8898 12.3419C19.9555 11.8347 20.0041 10.9873 19.9997 10.4246C19.9979 10.1826 19.9956 10.1447 19.9894 10.2552L19.9814 10.3975L19.9787 10.2891C19.9723 10.0241 19.9104 9.45828 19.8501 9.11365L19.8293 8.99509H14.9938H10.1583V10.7972V12.5993H13.042C14.6281 12.5993 15.9258 12.6029 15.9258 12.6074C15.9258 12.6118 15.9137 12.6773 15.8988 12.753C15.7679 13.4206 15.4385 14.1729 15.0129 14.7766C14.5891 15.3778 14.0502 15.8897 13.455 16.2564C12.6906 16.7272 11.8699 16.9947 10.8727 17.098C10.6432 17.1218 9.94397 17.1306 9.71258 17.1126C8.214 16.9963 6.83143 16.3394 5.75997 15.2347C4.68986 14.1314 4.05109 12.7313 3.89002 11.1359C3.86312 10.8696 3.86719 10.0465 3.89678 9.76742C4.05399 8.28476 4.61356 7.00673 5.55985 5.96915C6.65198 4.77162 8.16924 4.0212 9.769 3.88734C9.98281 3.86944 10.5238 3.86943 10.7285 3.88731C12.0102 3.99926 13.1745 4.51611 14.0827 5.37635C14.1468 5.43705 14.2041 5.48496 14.2101 5.48282C14.2273 5.47667 16.9614 2.75692 16.9614 2.74598C16.9614 2.73052 16.6857 2.47765 16.4717 2.29675C15.8279 1.75273 15.1218 1.29094 14.4093 0.948117C13.0895 0.313054 11.6319 -0.00899558 10.1189 0.000191141C9.94951 0.00122092 9.71947 0.00708797 9.60772 0.0132396ZM0.00520923 10.4991C0.00520923 10.704 0.00703126 10.7879 0.00925964 10.6854C0.0114749 10.583 0.0114749 10.4153 0.00925964 10.3128C0.00703126 10.2103 0.00520923 10.2942 0.00520923 10.4991Z"/>
</svg>
