<svg width="75" height="87" viewBox="0 0 75 87" xmlns="http://www.w3.org/2000/svg">
<path fill-rule="evenodd" clip-rule="evenodd" d="M0.0807175 1.58549C0.125025 1.97008 1.27274 14.7792 2.63115 30.0502C3.98956 45.3213 5.4928 62.2146 5.97162 67.5908C6.45057 72.9671 6.87263 77.3959 6.90957 77.4326C6.94652 77.4694 13.8293 79.4376 22.2047 81.8066L37.4325 86.1136L49.0786 82.8333C55.4839 81.0291 62.3681 79.0897 64.3768 78.5233C66.3855 77.9571 68.0579 77.465 68.0932 77.4297C68.1286 77.3946 68.5494 72.9671 69.0284 67.5908C69.5072 62.2146 71.0104 45.3213 72.3689 30.0502C73.7273 14.7792 74.875 1.97008 74.9193 1.58549L75 0.886353H37.5H0L0.0807175 1.58549ZM14.0068 17.0663C14.0467 17.3593 14.3204 20.3855 14.6152 23.7913C15.5178 34.2191 16.3403 43.5304 16.4239 44.266L16.5033 44.9651H32.7576H49.0119L49.0051 45.2647C49.0012 45.4296 48.7448 48.1711 48.4351 51.3572L47.8721 57.15L42.7195 58.5837L37.5669 60.0173L32.2795 58.5948C29.3714 57.8123 26.9838 57.1672 26.9738 57.1611C26.9638 57.155 26.8274 55.6519 26.6709 53.8208C26.5143 51.9897 26.354 50.2969 26.3148 50.0588L26.2436 49.626H21.6316H17.0195V50.1087C17.0195 50.4948 17.9993 62.9243 18.1243 64.1242C18.1558 64.4261 18.5827 64.5534 27.8314 67.0219L37.5058 69.6041L45.7017 67.4121C50.2096 66.2065 54.5322 65.0556 55.3076 64.8544L56.7173 64.4884L58.0234 50.0992C58.7418 42.1851 59.3272 35.665 59.3244 35.61C59.3214 35.555 51.6088 35.5102 42.1851 35.5102H25.051V35.0337C25.051 34.5913 24.4621 27.5416 24.3316 26.4214L24.2733 25.922H42.237H60.2009L60.6122 21.2944C60.8386 18.7492 61.0159 16.6562 61.0064 16.6431C60.9971 16.6299 50.4019 16.6 37.4617 16.5765L13.9343 16.5336L14.0068 17.0663Z"/>
</svg>