<svg width="20" height="20" viewBox="0 0 20 20" xmlns="http://www.w3.org/2000/svg">
<path fill-rule="evenodd" clip-rule="evenodd" d="M7.70878 0.00339656C5.69307 0.0368254 4.93631 0.0990095 4.15416 0.295452C3.12995 0.552692 2.32094 1.01565 1.60569 1.75384C0.642147 2.74829 0.179113 3.97343 0.0722047 5.81129C-0.0239253 7.46393 -0.0241109 12.4872 0.071905 14.1721C0.148578 15.5173 0.401637 16.4752 0.902686 17.3166C1.43126 18.2042 2.28537 18.9602 3.2262 19.3732C3.98383 19.7058 4.78546 19.872 5.91723 19.9312C7.85178 20.0324 12.9336 20.0193 14.4325 19.9092C15.7133 19.8151 16.6801 19.5192 17.5088 18.9677C18.5197 18.2949 19.2626 17.2868 19.6052 16.1229C19.8444 15.3099 19.9207 14.6442 19.9565 13.0573C19.9647 12.6918 19.978 12.1805 19.9859 11.9211C20.0047 11.311 20.0047 8.62202 19.9859 8.04797C19.978 7.8043 19.9647 7.30265 19.9565 6.9332C19.9339 5.91735 19.9028 5.40523 19.8346 4.92519C19.6349 3.52077 19.1495 2.5049 18.2636 1.63729C17.4105 0.8018 16.4058 0.336027 15.0463 0.14573C14.6008 0.0833598 14.1681 0.0542186 13.2048 0.0216759C12.8013 0.00804143 8.3262 -0.00683645 7.70878 0.00339656ZM7.08066 1.79052C5.74868 1.8315 4.81657 1.94781 4.2256 2.14674C4.01879 2.21637 3.68104 2.38527 3.47614 2.52153C2.94447 2.87513 2.52479 3.36943 2.26528 3.94772C2.00421 4.52949 1.87447 5.36058 1.81147 6.8546C1.78901 7.3874 1.78884 12.6761 1.81128 13.1788C1.87993 14.7172 2.01588 15.5274 2.30528 16.1229C2.47072 16.4633 2.66305 16.7374 2.92564 17.0069C3.37288 17.4659 3.89918 17.7708 4.50638 17.9226C5.10579 18.0725 5.78197 18.1456 7.03784 18.1965C7.3988 18.2111 11.9908 18.2143 12.6695 18.2005C14.0489 18.1723 14.9539 18.0776 15.5959 17.8944C16.4908 17.639 17.2497 17.0059 17.6699 16.1641C17.9622 15.5787 18.0846 14.9123 18.1751 13.4146C18.1979 13.037 18.2085 7.61253 18.1877 7.00466C18.1293 5.30523 17.9873 4.44625 17.6582 3.80233C17.2514 3.00631 16.5554 2.40571 15.7233 2.13279C15.1542 1.94611 14.2949 1.84025 12.9835 1.79529C12.6308 1.78318 7.45465 1.77901 7.08066 1.79052ZM15.1756 3.46787C14.6334 3.54272 14.2081 3.97776 14.1493 4.51787C14.0941 5.02429 14.359 5.50869 14.8096 5.72538C15.4009 6.00968 16.11 5.77024 16.3964 5.18959C16.4898 5.00021 16.5198 4.87004 16.5198 4.65364C16.5198 4.43725 16.4898 4.30708 16.3964 4.1177C16.2808 3.88331 16.1023 3.70466 15.8671 3.58802C15.6542 3.48239 15.3958 3.43749 15.1756 3.46787ZM9.48262 4.88913C8.50606 4.99089 7.61466 5.3509 6.82371 5.96294C6.60797 6.1299 6.16379 6.57272 5.98666 6.79745C5.03879 8.00005 4.67784 9.50998 4.97709 11.0207C5.11344 11.709 5.42009 12.4127 5.83654 12.993C6.15258 13.4333 6.58518 13.8637 7.02984 14.1802C7.34961 14.4077 7.83467 14.6655 8.19414 14.799C9.95452 15.4524 11.927 15.1024 13.3404 13.8858C13.5245 13.7273 13.8494 13.3907 13.9951 13.2074C14.6049 12.4405 14.9699 11.56 15.0914 10.5634C15.121 10.3201 15.1168 9.61314 15.0843 9.36998C14.9502 8.36807 14.5943 7.53062 13.97 6.74825C13.8224 6.56334 13.4243 6.16476 13.2396 6.01704C12.4628 5.39574 11.6298 5.03943 10.6352 4.90297C10.4044 4.8713 9.73127 4.86321 9.48262 4.88913ZM9.68591 6.66949C9.39749 6.69916 9.08988 6.77198 8.8202 6.87441C7.63259 7.3255 6.80695 8.40652 6.6799 9.67672C6.65697 9.90588 6.67031 10.3126 6.70802 10.5348C6.93019 11.8435 7.89533 12.8976 9.172 13.2258C9.48336 13.3059 9.62069 13.3215 10.0071 13.321C10.3066 13.3206 10.3831 13.3159 10.5397 13.288C11.0077 13.2048 11.4464 13.0324 11.8137 12.7875C12.036 12.6393 12.1516 12.5454 12.3316 12.3672C12.6108 12.0908 12.8099 11.8162 12.982 11.47C13.2504 10.9303 13.369 10.3198 13.32 9.73092C13.1899 8.16916 12.0103 6.91601 10.4568 6.68916C10.2769 6.66289 9.85478 6.65212 9.68591 6.66949ZM0.0070093 9.99167C0.0070093 10.9271 0.00872234 11.3076 0.0108065 10.8374C0.0128907 10.3671 0.0128907 9.60176 0.0108065 9.13663C0.00872234 8.6715 0.0070093 9.05627 0.0070093 9.99167Z"/>
</svg>
