<svg width="75" height="102" viewBox="0 0 75 102" xmlns="http://www.w3.org/2000/svg">
    <path fill-rule="evenodd" clip-rule="evenodd" d="M47.7087 0.236156C48.865 4.93655 48.2633 9.10067 45.8753 12.9255C44.9513 14.4052 43.8831 15.7188 42.3734 17.2319C40.7353 18.8734 39.1528 20.218 35.3224 23.2223C31.5789 26.1586 30.4006 27.1608 28.7363 28.8239C27.2536 30.3054 26.4465 31.2621 25.6941 32.4299C25.0067 33.4965 24.5444 34.5866 24.3182 35.6741C24.1861 36.3091 24.1371 37.4557 24.2136 38.1196C24.5489 41.0305 26.19 44.0856 29.4162 47.8052C31.2797 49.9536 34.6455 53.2767 37.5195 55.8056C37.617 55.8914 37.5689 55.7752 37.2475 55.1488C36.5462 53.782 35.9243 52.8004 34.131 50.2303C33.5109 49.3416 32.7988 48.3026 32.5486 47.9216C30.6995 45.1051 29.8262 43.0993 29.4875 40.891C29.3889 40.2486 29.3893 38.8938 29.4882 38.2418C29.9437 35.2382 31.6214 32.4809 34.9149 29.3227C35.6678 28.6007 36.2884 28.0629 37.6048 26.9923C39.8986 25.1266 41.115 24.042 42.7198 22.4314C46.4565 18.6812 48.7735 15.0944 49.8326 11.4203C50.8102 8.02929 50.4513 4.54773 48.8333 1.72802C48.436 1.03572 47.6483 -0.00928156 47.7087 0.236156ZM59.5319 21.1447C54.2111 22.6538 48.6354 25.1674 45.0429 27.6767C42.3664 29.5462 40.4447 31.4745 39.2646 33.4747C37.9198 35.7541 37.4554 38.1085 37.8696 40.5471C38.3077 43.1263 39.7072 45.8125 42.0195 48.5123C43.1551 49.8382 43.6782 50.7804 43.9759 52.036C44.0731 52.4459 44.0826 52.5613 44.0823 53.3218C44.0819 54.0315 44.0684 54.2176 43.9926 54.5573C43.6409 56.1335 42.7706 57.65 41.4433 58.9996L41.01 59.4401L41.2434 59.3083C43.9823 57.76 46.4408 55.5941 47.784 53.546C48.3792 52.6384 48.836 51.5831 49.0395 50.6455C49.174 50.0257 49.1951 48.8946 49.0843 48.2442C48.8895 47.1013 48.3613 45.9162 47.587 44.8852C47.1344 44.2825 46.1825 42.9444 45.676 42.199C44.4421 40.3829 43.8068 39.0572 43.5464 37.7555C43.4473 37.2599 43.4483 36.1074 43.5482 35.6334C44.0374 33.3138 45.8582 30.9797 49.368 28.1731C51.7842 26.241 55.107 24.0304 59.3485 21.5331C60.1658 21.052 60.3856 20.9145 60.3247 20.9226C60.3146 20.924 59.9578 21.0239 59.5319 21.1447ZM65.7473 55.1594C64.8886 55.2327 63.9135 55.4289 63.1056 55.6911C62.5372 55.8755 62.2946 55.9865 61.957 56.2166C61.7218 56.3769 61.1156 56.9773 61.1521 57.0137C61.1637 57.0254 61.3175 56.9889 61.4938 56.9326C61.8373 56.8229 62.7365 56.5952 63.3019 56.4746C63.8356 56.3607 65.0916 56.3708 65.6566 56.4934C66.2687 56.6263 66.6868 56.7666 67.2146 57.0165C69.0365 57.8789 70.2363 59.3251 70.6453 61.1518C70.7268 61.5157 70.74 61.6865 70.74 62.3698C70.74 63.0549 70.7269 63.2235 70.6445 63.5915C70.2277 65.454 69.2098 67.1126 67.3414 68.9737C65.3659 70.9416 63.0604 72.5605 59.5425 74.4501C59.3466 74.5553 59.1663 74.6788 59.1418 74.7246C59.1173 74.7704 59.0314 74.8807 58.951 74.9698L58.8046 75.1318L58.9237 75.1032C59.4368 74.98 61.0714 74.4883 61.9773 74.1846C67.3991 72.3673 71.3469 69.8552 73.3785 66.9296C74.7968 64.8871 75.2648 62.7868 74.7544 60.7548C74.5324 59.8711 74.152 59.0823 73.5849 58.3294C73.2799 57.9246 72.6673 57.2954 72.2888 56.9986C70.5484 55.6333 68.1373 54.9554 65.7473 55.1594ZM23.829 56.1383C20.5169 56.3456 16.8455 57.157 13.4348 58.4354C11.8511 59.0289 10.0358 59.8394 9.30944 60.2771C8.61001 60.6987 8.15663 61.2173 8.15896 61.5932C8.16707 62.9064 11.7736 63.9968 18.0619 64.5875C21.3632 64.8976 24.5805 65.0322 28.6383 65.0301C38.1732 65.0253 47.0652 64.1369 53.7037 62.5258L54.5596 62.3181L55.1302 61.962C56.1105 61.3503 57.7639 60.4745 58.8264 60.004C58.9988 59.9276 59.1341 59.8594 59.1271 59.8524C59.1201 59.8454 58.5572 59.9312 57.8763 60.0431C48.4206 61.5967 40.1648 62.3361 30.5274 62.4926C24.2813 62.594 19.8023 62.3226 17.332 61.693C16.1152 61.3829 15.5299 61.0218 15.4655 60.5417C15.3965 60.0274 16.3192 59.3216 17.9804 58.6181C19.8643 57.8204 21.8677 57.1877 25.765 56.1598C25.9811 56.1028 25.96 56.1008 25.174 56.1029C24.7257 56.1041 24.1204 56.12 23.829 56.1383ZM21.0779 67.8684C18.137 68.9166 16.462 70.0802 16.2623 71.2138C16.1811 71.6748 16.3728 72.139 16.8368 72.6047C18.1539 73.9269 21.7531 75.0069 26.6005 75.5346C28.8145 75.7756 30.7387 75.8692 33.4272 75.8668C39.3155 75.8616 45.0718 75.2392 50.6877 74.0007C52.3359 73.6372 55.3134 72.8664 55.3135 72.8032C55.3136 72.7918 55.1898 72.7383 55.0385 72.6844C54.605 72.5298 53.3809 71.9003 52.8886 71.5787C52.3898 71.2528 51.8858 70.8731 51.4758 70.5143C51.3263 70.3836 51.1728 70.2766 51.1345 70.2766C51.0961 70.2766 50.6314 70.3585 50.1018 70.4584C45.9609 71.2404 42.0549 71.747 38.1143 72.0133C36.8321 72.1 32.2016 72.1376 30.7735 72.0731C28.5166 71.971 24.381 71.6341 23.2299 71.4585C21.2091 71.1502 20.2059 70.4941 20.3229 69.5575C20.3816 69.0881 20.874 68.3502 21.4467 67.8736C21.5824 67.7606 21.6788 67.6691 21.6609 67.6703C21.6429 67.6714 21.3806 67.7606 21.0779 67.8684ZM23.6049 78.9337C21.1843 79.6925 19.7349 80.5878 19.3647 81.5531C19.2496 81.8534 19.2418 82.3165 19.3475 82.5852C19.6345 83.3149 20.3887 83.9916 21.6217 84.6254C23.672 85.6794 26.4424 86.418 30.0037 86.8601C32.0608 87.1155 35.0099 87.2349 37.2176 87.1523C42.803 86.9432 48.0475 85.869 52.7969 83.9614C53.1948 83.8015 53.5203 83.66 53.5203 83.6468C53.5203 83.6337 53.2977 83.5347 53.0257 83.4268C51.7543 82.9229 49.8819 82.0135 48.6384 81.296L47.9749 80.9131L47.1101 81.0757C42.9812 81.8517 39.4835 82.2707 36.3821 82.3609C33.9092 82.4327 29.4127 82.1471 26.3763 81.7253C24.1426 81.4149 23.032 80.8954 23.0352 80.1623C23.0357 80.0475 23.071 79.8794 23.115 79.7825C23.2119 79.569 23.545 79.2085 23.8641 78.9719C23.9954 78.8745 24.0871 78.7958 24.0679 78.7971C24.0486 78.7985 23.8402 78.8599 23.6049 78.9337ZM12.9062 86.1774C10.1051 86.3466 6.3117 87.4035 3.53217 88.7891C1.48948 89.8075 0.271507 90.8412 0.0335693 91.7585C-0.0351466 92.0233 0.00467273 92.4084 0.125231 92.6447C0.325958 93.0382 0.829223 93.4475 1.48447 93.7502C2.51411 94.2259 3.67571 94.511 6.13245 94.8909C15.6219 96.3582 24.9699 97.0489 34.0997 96.9571C37.081 96.9271 38.4665 96.8855 41.1099 96.7463C45.1908 96.5314 49.0354 96.168 52.5296 95.6669C59.2529 94.7025 64.4902 93.3541 67.6636 91.7704C70.3241 90.4426 71.1523 89.1119 70.0311 87.9661C69.788 87.7177 69.2819 87.3684 68.8535 87.1535L68.5971 87.0248L68.7824 87.2524C69.8768 88.596 68.9952 89.9125 66.341 90.8978C62.4592 92.3388 53.7698 93.5128 43.27 94.0147C37.4402 94.2935 31.0387 94.3239 25.5816 94.0988C24.7746 94.0656 23.9676 94.0287 23.7883 94.0169C23.6089 94.0051 22.8845 93.9583 22.1784 93.913C17.3265 93.6015 13.1781 93.0292 10.1959 92.2599C8.93321 91.9342 7.51924 91.4293 7.0227 91.1269C6.50061 90.8088 6.315 90.4434 6.48288 90.0639C6.78676 89.3769 8.05841 88.6363 10.2633 87.862C12.168 87.1932 13.9992 86.8148 15.6573 86.7474L16.289 86.7217L16.0445 86.594C15.375 86.2446 14.2549 86.0959 12.9062 86.1774ZM74.8157 92.4771C74.3821 93.0856 73.0793 93.9872 71.6665 94.6565C69.5079 95.6791 66.5851 96.6211 63.1618 97.3976C56.4712 98.9151 49.0791 99.8034 40.1725 100.16C38.4004 100.231 30.4405 100.231 28.5568 100.16C24.0326 99.989 20.1865 99.6922 16.5336 99.2321C15.8313 99.1437 14.0523 98.8891 13.6806 98.8239C13.5618 98.8031 13.5606 98.8044 13.6398 98.8705C13.7657 98.9754 14.4911 99.3089 14.9441 99.4699C17.568 100.403 21.8342 101.089 27.4156 101.475C28.593 101.556 31.1791 101.684 32.9382 101.748C34.8448 101.817 41.849 101.818 43.7183 101.75C49.7694 101.528 54.5708 101.099 59.1129 100.375C68.4418 98.8877 73.8929 96.3349 74.8533 93.0037C74.9415 92.6978 75.0255 92.2419 74.9928 92.2465C74.9851 92.2475 74.9054 92.3514 74.8157 92.4771Z"/>
</svg>
