<svg width="75" height="86" viewBox="0 0 75 86" xmlns="http://www.w3.org/2000/svg">
<path fill-rule="evenodd" clip-rule="evenodd" d="M9.21045e-10 0.27138C0.000547696 0.490493 6.98496 77.1262 7.00615 77.1451C7.03884 77.1744 37.5109 85.7723 37.5806 85.772C37.6153 85.7718 67.3355 77.3868 68.1879 77.1367C68.2961 77.1049 68.3445 77.0715 68.3506 77.0244C68.3554 76.9875 69.8534 60.3827 71.6796 40.1248L75 3.29226L75 1.78322L74.9999 0.274221L52.0224 0.251424C15.2662 0.214933 -0.000136923 0.220787 9.21045e-10 0.27138ZM27.3352 16.7707C27.328 16.7943 27.304 25.663 27.2819 36.4792C27.2598 47.2953 27.2388 56.1478 27.2352 56.1515C27.2317 56.1551 23.9636 55.2673 19.9727 54.1786C15.9819 53.0898 12.7143 52.2011 12.7113 52.2037C12.7083 52.2062 12.716 54.2339 12.7284 56.7097L12.7509 61.211L23.7391 64.179C29.7825 65.8113 34.7465 67.1476 34.77 67.1485C34.8042 67.1498 34.8128 62.0859 34.8128 41.939V16.7279H31.0805C28.1245 16.7279 27.3456 16.7368 27.3352 16.7707ZM56.5665 16.7633C54.2885 16.776 49.779 16.7985 46.5454 16.8132L40.6663 16.84L40.6664 17.6997C40.6665 19.0761 40.9731 49.5314 40.987 49.5452C40.9938 49.5521 44.2633 48.9984 48.2524 48.3148L55.5054 47.0718L55.5136 47.3637C55.524 47.732 55.3364 54.3056 55.3149 54.3271C55.3061 54.3358 52.0105 55.2171 47.9912 56.2854C43.9719 57.3537 40.6767 58.233 40.6685 58.2395C40.6493 58.2547 40.7691 66.052 40.7983 66.6905L40.8203 67.1722L50.9501 64.5332C56.5214 63.0818 61.0846 61.8792 61.0906 61.8607C61.0965 61.8423 61.5479 56.3896 62.0935 49.7437C62.6392 43.0977 63.0953 37.5715 63.1071 37.4633C63.1284 37.2676 63.128 37.2665 63.0374 37.2665C62.9873 37.2665 59.6393 37.6362 55.5974 38.088C51.5554 38.5399 48.2291 38.9096 48.2056 38.9096C48.1715 38.9096 48.1628 37.5732 48.1628 32.3426V25.7756L56.1297 25.7506C60.5115 25.7369 64.1019 25.7203 64.1085 25.7138C64.1173 25.7049 64.7612 16.9071 64.7643 16.7536C64.7649 16.7257 62.9429 16.7278 56.5665 16.7633ZM50.2536 76.285C43.1596 78.2127 37.9443 79.6461 37.9362 79.6705C37.9284 79.6938 37.9373 79.7129 37.9559 79.7129C37.9949 79.7129 62.4446 73.0172 62.5741 72.971C62.6211 72.9543 62.6365 72.9408 62.6083 72.9412C62.5801 72.9415 57.0204 74.4462 50.2536 76.285Z"/>
</svg>
