<svg width="20" height="20" viewBox="0 0 20 20" xmlns="http://www.w3.org/2000/svg">
<path fill-rule="evenodd" clip-rule="evenodd" d="M1.13534 0.024357C0.762388 0.104294 0.450504 0.314425 0.236755 0.629758C0.161597 0.740633 0.0676035 0.952664 0.0325451 1.09043L4.28411e-05 1.21818V9.99926V18.7803L0.0325022 18.9089C0.0761717 19.082 0.197298 19.3242 0.312598 19.469C0.525234 19.7361 0.826893 19.9167 1.16638 19.9801C1.2733 20.0001 2.16782 20.002 10.0392 19.9987L18.7931 19.995L18.9023 19.9638C19.1271 19.8996 19.2887 19.8146 19.4758 19.6623C19.7119 19.47 19.9052 19.1391 19.9585 18.836C19.968 18.7818 19.9812 18.7313 19.9878 18.7239C20.0055 18.7038 20.0032 1.25008 19.9855 1.26105C19.9775 1.26597 19.9712 1.25522 19.9711 1.23689C19.9708 1.15274 19.9073 0.94852 19.8363 0.803779C19.6472 0.418455 19.3292 0.156838 18.9013 0.0344884L18.7931 0.00355103L10.0249 0.000936021C1.59279 -0.00156469 1.25206 -0.000664435 1.13534 0.024357ZM0 9.99926C0 14.8053 0.00162797 16.7714 0.00361294 14.3684C0.00559792 11.9654 0.00559792 8.03317 0.00361294 5.63015C0.00162797 3.22716 0 5.19324 0 9.99926ZM4.34129 2.87061C3.60595 2.96357 3.03003 3.50233 2.86936 4.24762C2.83195 4.42112 2.83532 4.74892 2.87639 4.93081C3.02244 5.57777 3.48928 6.06299 4.13422 6.23821C4.25886 6.27208 4.29309 6.27507 4.55549 6.27507C4.8179 6.27507 4.85213 6.27208 4.97677 6.23821C5.28764 6.15376 5.53981 6.00838 5.76323 5.78481C5.98635 5.56155 6.13247 5.30868 6.21558 5.00203C6.25071 4.87242 6.25351 4.84096 6.25351 4.57628C6.25351 4.31149 6.25071 4.28018 6.21551 4.15026C6.11135 3.76584 5.88129 3.42481 5.57015 3.19357C5.22579 2.93764 4.76632 2.81688 4.34129 2.87061ZM13.1594 7.38587C12.1843 7.49724 11.3029 8.0311 10.8499 8.78461C10.807 8.85587 10.7725 8.89811 10.7568 8.89844C10.7333 8.89892 10.7318 8.85865 10.7318 8.24876V7.59857H9.31801H7.90425V12.3714V17.1442H9.38177H10.8593L10.8643 14.4898C10.8697 11.6107 10.8657 11.7607 10.9472 11.3579C11.1005 10.5996 11.5019 10.1537 12.1583 10.0123C12.3585 9.96925 12.763 9.95853 12.958 9.99117C13.6142 10.101 13.9809 10.5251 14.1148 11.3291C14.1761 11.6973 14.1772 11.7463 14.1834 14.497L14.1895 17.1442H15.6666H17.1437L17.1433 14.4255C17.1429 11.3425 17.1375 11.0935 17.0569 10.4565C16.7891 8.33974 15.6983 7.36182 13.6164 7.37194C13.424 7.37288 13.2184 7.37915 13.1594 7.38587ZM3.07747 12.3714V17.1442H4.55549H6.03352V12.3714V7.59857H4.55549H3.07747V12.3714Z"/>
</svg>
