<svg width="27" height="27" viewBox="0 0 27 27" xmlns="http://www.w3.org/2000/svg">
<path d="M12.2344 6.22357C9.65261 5.08055 6.77842 4.77201 4.01288 5.341C3.83048 5.38065 3.66737 5.48209 3.55114 5.62814C3.4349 5.7742 3.37269 5.95592 3.375 6.14257V19.6324C3.375 20.2146 3.95213 20.6247 4.52081 20.4964C5.83301 20.2024 7.19054 20.1718 8.51465 20.4065C9.83876 20.6411 11.1031 21.1363 12.2344 21.8633V6.22357ZM14.7656 21.8633C15.8969 21.1363 17.1612 20.6411 18.4854 20.4065C19.8095 20.1718 21.167 20.2024 22.4792 20.4964C23.0479 20.623 23.625 20.2146 23.625 19.6324V6.14257C23.6273 5.95592 23.5651 5.7742 23.4489 5.62814C23.3326 5.48209 23.1695 5.38065 22.9871 5.341C20.2216 4.7719 17.3474 5.08044 14.7656 6.22357V21.8633Z"/>
</svg>
