<svg width="131" height="106" viewBox="0 0 131 106" fill="none" xmlns="http://www.w3.org/2000/svg">
<g clip-path="url(#clip0_53_210)">
<path d="M50.3389 34.2902L51.0201 34.2368H51.0725C51.352 34.2368 51.5791 34.2902 51.7537 34.3969C51.9284 34.5747 52.0332 34.717 52.0681 34.8237C52.1729 35.0016 52.2777 35.464 52.3825 36.211C53.5703 42.7559 55.1248 49.2653 57.0461 55.7392C57.9544 58.7627 58.8103 61.057 59.6137 62.6221L59.8757 63.1556L61.2905 61.7684C63.4913 59.5986 65.8319 57.1086 68.3121 54.2986L84.3465 35.7308C84.9753 35.0194 85.3072 34.6459 85.3421 34.6103C85.6915 34.3613 85.9884 34.2368 86.2329 34.2368C86.4076 34.2368 86.5473 34.308 86.6521 34.4502C86.8268 34.6281 86.9316 34.8237 86.9665 35.0372C87.1761 35.5707 87.1761 36.1932 86.9665 36.9046L86.2329 40.5328C85.0801 46.8999 84.2243 53.3559 83.6653 59.9009C83.4208 62.6754 83.4208 65.2187 83.6653 67.5308C83.7003 68.3133 83.8051 68.7935 83.9797 68.9714C84.1544 69.1492 84.4164 69.1492 84.7657 68.9714L85.1849 68.758C85.9535 68.4023 86.3552 68.2244 86.3901 68.2244C87.3683 67.8687 88.0495 67.7976 88.4337 68.011C88.9577 68.2955 89.0451 68.7757 88.6957 69.4516C88.4512 69.9851 87.9621 70.5009 87.2285 70.9989C86.0757 71.7814 84.7657 72.4395 83.2985 72.9731C82.53 73.222 81.744 73.3465 80.9405 73.3465H80.0497L79.5781 73.1331C78.7397 72.7063 78.2507 72.1194 78.1109 71.3724C77.7616 70.163 77.6568 67.7976 77.7965 64.2761C78.0411 59.9365 78.6873 54.2986 79.7353 47.3623C79.8401 46.8999 79.8925 46.6509 79.8925 46.6153L78.3729 48.3761L66.2685 62.0885C63.4739 65.1476 61.0111 67.6375 58.8801 69.5583C58.6705 69.7361 58.5308 69.8429 58.4609 69.8784C58.3561 69.914 58.164 69.9674 57.8845 70.0385C57.6749 70.0385 57.5003 70.0029 57.3605 69.9318C57.116 69.7539 56.8365 69.3982 56.5221 68.8647C55.2995 66.9083 54.234 64.7207 53.3257 62.3019C52.0332 58.8871 50.6009 53.765 49.0289 46.9355L48.7145 45.7083L48.6621 45.8684C48.6272 46.0106 48.5748 46.1885 48.5049 46.4019C48.0857 48.3583 47.2997 51.1506 46.1469 54.7788C44.3653 60.1499 42.6536 64.5073 41.0117 67.8509C39.0555 71.7637 37.2215 73.9512 35.5097 74.4137C35.2652 74.4848 34.9333 74.5204 34.5141 74.5204C33.8155 74.4492 33.1867 74.2892 32.6277 74.0402C31.6147 73.6489 30.8811 73.0264 30.4269 72.1727C30.3221 71.9949 30.2523 71.6747 30.2173 71.2123C30.2173 70.572 30.3047 69.9496 30.4793 69.3449C30.9684 67.8865 31.5972 66.9794 32.3657 66.6237C32.5055 66.5526 32.6627 66.517 32.8373 66.517C33.012 66.517 33.1692 66.5882 33.3089 66.7304C33.6932 67.2284 34.0775 67.5663 34.4617 67.7442C35.0556 68.0288 35.5971 68.2066 36.0861 68.2778L36.6101 68.3311L36.8721 68.2244C37.6756 67.8331 38.9157 65.5566 40.5925 61.3949C42.6885 56.0949 44.2955 51.0972 45.4133 46.4019C46.2168 42.916 46.7408 39.9992 46.9853 37.6516L47.1425 36.7979C47.422 35.9086 48.1905 35.1794 49.4481 34.6103C49.7276 34.468 50.0245 34.3613 50.3389 34.2902Z" fill="#FF5900"/>
<mask id="mask0_53_210" style="mask-type:luminance" maskUnits="userSpaceOnUse" x="29" y="33" width="61" height="43">
<path d="M89.4293 33.792H29.6933V75.0537H89.4293V33.792Z" fill="white"/>
<path d="M50.3389 34.2902L51.0201 34.2368H51.0725C51.352 34.2368 51.5791 34.2902 51.7537 34.3969C51.9284 34.5747 52.0332 34.717 52.0681 34.8237C52.1729 35.0016 52.2777 35.464 52.3825 36.211C53.5703 42.7559 55.1248 49.2653 57.0461 55.7392C57.9544 58.7627 58.8103 61.057 59.6137 62.6221L59.8757 63.1556L61.2905 61.7684C63.4913 59.5986 65.8319 57.1086 68.3121 54.2986L84.3465 35.7308C84.9753 35.0194 85.3072 34.6459 85.3421 34.6103C85.6915 34.3613 85.9884 34.2368 86.2329 34.2368C86.4076 34.2368 86.5473 34.308 86.6521 34.4502C86.8268 34.6281 86.9316 34.8237 86.9665 35.0372C87.1761 35.5707 87.1761 36.1932 86.9665 36.9046L86.2329 40.5328C85.0801 46.8999 84.2243 53.3559 83.6653 59.9009C83.4208 62.6754 83.4208 65.2187 83.6653 67.5308C83.7003 68.3133 83.8051 68.7935 83.9797 68.9714C84.1544 69.1492 84.4164 69.1492 84.7657 68.9714L85.1849 68.758C85.9535 68.4023 86.3552 68.2244 86.3901 68.2244C87.3683 67.8687 88.0495 67.7976 88.4337 68.011C88.9577 68.2955 89.0451 68.7757 88.6957 69.4516C88.4512 69.9851 87.9621 70.5009 87.2285 70.9989C86.0757 71.7814 84.7657 72.4395 83.2985 72.9731C82.53 73.222 81.744 73.3465 80.9405 73.3465H80.0497L79.5781 73.1331C78.7397 72.7063 78.2507 72.1194 78.1109 71.3724C77.7616 70.163 77.6568 67.7976 77.7965 64.2761C78.0411 59.9365 78.6873 54.2986 79.7353 47.3623C79.8401 46.8999 79.8925 46.6509 79.8925 46.6153L78.3729 48.3761L66.2685 62.0885C63.4739 65.1476 61.0111 67.6375 58.8801 69.5583C58.6705 69.7361 58.5308 69.8429 58.4609 69.8784C58.3561 69.914 58.164 69.9674 57.8845 70.0385C57.6749 70.0385 57.5003 70.0029 57.3605 69.9318C57.116 69.7539 56.8365 69.3982 56.5221 68.8647C55.2995 66.9083 54.234 64.7207 53.3257 62.3019C52.0332 58.8871 50.6009 53.765 49.0289 46.9355L48.7145 45.7083L48.6621 45.8684C48.6272 46.0106 48.5748 46.1885 48.5049 46.4019C48.0857 48.3583 47.2997 51.1506 46.1469 54.7788C44.3653 60.1499 42.6536 64.5073 41.0117 67.8509C39.0555 71.7637 37.2215 73.9512 35.5097 74.4137C35.2652 74.4848 34.9333 74.5204 34.5141 74.5204C33.8155 74.4492 33.1867 74.2892 32.6277 74.0402C31.6147 73.6489 30.8811 73.0264 30.4269 72.1727C30.3221 71.9949 30.2523 71.6747 30.2173 71.2123C30.2173 70.572 30.3047 69.9496 30.4793 69.3449C30.9684 67.8865 31.5972 66.9794 32.3657 66.6237C32.5055 66.5526 32.6627 66.517 32.8373 66.517C33.012 66.517 33.1692 66.5882 33.3089 66.7304C33.6932 67.2284 34.0775 67.5663 34.4617 67.7442C35.0556 68.0288 35.5971 68.2066 36.0861 68.2778L36.6101 68.3311L36.8721 68.2244C37.6756 67.8331 38.9157 65.5566 40.5925 61.3949C42.6885 56.0949 44.2955 51.0972 45.4133 46.4019C46.2168 42.916 46.7408 39.9992 46.9853 37.6516L47.1425 36.7979C47.422 35.9086 48.1905 35.1794 49.4481 34.6103C49.7276 34.468 50.0245 34.3613 50.3389 34.2902Z" fill="black"/>
</mask>
<g mask="url(#mask0_53_210)">
<path d="M50.3389 34.2899L50.312 33.9352L50.2872 33.9372L50.2631 33.9427L50.3389 34.2899ZM51.0201 34.2366V33.8809H51.0069L50.9932 33.8819L51.0201 34.2366ZM51.7537 34.3966L52.0007 34.1451L51.9703 34.1141L51.9336 34.0916L51.7537 34.3966ZM52.0681 34.8235L51.7366 34.936L51.7488 34.973L51.7688 35.0065L52.0681 34.8235ZM52.3825 36.2107L52.0367 36.2609L52.0377 36.2683L52.0391 36.2755L52.3825 36.2107ZM57.0461 55.7389L56.7118 55.8417L56.7122 55.8431L57.0461 55.7389ZM59.6137 62.6218L59.926 62.4628L59.9246 62.46L59.9232 62.4571L59.6137 62.6218ZM59.8757 63.1554L59.5634 63.3144L59.7758 63.7472L60.1182 63.4115L59.8757 63.1554ZM61.2905 61.7681L61.533 62.0242L61.5337 62.0235L61.2905 61.7681ZM68.3121 54.2983L68.572 54.5359L68.5745 54.5331L68.3121 54.2983ZM84.3465 35.7305L84.087 35.4926L84.0842 35.4957L84.3465 35.7305ZM85.3421 34.6101L85.142 34.3187L85.1168 34.3365L85.0952 34.3585L85.3421 34.6101ZM86.6521 34.45L86.3727 34.6634L86.3877 34.6836L86.4052 34.7015L86.6521 34.45ZM86.9665 35.0369L86.6221 35.0954L86.628 35.1333L86.6424 35.169L86.9665 35.0369ZM86.9665 36.9043L86.6319 36.8023L86.6273 36.8172L86.6245 36.8325L86.9665 36.9043ZM86.2329 40.5325L85.8909 40.4607L85.8899 40.4646L85.8895 40.4682L86.2329 40.5325ZM83.6653 59.9007L84.0133 59.9323V59.9316L83.6653 59.9007ZM83.6653 67.5305L84.0143 67.5145L84.014 67.5035L84.0126 67.4925L83.6653 67.5305ZM85.1849 68.7577L85.0403 68.434L85.0344 68.4365L85.0288 68.4397L85.1849 68.7577ZM86.3901 68.2241V68.5799H86.4506L86.5075 68.5592L86.3901 68.2241ZM88.4337 68.0107L88.2664 68.323L88.2692 68.3245L88.4337 68.0107ZM88.6957 69.4513L88.3866 69.2856L88.3827 69.293L88.3792 69.3009L88.6957 69.4513ZM83.2985 72.9728L83.4044 73.3118L83.4103 73.31L83.4159 73.3079L83.2985 72.9728ZM80.0497 73.3463L79.9079 73.6714L79.9757 73.702H80.0497V73.3463ZM79.5781 73.1329L79.422 73.4509L79.429 73.4548L79.4363 73.458L79.5781 73.1329ZM78.1109 71.3721L78.454 71.3056L78.4508 71.2885L78.4459 71.2718L78.1109 71.3721ZM77.7965 64.2758L77.4479 64.2556L77.4476 64.2584V64.2616L77.7965 64.2758ZM79.7353 47.3621L79.3951 47.282L79.3919 47.2948L79.3902 47.308L79.7353 47.3621ZM79.8925 46.6151H80.2419V45.6714L79.6302 46.3803L79.8925 46.6151ZM78.3729 48.3758L78.6328 48.6138L78.6353 48.6106L78.3729 48.3758ZM66.2685 62.0882L66.5243 62.3305L66.5263 62.3283L66.5284 62.3259L66.2685 62.0882ZM58.8801 69.558L59.1037 69.8312L59.1079 69.828L59.1117 69.8245L58.8801 69.558ZM58.4609 69.8782L58.5713 70.2157L58.5951 70.2076L58.6171 70.1962L58.4609 69.8782ZM57.8845 70.0382V70.3939H57.9275L57.9694 70.3833L57.8845 70.0382ZM57.3605 69.9315L57.1576 70.2211L57.1799 70.2371L57.2044 70.2495L57.3605 69.9315ZM56.5221 68.8644L56.8215 68.6816L56.8194 68.6773L56.817 68.6734L56.5221 68.8644ZM53.3257 62.3017L53.652 62.1747L53.6517 62.1736L53.3257 62.3017ZM49.0289 46.9352L49.3692 46.8541L49.3681 46.8499L49.3671 46.8456L49.0289 46.9352ZM48.7145 45.708L49.0527 45.6184L48.7554 44.4584L48.383 45.5956L48.7145 45.708ZM48.6621 45.8681L48.3306 45.7557L48.3264 45.7685L48.3233 45.7817L48.6621 45.8681ZM48.5049 46.4017L48.1734 46.2893L48.1675 46.3074L48.1636 46.3259L48.5049 46.4017ZM46.1469 54.7785L46.4781 54.8923L46.4791 54.8881L46.1469 54.7785ZM41.0117 67.8507L41.323 68.0121L41.324 68.0097L41.0117 67.8507ZM35.5097 74.4134L35.4203 74.0694L35.4168 74.0705L35.4137 74.0712L35.5097 74.4134ZM34.5141 74.5201L34.4794 74.874L34.4967 74.8758H34.5141V74.5201ZM32.6277 74.0399L32.7677 73.7141L32.7598 73.7105L32.7516 73.7073L32.6277 74.0399ZM30.4269 72.1725L30.7341 72.0032L30.7304 71.996L30.7265 71.9896L30.4269 72.1725ZM30.2173 71.2121H29.868V71.2256L29.869 71.2395L30.2173 71.2121ZM30.4793 69.3446L30.1488 69.2297L30.1463 69.2368L30.1442 69.2443L30.4793 69.3446ZM32.3657 66.6235L32.5103 66.9472L32.5162 66.9447L32.522 66.9415L32.3657 66.6235ZM33.3089 66.7302L33.5836 66.5104L33.5707 66.4936L33.5559 66.4787L33.3089 66.7302ZM34.4617 67.7439L34.6105 67.422L34.6063 67.4203L34.4617 67.7439ZM36.0861 68.2775L36.0369 68.6297L36.0439 68.6307L36.0512 68.6314L36.0861 68.2775ZM36.6101 68.3309L36.5752 68.6848L36.6604 68.6933L36.7397 68.661L36.6101 68.3309ZM36.8721 68.2241L37.0017 68.5542L37.0126 68.55L37.0227 68.545L36.8721 68.2241ZM40.5925 61.3946L40.9157 61.5298L40.9167 61.5277L40.5925 61.3946ZM45.4133 46.4017L45.7529 46.4856L45.7536 46.4828L45.4133 46.4017ZM46.9853 37.6513L46.6419 37.5859L46.6395 37.5998L46.6381 37.614L46.9853 37.6513ZM47.1425 36.7976L46.81 36.6891L46.8033 36.7105L46.7991 36.7322L47.1425 36.7976ZM49.4481 34.6101L49.59 34.9351L49.5973 34.9318L49.6043 34.9282L49.4481 34.6101ZM50.3389 34.2899L50.3658 34.6446L51.047 34.5912L51.0201 34.2366L50.9932 33.8819L50.312 33.9352L50.3389 34.2899ZM51.0201 34.2366V34.5923H51.0725V34.2366V33.8809H51.0201V34.2366ZM51.0725 34.2366V34.5923C51.3115 34.5923 51.4701 34.6382 51.5742 34.7016L51.7537 34.3966L51.9336 34.0916C51.6881 33.9416 51.3929 33.8809 51.0725 33.8809V34.2366ZM51.7537 34.3966L51.5068 34.6481C51.5868 34.7296 51.6444 34.7967 51.6839 34.8502C51.7034 34.8766 51.7167 34.8975 51.7254 34.9133C51.7345 34.9293 51.737 34.9366 51.7366 34.936L52.0681 34.8235L52.3996 34.711C52.3364 34.5183 52.1775 34.3252 52.0007 34.1451L51.7537 34.3966ZM52.0681 34.8235L51.7688 35.0065C51.7901 35.043 51.833 35.1542 51.8851 35.3837C51.9343 35.601 51.985 35.8924 52.0367 36.2609L52.3825 36.2107L52.7284 36.1606C52.6753 35.7821 52.6211 35.4687 52.5656 35.2237C52.5128 34.9908 52.451 34.7818 52.3675 34.6405L52.0681 34.8235ZM52.3825 36.2107L52.0391 36.2755C53.229 42.8336 54.7866 49.3554 56.7118 55.8417L57.0461 55.7389L57.3804 55.6361C55.463 49.1744 53.9116 42.6778 52.7259 36.146L52.3825 36.2107ZM57.0461 55.7389L56.7122 55.8431C57.6225 58.8737 58.4857 61.1926 59.3042 62.7865L59.6137 62.6218L59.9232 62.4571C59.1348 60.9208 58.2863 58.6511 57.3801 55.6347L57.0461 55.7389ZM59.6137 62.6218L59.3014 62.7808L59.5634 63.3144L59.8757 63.1554L60.188 62.9964L59.926 62.4628L59.6137 62.6218ZM59.8757 63.1554L60.1182 63.4115L61.533 62.0242L61.2905 61.7681L61.0481 61.512L59.6333 62.8992L59.8757 63.1554ZM61.2905 61.7681L61.5337 62.0235C63.7411 59.8469 66.0872 57.351 68.572 54.5359L68.3121 54.2983L68.0522 54.0607C65.5765 56.8658 63.2416 59.3497 61.0474 61.5127L61.2905 61.7681ZM68.3121 54.2983L68.5745 54.5331L84.6089 35.9653L84.3465 35.7305L84.0842 35.4957L68.0498 54.0635L68.3121 54.2983ZM84.3465 35.7305L84.6061 35.9685C84.9205 35.6128 85.1605 35.3419 85.3261 35.1555C85.4089 35.0623 85.4728 34.9905 85.5182 34.9399C85.5409 34.9146 85.5587 34.895 85.5713 34.8809C85.586 34.8647 85.5905 34.8603 85.5891 34.8616L85.3421 34.6101L85.0952 34.3585C85.0515 34.4029 84.7091 34.7886 84.087 35.4926L84.3465 35.7305ZM85.3421 34.6101L85.5423 34.9014C85.8717 34.6668 86.096 34.5923 86.2329 34.5923V34.2366V33.8809C85.8808 33.8809 85.5112 34.0554 85.142 34.3187L85.3421 34.6101ZM86.2329 34.2366V34.5923C86.2976 34.5923 86.3339 34.6107 86.3727 34.6634L86.6521 34.45L86.9316 34.2366C86.7608 34.0047 86.5176 33.8809 86.2329 33.8809V34.2366ZM86.6521 34.45L86.4052 34.7015C86.5369 34.8357 86.6008 34.9665 86.6221 35.0954L86.9665 35.0369L87.311 34.9784C87.2624 34.6805 87.1167 34.4199 86.8991 34.1985L86.6521 34.45ZM86.9665 35.0369L86.6424 35.169C86.8149 35.6085 86.8254 36.1449 86.6319 36.8023L86.9665 36.9043L87.3012 37.0064C87.5269 36.241 87.5373 35.5325 87.2907 34.9048L86.9665 35.0369ZM86.9665 36.9043L86.6245 36.8325L85.8909 40.4607L86.2329 40.5325L86.5749 40.6044L87.3085 36.9762L86.9665 36.9043ZM86.2329 40.5325L85.8895 40.4682C84.7346 46.8463 83.877 53.3137 83.3174 59.8697L83.6653 59.9007L84.0133 59.9316C84.5715 53.3977 85.4256 46.953 86.5763 40.5969L86.2329 40.5325ZM83.6653 59.9007L83.3174 59.869C83.0711 62.6624 83.0708 65.2291 83.3181 67.5686L83.6653 67.5305L84.0126 67.4925C83.7712 65.2078 83.7705 62.688 84.0133 59.9323L83.6653 59.9007ZM83.6653 67.5305L83.3164 67.5465C83.3342 67.9481 83.3705 68.2864 83.4292 68.5546C83.4844 68.8082 83.5714 69.0583 83.7328 69.2226L83.9797 68.9711L84.2267 68.7196C84.2134 68.7061 84.1607 68.6272 84.1111 68.4006C84.065 68.1886 84.0314 67.8955 84.0143 67.5145L83.6653 67.5305ZM83.9797 68.9711L83.7328 69.2226C84.0716 69.5676 84.5296 69.489 84.9219 69.2891L84.7657 68.9711L84.6096 68.6531C84.4615 68.7282 84.364 68.7488 84.3074 68.7488C84.2627 68.7488 84.2442 68.7374 84.2267 68.7196L83.9797 68.9711ZM84.7657 68.9711L84.9219 69.2891L85.3411 69.0757L85.1849 68.7577L85.0288 68.4397L84.6096 68.6531L84.7657 68.9711ZM85.1849 68.7577L85.3296 69.0814C85.7131 68.9039 86.0038 68.7716 86.2018 68.6837C86.3014 68.6396 86.3751 68.608 86.4251 68.5877C86.4502 68.5774 86.4656 68.5717 86.4736 68.5688C86.4782 68.5674 86.4761 68.5681 86.4705 68.5695C86.4677 68.5702 86.4604 68.5724 86.4506 68.5742C86.4432 68.5756 86.4205 68.5799 86.3901 68.5799V68.2241V67.8684C86.3367 67.8684 86.293 67.8816 86.2881 67.8827C86.2724 67.8873 86.2574 67.8923 86.2459 67.8962C86.2221 67.9044 86.1949 67.9154 86.1655 67.9271C86.1061 67.9513 86.0247 67.9865 85.9234 68.0314C85.7198 68.1213 85.4253 68.2558 85.0403 68.434L85.1849 68.7577ZM86.3901 68.2241L86.5075 68.5592C86.9823 68.3863 87.3679 68.2896 87.6704 68.2579C87.9775 68.2259 88.1623 68.2651 88.2664 68.323L88.4337 68.0107L88.6011 67.6984C88.3209 67.543 87.973 67.511 87.5988 67.5501C87.2201 67.5896 86.7761 67.7062 86.2728 67.8891L86.3901 68.2241ZM88.4337 68.0107L88.2692 68.3245C88.462 68.4294 88.5291 68.5404 88.5487 68.6492C88.5721 68.7773 88.5441 68.9811 88.3866 69.2856L88.6957 69.4513L89.0049 69.6171C89.1967 69.2457 89.2997 68.8715 89.2358 68.5194C89.168 68.148 88.9294 67.8766 88.5983 67.697L88.4337 68.0107ZM88.6957 69.4513L88.3792 69.3009C88.1724 69.7523 87.741 70.2232 87.0347 70.7027L87.2285 70.9986L87.4224 71.2946C88.1833 70.7781 88.73 70.2175 89.0122 69.6018L88.6957 69.4513ZM87.2285 70.9986L87.0347 70.7027C85.9084 71.4671 84.6246 72.1127 83.1812 72.6377L83.2985 72.9728L83.4159 73.3079C84.9069 72.7658 86.2431 72.0953 87.4224 71.2946L87.2285 70.9986ZM83.2985 72.9728L83.1927 72.6338C82.458 72.8718 81.708 72.9906 80.9405 72.9906V73.3463V73.702C81.78 73.702 82.602 73.5718 83.4044 73.3118L83.2985 72.9728ZM80.9405 73.3463V72.9906H80.0497V73.3463V73.702H80.9405V73.3463ZM80.0497 73.3463L80.1916 73.0212L79.72 72.8078L79.5781 73.1329L79.4363 73.458L79.9079 73.6714L80.0497 73.3463ZM79.5781 73.1329L79.7343 72.8149C78.9661 72.4236 78.5682 71.9164 78.454 71.3056L78.1109 71.3721L77.7679 71.4387C77.9331 72.3219 78.5134 72.9885 79.422 73.4509L79.5781 73.1329ZM78.1109 71.3721L78.4459 71.2718C78.1155 70.1268 78.0054 67.819 78.1455 64.2901L77.7965 64.2758L77.4476 64.2616C77.3082 67.7756 77.4077 70.1987 77.7759 71.4724L78.1109 71.3721ZM77.7965 64.2758L78.1452 64.2961C78.389 59.9725 79.0335 54.347 80.0805 47.4161L79.7353 47.3621L79.3902 47.308C78.3411 54.2496 77.6931 59.8999 77.4479 64.2556L77.7965 64.2758ZM79.7353 47.3621L80.0756 47.4421C80.1283 47.2102 80.1682 47.0302 80.1947 46.9032C80.208 46.8395 80.2188 46.7872 80.2261 46.7474C80.2303 46.7243 80.2419 46.6645 80.2419 46.6151H79.8925H79.5432C79.5432 46.5834 79.5481 46.5681 79.5394 46.6162C79.5338 46.6475 79.5247 46.693 79.5118 46.7538C79.4859 46.8758 79.4471 47.0515 79.3951 47.282L79.7353 47.3621ZM79.8925 46.6151L79.6302 46.3803L78.1106 48.1411L78.3729 48.3758L78.6353 48.6106L80.1549 46.8499L79.8925 46.6151ZM78.3729 48.3758L78.113 48.1382L66.0086 61.8506L66.2685 62.0882L66.5284 62.3259L78.6328 48.6134L78.3729 48.3758ZM66.2685 62.0882L66.0128 61.846C63.2227 64.9001 60.7683 67.3811 58.6485 69.2916L58.8801 69.558L59.1117 69.8245C61.2539 67.8933 63.725 65.3945 66.5243 62.3305L66.2685 62.0882ZM58.8801 69.558L58.6566 69.2849C58.5542 69.3717 58.4718 69.4385 58.4085 69.4869C58.3771 69.5111 58.3519 69.5292 58.3327 69.542C58.3121 69.5563 58.3037 69.5605 58.3048 69.5602L58.4609 69.8782L58.6171 70.1962C58.7306 70.1385 58.9032 70.0016 59.1037 69.8312L58.8801 69.558ZM58.4609 69.8782L58.3505 69.5406C58.2601 69.5716 58.0802 69.6217 57.7996 69.6932L57.8845 70.0382L57.9694 70.3833C58.2478 70.3125 58.4522 70.2559 58.5713 70.2157L58.4609 69.8782ZM57.8845 70.0382V69.6825C57.7116 69.6825 57.5942 69.653 57.5167 69.6135L57.3605 69.9315L57.2044 70.2495C57.4063 70.3523 57.6383 70.3939 57.8845 70.3939V70.0382ZM57.3605 69.9315L57.5635 69.642C57.3808 69.509 57.1317 69.2073 56.8215 68.6816L56.5221 68.8644L56.2228 69.0472C56.5413 69.5886 56.8512 69.9984 57.1576 70.2211L57.3605 69.9315ZM56.5221 68.8644L56.817 68.6734C55.6083 66.7394 54.5529 64.5735 53.652 62.1747L53.3257 62.3017L52.9995 62.4287C53.9151 64.8674 54.9907 67.0766 56.2273 69.0554L56.5221 68.8644ZM53.3257 62.3017L53.6517 62.1736C52.3679 58.7823 50.9401 53.6794 49.3692 46.8541L49.0289 46.9352L48.6887 47.0163C50.2617 53.8501 51.6985 58.9915 52.9998 62.4297L53.3257 62.3017ZM49.0289 46.9352L49.3671 46.8456L49.0527 45.6184L48.7145 45.708L48.3764 45.7977L48.6908 47.0249L49.0289 46.9352ZM48.7145 45.708L48.383 45.5956L48.3306 45.7557L48.6621 45.8681L48.9936 45.9805L49.0461 45.8204L48.7145 45.708ZM48.6621 45.8681L48.3233 45.7817C48.2911 45.9119 48.2419 46.0805 48.1734 46.2893L48.5049 46.4017L48.8365 46.5141C48.9077 46.296 48.9633 46.1089 49.001 45.9545L48.6621 45.8681ZM48.5049 46.4017L48.1636 46.3259C47.7483 48.2648 46.9665 51.044 45.8147 54.669L46.1469 54.7785L46.4791 54.8881C47.633 51.2567 48.4232 48.4512 48.8462 46.4774L48.5049 46.4017ZM46.1469 54.7785L45.8161 54.6647C44.0373 60.0273 42.3312 64.368 40.6994 67.6917L41.0117 67.8507L41.324 68.0097C42.976 64.6461 44.6934 60.272 46.4778 54.8923L46.1469 54.7785ZM41.0117 67.8507L40.7005 67.6892C39.729 69.6324 38.7959 71.1306 37.9034 72.1949C37.0073 73.2638 36.1777 73.8649 35.4203 74.0694L35.5097 74.4134L35.5992 74.7574C36.5535 74.4995 37.4967 73.7756 38.4347 72.6569C39.3762 71.5336 40.3382 69.9817 41.323 68.0121L41.0117 67.8507ZM35.5097 74.4134L35.4137 74.0712C35.2142 74.1296 34.919 74.1644 34.5141 74.1644V74.5201V74.8758C34.9477 74.8758 35.3162 74.8395 35.6058 74.7556L35.5097 74.4134ZM34.5141 74.5201L34.5489 74.1662C33.8812 74.0983 33.2886 73.946 32.7677 73.7141L32.6277 74.0399L32.4877 74.3657C33.0847 74.6318 33.7498 74.7997 34.4794 74.874L34.5141 74.5201ZM32.6277 74.0399L32.7516 73.7073C31.8055 73.342 31.1429 72.7715 30.7341 72.0032L30.4269 72.1725L30.1198 72.3418C30.6192 73.2808 31.4238 73.9553 32.5038 74.3725L32.6277 74.0399ZM30.4269 72.1725L30.7265 71.9896C30.6675 71.8893 30.6003 71.6442 30.5657 71.1847L30.2173 71.2121L29.869 71.2395C29.9042 71.7047 29.9768 72.0999 30.1274 72.3553L30.4269 72.1725ZM30.2173 71.2121H30.5667C30.5667 70.6052 30.6494 70.0165 30.8145 69.4449L30.4793 69.3446L30.1442 69.2443C29.96 69.8821 29.868 70.5384 29.868 71.2121H30.2173ZM30.4793 69.3446L30.8099 69.4595C31.2907 68.026 31.8776 67.2403 32.5103 66.9472L32.3657 66.6235L32.2212 66.2998C31.3168 66.7181 30.6461 67.7464 30.1488 69.2297L30.4793 69.3446ZM32.3657 66.6235L32.522 66.9415C32.6077 66.8981 32.7104 66.8725 32.8373 66.8725V66.5168V66.1611C32.6149 66.1611 32.4032 66.2066 32.2095 66.3055L32.3657 66.6235ZM32.8373 66.5168V66.8725C32.9069 66.8725 32.9783 66.8967 33.0619 66.9817L33.3089 66.7302L33.5559 66.4787C33.3601 66.2792 33.1171 66.1611 32.8373 66.1611V66.5168ZM33.3089 66.7302L33.0343 66.95C33.4379 67.4733 33.8636 67.8578 34.3172 68.0676L34.4617 67.7439L34.6063 67.4203C34.2914 67.2744 33.9485 66.9831 33.5836 66.5104L33.3089 66.7302ZM34.4617 67.7439L34.313 68.0659C34.9287 68.3607 35.5041 68.5521 36.0369 68.6297L36.0861 68.2775L36.1354 67.9254C35.69 67.8606 35.1824 67.6963 34.6105 67.422L34.4617 67.7439ZM36.0861 68.2775L36.0512 68.6314L36.5752 68.6848L36.6101 68.3309L36.6451 67.9769L36.1211 67.9236L36.0861 68.2775ZM36.6101 68.3309L36.7397 68.661L37.0017 68.5542L36.8721 68.2241L36.7425 67.8941L36.4805 68.0008L36.6101 68.3309ZM36.8721 68.2241L37.0227 68.545C37.2983 68.4109 37.5673 68.1416 37.8321 67.7959C38.1028 67.4423 38.3956 66.9735 38.7103 66.3958C39.3402 65.2398 40.0752 63.6156 40.9157 61.5298L40.5925 61.3946L40.2694 61.2595C39.4331 63.3353 38.7096 64.9303 38.0993 66.0508C37.794 66.6114 37.5212 67.045 37.2812 67.3584C37.0349 67.6799 36.8477 67.8418 36.7216 67.9033L36.8721 68.2241ZM40.5925 61.3946L40.9167 61.5277C43.018 56.2145 44.6305 51.2001 45.7529 46.4856L45.4133 46.4017L45.0738 46.3177C43.9605 50.9938 42.3591 55.9747 40.2684 61.2616L40.5925 61.3946ZM45.4133 46.4017L45.7536 46.4828C46.5588 42.989 47.0859 40.0566 47.3326 37.6887L46.9853 37.6513L46.6381 37.614C46.3957 39.9414 45.8748 42.8425 45.0731 46.3206L45.4133 46.4017ZM46.9853 37.6513L47.3287 37.7168L47.4859 36.8631L47.1425 36.7976L46.7991 36.7322L46.6419 37.5859L46.9853 37.6513ZM47.1425 36.7976L47.4751 36.9061C47.7119 36.1531 48.3774 35.4838 49.59 34.9351L49.4481 34.6101L49.3063 34.285C48.0036 34.8746 47.1321 35.6637 46.81 36.6891L47.1425 36.7976ZM49.4481 34.6101L49.6043 34.9282C49.8576 34.7993 50.1272 34.7022 50.4147 34.6372L50.3389 34.2899L50.2631 33.9427C49.9218 34.0199 49.5976 34.1362 49.292 34.2919L49.4481 34.6101Z" fill="black" fill-opacity="0.45"/>
</g>
<path d="M52.9848 72.2708C53.4794 73.0701 54.022 73.7797 54.6305 74.2222L54.7308 74.2951L54.8408 74.3513C55.3536 74.6124 55.9035 74.6981 56.4173 74.6981H56.6109L56.7988 74.6501C57.261 74.5327 57.6358 74.4306 57.8751 74.3495L57.9813 74.3132L58.0812 74.2624C58.3935 74.1034 58.7736 73.7893 59.0831 73.5268L59.1013 73.5115L59.1184 73.4955C59.2588 73.3692 59.3992 73.2404 59.5411 73.111C58.3502 75.6091 57.1345 78.0947 55.8933 80.5672C53.215 85.7844 49.9547 90.527 46.112 94.7954C43.201 97.9968 39.824 100.546 35.9813 102.443C32.1387 104.459 28.1796 105.467 24.104 105.467C20.4942 105.467 17.0591 104.399 13.7987 102.265C10.5382 100.249 8.0929 97.1075 6.46267 92.8391C5.88043 91.2978 5.4729 89.6377 5.24 87.8592C5.0071 86.0807 4.89067 84.4206 4.89067 82.8793V81.2787C4.89067 80.33 4.9489 79.3817 5.06533 78.433C5.29823 77.4844 5.82223 77.0102 6.63733 77.0102C6.87023 77.0102 6.98667 77.1286 6.98667 77.3659C6.98667 78.0773 6.92843 78.8481 6.812 79.678V81.8122C6.812 87.385 8.1511 91.5941 10.8293 94.4397C13.624 97.2854 17.0591 98.7082 21.1347 98.7082C25.2102 98.7082 29.1693 97.5226 33.012 95.1511C36.8547 92.7797 40.4063 89.7562 43.6667 86.0807C46.927 82.4052 50.013 77.8401 52.924 72.386C52.9446 72.3476 52.9642 72.3092 52.9848 72.2708ZM34.584 0.533691C35.7483 0.533691 36.8547 0.592977 37.9027 0.711544C41.629 0.948678 45.5297 1.18581 49.6053 1.42295C53.681 1.66009 57.8147 1.95651 62.0067 2.31221L89.7787 4.6243C91.6417 4.74285 94.4363 4.98 98.1627 5.3357C102.005 5.57285 105.906 5.69141 109.865 5.69141C114.174 5.69141 118.133 5.45426 121.743 4.98C125.352 4.38715 127.74 3.37933 128.904 1.95651C129.137 1.48223 129.486 1.36366 129.952 1.60081C130.418 1.83794 130.534 2.13436 130.301 2.49007C129.952 3.91289 129.486 4.98 128.904 5.69141C128.322 6.87708 127.507 8.18134 126.459 9.60416C125.527 11.027 124.072 11.9755 122.092 12.4498C121.626 12.5684 120.986 12.6869 120.171 12.8055H117.551C114.872 12.8055 111.612 12.6277 107.769 12.2719C104.043 11.7977 100.375 11.3234 96.7653 10.8491C93.272 11.442 90.2443 13.1019 87.6827 15.829C85.121 18.5561 82.9083 21.6981 81.0453 25.2552C79.1823 28.6937 77.552 31.9543 76.1547 35.037C73.8341 39.8707 71.8481 44.364 70.1961 48.5165C66.9791 52.0757 63.9151 55.2905 61.0037 58.1611L60.188 58.9603C60.0682 58.7028 59.9481 58.4349 59.8265 58.1564C60.2666 57.1573 60.703 56.1503 61.1333 55.1344C63.695 48.9689 66.0823 42.922 68.2947 36.9934C70.6237 31.065 72.7777 25.7887 74.7573 21.1646C75.9217 18.4375 78.076 16.1254 81.22 14.2283C84.4803 12.3312 87.5664 10.9677 90.4773 10.1377C89.6624 10.0192 88.847 9.95987 88.032 9.95987C87.3333 9.84131 86.6347 9.72272 85.936 9.60416L61.308 7.11423C59.445 6.87708 56.9997 6.69923 53.972 6.58067C50.9443 6.46211 47.7423 6.40282 44.3653 6.40282C39.824 6.40282 35.1663 6.69923 30.392 7.29208C25.6178 7.76634 21.3093 8.6556 17.4667 9.95987C13.624 11.2641 10.8293 13.2205 9.08267 15.829C8.1511 17.2518 7.68533 18.9118 7.68533 20.8089C7.68533 22.7059 8.20933 24.4845 9.25733 26.1444C10.3053 27.8044 11.6444 29.1086 13.2747 30.0572C13.5076 30.2943 13.624 30.4722 13.624 30.5907C13.624 30.9464 13.3329 31.2429 12.7507 31.48C12.2849 31.7171 11.7609 31.7171 11.1787 31.48C10.1307 30.8871 8.908 29.8793 7.51067 28.4565C6.11333 27.0337 4.83243 25.5516 3.668 24.0102C2.62 22.3502 1.86311 20.9867 1.39733 19.9196C0.698666 17.9039 0.349333 16.1254 0.349333 14.584C0.349333 11.7384 1.28089 9.42631 3.144 7.64779C5.12357 5.75071 7.6271 4.32789 10.6547 3.37933C13.7987 2.31221 17.1173 1.60081 20.6107 1.2451C24.2204 0.770833 27.6556 0.533691 30.916 0.533691H34.584Z" fill="black"/>
<mask id="mask1_53_210" style="mask-type:luminance" maskUnits="userSpaceOnUse" x="0" y="0" width="131" height="106">
<path d="M131 0.177734H0V105.822H131V0.177734Z" fill="white"/>
<path d="M52.9848 72.2703C53.4794 73.0696 54.022 73.7792 54.6305 74.2217L54.7308 74.2946L54.8408 74.3508C55.3536 74.6119 55.9035 74.6976 56.4173 74.6976H56.6109L56.7988 74.6496C57.261 74.5322 57.6358 74.4301 57.8751 74.349L57.9813 74.3128L58.0812 74.2619C58.3935 74.1029 58.7736 73.7888 59.0831 73.5263L59.1013 73.511L59.1184 73.495C59.2588 73.3687 59.3992 73.24 59.5411 73.1105C58.3502 75.6086 57.1345 78.0943 55.8933 80.5668C53.215 85.7839 49.9547 90.5265 46.112 94.7949C43.201 97.9963 39.824 100.546 35.9813 102.443C32.1387 104.458 28.1796 105.466 24.104 105.466C20.4942 105.466 17.0591 104.399 13.7987 102.265C10.5382 100.249 8.0929 97.107 6.46267 92.8386C5.88043 91.2973 5.4729 89.6372 5.24 87.8587C5.0071 86.0802 4.89067 84.4201 4.89067 82.8788V81.2782C4.89067 80.3295 4.9489 79.3812 5.06533 78.4325C5.29823 77.4839 5.82223 77.0097 6.63733 77.0097C6.87023 77.0097 6.98667 77.1282 6.98667 77.3654C6.98667 78.0768 6.92843 78.8476 6.812 79.6775V81.8117C6.812 87.3846 8.1511 91.5936 10.8293 94.4392C13.624 97.2849 17.0591 98.7077 21.1347 98.7077C25.2102 98.7077 29.1693 97.5221 33.012 95.1507C36.8547 92.7792 40.4063 89.7557 43.6667 86.0802C46.927 82.4047 50.013 77.8396 52.924 72.3856C52.9446 72.3471 52.9642 72.3087 52.9848 72.2703ZM34.584 0.533203C35.7483 0.533203 36.8547 0.592488 37.9027 0.711055C41.629 0.94819 45.5297 1.18532 49.6053 1.42246C53.681 1.6596 57.8147 1.95602 62.0067 2.31173L89.7787 4.62381C91.6417 4.74236 94.4363 4.97951 98.1627 5.33522C102.005 5.57236 105.906 5.69092 109.865 5.69092C114.174 5.69092 118.133 5.45377 121.743 4.97951C125.352 4.38666 127.74 3.37884 128.904 1.95602C129.137 1.48175 129.486 1.36318 129.952 1.60032C130.418 1.83745 130.534 2.13387 130.301 2.48958C129.952 3.9124 129.486 4.97951 128.904 5.69092C128.322 6.87659 127.507 8.18085 126.459 9.60367C125.527 11.0265 124.072 11.975 122.092 12.4493C121.626 12.5679 120.986 12.6865 120.171 12.805H117.551C114.872 12.805 111.612 12.6272 107.769 12.2715C104.043 11.7972 100.375 11.3229 96.7653 10.8486C93.272 11.4415 90.2443 13.1014 87.6827 15.8285C85.121 18.5556 82.9083 21.6976 81.0453 25.2547C79.1823 28.6932 77.552 31.9538 76.1547 35.0366C73.8341 39.8702 71.8481 44.3635 70.1961 48.516C66.9791 52.0752 63.9151 55.29 61.0037 58.1606L60.188 58.9598C60.0682 58.7023 59.9481 58.4345 59.8265 58.1559C60.2666 57.1568 60.703 56.1498 61.1333 55.1339C63.695 48.9684 66.0823 42.9215 68.2947 36.9929C70.6237 31.0645 72.7777 25.7882 74.7573 21.1641C75.9217 18.437 78.076 16.1249 81.22 14.2278C84.4803 12.3308 87.5664 10.9672 90.4773 10.1372C89.6624 10.0187 88.847 9.95938 88.032 9.95938C87.3333 9.84082 86.6347 9.72223 85.936 9.60367L61.308 7.11374C59.445 6.87659 56.9997 6.69874 53.972 6.58018C50.9443 6.46163 47.7423 6.40233 44.3653 6.40233C39.824 6.40233 35.1663 6.69874 30.392 7.29159C25.6178 7.76585 21.3093 8.65512 17.4667 9.95938C13.624 11.2636 10.8293 13.22 9.08267 15.8285C8.1511 17.2513 7.68533 18.9113 7.68533 20.8084C7.68533 22.7055 8.20933 24.484 9.25733 26.1439C10.3053 27.8039 11.6444 29.1081 13.2747 30.0567C13.5076 30.2938 13.624 30.4717 13.624 30.5903C13.624 30.946 13.3329 31.2424 12.7507 31.4795C12.2849 31.7167 11.7609 31.7167 11.1787 31.4795C10.1307 30.8867 8.908 29.8788 7.51067 28.456C6.11333 27.0332 4.83243 25.5511 3.668 24.0097C2.62 22.3497 1.86311 20.9862 1.39733 19.9191C0.698666 17.9034 0.349333 16.1249 0.349333 14.5835C0.349333 11.7379 1.28089 9.42582 3.144 7.6473C5.12357 5.75022 7.6271 4.3274 10.6547 3.37884C13.7987 2.31173 17.1173 1.60032 20.6107 1.24461C24.2204 0.770344 27.6556 0.533203 30.916 0.533203H34.584Z" fill="black"/>
</mask>
<g mask="url(#mask1_53_210)">
<path d="M52.9848 72.2705L53.2803 72.0809L52.9621 71.5669L52.6777 72.1009L52.9848 72.2705ZM54.7307 74.2949L54.5278 74.5844L54.5498 74.6004L54.5742 74.6128L54.7307 74.2949ZM54.8408 74.351L54.6843 74.6691L54.6846 74.6694L54.8408 74.351ZM56.6109 74.6979V75.0536H56.6538L56.6957 75.0429L56.6109 74.6979ZM57.8751 74.3493L57.9855 74.6865H57.9858L57.8751 74.3493ZM57.9813 74.313L58.092 74.6502L58.1151 74.6424L58.1371 74.6313L57.9813 74.313ZM58.0812 74.2621L58.237 74.5805H58.2374L58.0812 74.2621ZM59.0831 73.5265L58.8599 73.253L58.8595 73.2533L59.0831 73.5265ZM59.1013 73.5112L59.3241 73.7848L59.3297 73.7801L59.335 73.7755L59.1013 73.5112ZM59.1184 73.4952L58.8871 73.2288L58.8847 73.2313L59.1184 73.4952ZM59.5411 73.1107L59.8555 73.2662L59.3084 72.8457L59.5411 73.1107ZM55.8933 80.567L56.2028 80.7317L56.2042 80.7288L55.8933 80.567ZM46.112 94.7952L46.3684 95.0367L46.3695 95.0356L46.112 94.7952ZM35.9813 102.443L35.829 102.123L35.8252 102.124L35.8213 102.127L35.9813 102.443ZM13.7987 102.265L13.9876 101.966L13.9838 101.963L13.98 101.961L13.7987 102.265ZM6.46267 92.8388L6.1366 92.9665L6.13709 92.9676L6.46267 92.8388ZM5.06533 78.4328L4.72644 78.3463L4.72131 78.3673L4.71869 78.3887L5.06533 78.4328ZM6.812 79.6777L6.46619 79.6276L6.46267 79.6525V79.6777H6.812ZM10.8293 94.4395L10.5771 94.6856L10.5797 94.6885L10.5823 94.691L10.8293 94.4395ZM37.9027 0.711291L37.8642 1.06482L37.8726 1.06577L37.881 1.0663L37.9027 0.711291ZM62.0067 2.31196L61.9777 2.66644L61.9784 2.66648L62.0067 2.31196ZM89.7787 4.62404L89.7504 4.97857L89.7535 4.97886L89.757 4.97907L89.7787 4.62404ZM98.1627 5.33545L98.1302 5.68959L98.1358 5.69016L98.1417 5.69052L98.1627 5.33545ZM121.743 4.97975L121.787 5.33254L121.793 5.33182L121.798 5.3309L121.743 4.97975ZM128.904 1.95626L129.172 2.18397L129.198 2.15226L129.216 2.11534L128.904 1.95626ZM130.301 2.48981L130.011 2.29251L129.977 2.34377L129.962 2.40354L130.301 2.48981ZM128.904 5.69116L128.636 5.46343L128.61 5.49516L128.592 5.53209L128.904 5.69116ZM126.459 9.60391L126.179 9.39048L126.173 9.39838L126.168 9.4066L126.459 9.60391ZM122.092 12.4495L122.012 12.1033L122.007 12.1045L122.092 12.4495ZM120.171 12.8053V13.161H120.195L120.22 13.1574L120.171 12.8053ZM107.769 12.2717L107.726 12.6247L107.732 12.6254L107.738 12.6259L107.769 12.2717ZM96.7653 10.8489L96.81 10.4961L96.7587 10.4894L96.708 10.498L96.7653 10.8489ZM81.0453 25.2549L81.3513 25.4268L81.3524 25.4245L81.3534 25.4223L81.0453 25.2549ZM76.1547 35.0368L76.4684 35.193L76.4701 35.1895L76.4719 35.1859L76.1547 35.0368ZM70.1961 48.5162L70.4532 48.757L70.4962 48.7094L70.5199 48.6496L70.1961 48.5162ZM61.0037 58.1608L61.2458 58.4169L61.2469 58.4162L61.0037 58.1608ZM60.188 58.9601L59.8722 59.1123L60.0804 59.5594L60.4301 59.2162L60.188 58.9601ZM59.8265 58.1562L59.5075 58.0107L59.4436 58.1558L59.5072 58.3009L59.8265 58.1562ZM61.1333 55.1341L61.454 55.275L61.4551 55.2728L61.1333 55.1341ZM68.2947 36.9932L67.9705 36.8612L67.9691 36.864L67.968 36.8669L68.2947 36.9932ZM81.22 14.2281L81.0467 13.9192L81.0443 13.9206L81.0418 13.9221L81.22 14.2281ZM90.4773 10.1375L90.5716 10.48L90.5266 9.78535L90.4773 10.1375ZM88.032 9.95961L87.9747 10.3105L88.003 10.3153H88.032V9.95961ZM85.936 9.60391L85.9933 9.25304L85.9821 9.25112L85.9706 9.24995L85.936 9.60391ZM61.308 7.11398L61.2647 7.46694L61.2692 7.46751L61.2734 7.46794L61.308 7.11398ZM30.392 7.29183L30.4259 7.64586L30.4301 7.64543L30.4343 7.6449L30.392 7.29183ZM9.08267 15.8287L8.79401 15.6283L8.79199 15.6314L9.08267 15.8287ZM13.2747 30.0569L13.5217 29.8054L13.4886 29.7717L13.448 29.7481L13.2747 30.0569ZM12.7507 31.4797L12.6209 31.1495L12.6074 31.155L12.5944 31.1616L12.7507 31.4797ZM11.1787 31.4797L11.009 31.7907L11.0284 31.8016L11.0489 31.81L11.1787 31.4797ZM3.668 24.0099L3.37415 24.2023L3.38212 24.2149L3.39111 24.2268L3.668 24.0099ZM1.39733 19.9193L1.06792 20.0377L1.07251 20.051L1.07811 20.0638L1.39733 19.9193ZM3.144 7.64753L3.38292 7.90702L3.38342 7.90656L3.144 7.64753ZM10.6547 3.37908L10.7574 3.71906L10.7613 3.71785L10.7651 3.71653L10.6547 3.37908ZM20.6107 1.24485L20.6454 1.59879L20.6504 1.59828L20.6554 1.59763L20.6107 1.24485ZM52.9848 72.2705L52.6892 72.4601C53.1909 73.2708 53.7624 74.0281 54.4275 74.5115L54.6305 74.2219L54.8335 73.9324C54.2815 73.5312 53.7683 72.8692 53.2803 72.0809L52.9848 72.2705ZM54.6305 74.2219L54.4275 74.5115L54.5278 74.5844L54.7307 74.2949L54.9337 74.0053L54.8335 73.9324L54.6305 74.2219ZM54.7307 74.2949L54.5742 74.6128L54.6843 74.6691L54.8408 74.351L54.9976 74.0334L54.8872 73.9769L54.7307 74.2949ZM54.8408 74.351L54.6846 74.6694C55.2596 74.9622 55.8671 75.0536 56.4173 75.0536V74.6979V74.3422C55.9398 74.3422 55.4476 74.2625 54.9973 74.0331L54.8408 74.351ZM56.4173 74.6979V75.0536H56.6109V74.6979V74.3422H56.4173V74.6979ZM56.6109 74.6979L56.6957 75.0429L56.8837 74.9949L56.7988 74.6498L56.7139 74.3048L56.526 74.3528L56.6109 74.6979ZM56.7988 74.6498L56.8833 74.9949C57.3448 74.8775 57.7319 74.7726 57.9855 74.6865L57.8751 74.3493L57.7647 74.0117C57.5397 74.0878 57.1771 74.1871 56.7139 74.3048L56.7988 74.6498ZM57.8751 74.3493L57.9858 74.6865L58.092 74.6502L57.9813 74.313L57.8702 73.9758L57.7647 74.0117L57.8751 74.3493ZM57.9813 74.313L58.1371 74.6313L58.237 74.5805L58.0812 74.2621L57.9254 73.9438L57.8255 73.9946L57.9813 74.313ZM58.0812 74.2621L58.2374 74.5805C58.593 74.3994 59.0048 74.0562 59.3067 73.7997L59.0831 73.5265L58.8595 73.2533C58.5427 73.5223 58.1944 73.8068 57.9247 73.9441L58.0812 74.2621ZM59.0831 73.5265L59.3063 73.8001L59.3241 73.7848L59.1013 73.5112L58.878 73.2377L58.8599 73.253L59.0831 73.5265ZM59.1013 73.5112L59.335 73.7755L59.3524 73.7595L59.1184 73.4952L58.8847 73.2313L58.8672 73.2469L59.1013 73.5112ZM59.1184 73.4952L59.35 73.7616C59.4915 73.6343 59.6333 73.5041 59.7741 73.3757L59.5411 73.1107L59.3084 72.8457C59.1652 72.9759 59.0265 73.1032 58.8871 73.2288L59.1184 73.4952ZM59.5411 73.1107L59.227 72.9553C58.0368 75.4512 56.8222 77.9348 55.5824 80.4051L55.8933 80.567L56.2042 80.7288C57.4465 78.2542 58.6632 75.7664 59.8555 73.2662L59.5411 73.1107ZM55.8933 80.567L55.5838 80.4023C52.9195 85.5924 49.6762 90.3094 45.8545 94.5547L46.112 94.7952L46.3695 95.0356C50.2331 90.7441 53.5109 85.9758 56.2028 80.7317L55.8933 80.567ZM46.112 94.7952L45.8556 94.5537C42.9739 97.7226 39.6322 100.245 35.829 102.123L35.9813 102.443L36.1336 102.763C40.0158 100.846 43.4277 98.2704 46.3684 95.0367L46.112 94.7952ZM35.9813 102.443L35.8213 102.127C32.0251 104.118 28.1205 105.111 24.104 105.111V105.466V105.822C28.2386 105.822 32.2523 104.799 36.1413 102.759L35.9813 102.443ZM24.104 105.466V105.111C20.5662 105.111 17.196 104.066 13.9876 101.966L13.7987 102.265L13.6097 102.564C16.9222 104.732 20.4223 105.822 24.104 105.822V105.466ZM13.7987 102.265L13.98 101.961C10.7965 99.9927 8.39577 96.9191 6.78824 92.71L6.46267 92.8388L6.13709 92.9676C7.78999 97.2954 10.28 100.506 13.6174 102.569L13.7987 102.265ZM6.46267 92.8388L6.7887 92.7111C6.21712 91.1979 5.81584 89.5652 5.58626 87.812L5.24 87.8589L4.89374 87.9059C5.12992 89.7097 5.54375 91.3971 6.1366 92.9665L6.46267 92.8388ZM5.24 87.8589L5.58626 87.812C5.35511 86.0466 5.24 84.4025 5.24 82.8791H4.89067H4.54133C4.54133 84.4385 4.65913 86.1142 4.89374 87.9059L5.24 87.8589ZM4.89067 82.8791H5.24V81.2784H4.89067H4.54133V82.8791H4.89067ZM4.89067 81.2784H5.24C5.24 80.3447 5.29729 79.4109 5.41198 78.4769L5.06533 78.4328L4.71869 78.3887C4.60048 79.3515 4.54133 80.3151 4.54133 81.2784H4.89067ZM5.06533 78.4328L5.40422 78.5192C5.50976 78.0891 5.67178 77.8064 5.8651 77.6314C6.0529 77.4617 6.30054 77.3656 6.63733 77.3656V77.0099V76.6542C6.15899 76.6542 5.7371 76.7955 5.4009 77.0999C5.07022 77.3991 4.85378 77.8277 4.72644 78.3463L5.06533 78.4328ZM6.63733 77.0099V77.3656C6.65204 77.3656 6.66266 77.3667 6.66982 77.3678C6.67691 77.3685 6.67992 77.3696 6.67971 77.3696C6.67936 77.3696 6.6759 77.3681 6.67049 77.3649C6.66779 77.3635 6.66483 77.3614 6.66168 77.3589C6.6585 77.3564 6.65536 77.3536 6.65232 77.3503C6.64928 77.3472 6.64652 77.3439 6.64404 77.3407C6.64159 77.3375 6.6396 77.3347 6.638 77.3319C6.63475 77.3265 6.63353 77.323 6.63342 77.3226C6.63335 77.3223 6.63436 77.3255 6.63538 77.3326C6.63639 77.34 6.63733 77.3507 6.63733 77.3656H6.98667H7.336C7.336 77.1924 7.29321 76.9968 7.14635 76.8474C6.99952 76.698 6.80763 76.6542 6.63733 76.6542V77.0099ZM6.98667 77.3656H6.63733C6.63733 78.0575 6.58067 78.8112 6.46619 79.6276L6.812 79.6777L7.1578 79.7279C7.27619 78.8842 7.336 78.0966 7.336 77.3656H6.98667ZM6.812 79.6777H6.46267V81.812H6.812H7.16133V79.6777H6.812ZM6.812 81.812H6.46267C6.46267 87.4381 7.81476 91.7507 10.5771 94.6856L10.8293 94.4395L11.0816 94.1933C8.48747 91.437 7.16133 87.3311 7.16133 81.812H6.812ZM10.8293 94.4395L10.5823 94.691C13.4448 97.6056 16.9697 99.0636 21.1347 99.0636V98.7079V98.3522C17.1485 98.3522 13.8032 96.9646 11.0763 94.188L10.8293 94.4395ZM21.1347 98.7079V99.0636C25.2805 99.0636 29.3016 97.8567 33.1931 95.455L33.012 95.1509L32.8309 94.8467C29.0371 97.188 25.1399 98.3522 21.1347 98.3522V98.7079ZM33.012 95.1509L33.1931 95.455C37.0671 93.0643 40.6446 90.0181 43.9259 86.3187L43.6667 86.0804L43.4075 85.8421C40.1677 89.4941 36.6423 92.4948 32.8309 94.8467L33.012 95.1509ZM43.6667 86.0804L43.9259 86.3187C47.2089 82.618 50.3099 78.0287 53.2311 72.5558L52.924 72.3858L52.6169 72.2158C49.7161 77.6513 46.6454 82.1918 43.4075 85.8421L43.6667 86.0804ZM52.924 72.3858L53.2311 72.5558C53.2419 72.5348 53.2527 72.5145 53.2629 72.4953C53.273 72.4758 53.2824 72.458 53.2918 72.4402L52.9848 72.2705L52.6777 72.1009C52.6665 72.1215 52.6561 72.1418 52.6459 72.161C52.6358 72.1802 52.6264 72.1983 52.6169 72.2158L52.924 72.3858ZM34.584 0.533439V0.889144C35.7368 0.889144 36.8302 0.947842 37.8642 1.06482L37.9027 0.711291L37.9411 0.357764C36.8791 0.237606 35.7599 0.177734 34.584 0.177734V0.533439ZM37.9027 0.711291L37.881 1.0663C41.6077 1.30348 45.5094 1.54065 49.5854 1.77783L49.6053 1.4227L49.6252 1.06758C45.5503 0.830467 41.65 0.593368 37.9243 0.35628L37.9027 0.711291ZM49.6053 1.4227L49.5854 1.77783C53.6579 2.01478 57.7885 2.31098 61.9777 2.66644L62.0067 2.31196L62.0357 1.95748C57.8409 1.60153 53.7041 1.30489 49.6252 1.06758L49.6053 1.4227ZM62.0067 2.31196L61.9784 2.66648L89.7504 4.97857L89.7787 4.62404L89.807 4.26951L62.035 1.95744L62.0067 2.31196ZM89.7787 4.62404L89.757 4.97907C91.6144 5.09727 94.4045 5.33399 98.1302 5.68959L98.1627 5.33545L98.1951 4.98131C94.4681 4.62554 91.6693 4.38796 89.8003 4.26901L89.7787 4.62404ZM98.1627 5.33545L98.1417 5.69052C101.991 5.92809 105.899 6.04686 109.865 6.04686V5.69116V5.33545C105.913 5.33545 102.019 5.21711 98.1836 4.98039L98.1627 5.33545ZM109.865 5.69116V6.04686C114.186 6.04686 118.16 5.80907 121.787 5.33254L121.743 4.97975L121.698 4.62696C118.105 5.09898 114.161 5.33545 109.865 5.33545V5.69116ZM121.743 4.97975L121.798 5.3309C125.42 4.73612 127.921 3.71308 129.172 2.18397L128.904 1.95626L128.636 1.72854C127.558 3.04505 125.285 4.0377 121.687 4.6286L121.743 4.97975ZM128.904 1.95626L129.216 2.11534C129.309 1.92724 129.396 1.86801 129.451 1.84908C129.507 1.83015 129.611 1.82465 129.796 1.9187L129.952 1.60055L130.108 1.2824C129.827 1.13931 129.524 1.07453 129.23 1.17417C128.936 1.27381 128.732 1.511 128.592 1.79718L128.904 1.95626ZM129.952 1.60055L129.796 1.9187C129.999 2.02229 130.053 2.1043 130.064 2.13282C130.066 2.13719 130.087 2.17576 130.011 2.29251L130.301 2.48981L130.592 2.68712C130.748 2.44817 130.828 2.16067 130.713 1.86862C130.608 1.60071 130.37 1.41595 130.108 1.2824L129.952 1.60055ZM130.301 2.48981L129.962 2.40354C129.619 3.80151 129.17 4.81029 128.636 5.46343L128.904 5.69116L129.172 5.91888C129.802 5.1492 130.285 4.02376 130.64 2.57609L130.301 2.48981ZM128.904 5.69116L128.592 5.53209C128.021 6.6935 127.218 7.97937 126.179 9.39048L126.459 9.60391L126.738 9.81733C127.795 8.38281 128.622 7.06019 129.216 5.85023L128.904 5.69116ZM126.459 9.60391L126.168 9.4066C125.295 10.7392 123.925 11.645 122.012 12.1033L122.092 12.4495L122.172 12.7958C124.219 12.3054 125.759 11.3143 126.749 9.80122L126.459 9.60391ZM122.092 12.4495L122.007 12.1045C121.559 12.2187 120.932 12.3353 120.121 12.4531L120.171 12.8053L120.22 13.1574C121.04 13.0381 121.694 12.9175 122.177 12.7946L122.092 12.4495ZM120.171 12.8053V12.4495H117.551V12.8053V13.161H120.171V12.8053ZM117.551 12.8053V12.4495C114.887 12.4495 111.637 12.2725 107.801 11.9174L107.769 12.2717L107.738 12.6259C111.587 12.9822 114.858 13.161 117.551 13.161V12.8053ZM107.769 12.2717L107.813 11.9187C104.087 11.4445 100.419 10.9703 96.81 10.4961L96.7653 10.8489L96.7206 11.2017C100.331 11.676 103.999 12.1503 107.726 12.6247L107.769 12.2717ZM96.7653 10.8489L96.708 10.498C93.1365 11.1041 90.0417 12.803 87.4301 15.5829L87.6827 15.8287L87.9352 16.0746C90.4473 13.4003 93.4075 11.7793 96.8226 11.1997L96.7653 10.8489ZM87.6827 15.8287L87.4301 15.5829C84.845 18.3349 82.6142 21.5038 80.7372 25.0875L81.0453 25.2549L81.3534 25.4223C83.2028 21.8919 85.397 18.7767 87.9352 16.0746L87.6827 15.8287ZM81.0453 25.2549L80.7393 25.0831C78.8728 28.5279 77.2386 31.7961 75.8375 34.8877L76.1547 35.0368L76.4719 35.1859C77.8653 32.1119 79.4915 28.8589 81.3513 25.4268L81.0453 25.2549ZM76.1547 35.0368L75.841 34.8806C73.5172 39.7204 71.5277 44.2211 69.8726 48.3825L70.1961 48.5162L70.5199 48.6496C72.1681 44.506 74.1505 40.0206 76.4684 35.193L76.1547 35.0368ZM70.1961 48.5162L69.9393 48.2751C66.7258 51.8303 63.6667 55.0402 60.7606 57.905L61.0037 58.1608L61.2469 58.4162C64.1638 55.5403 67.2323 52.3205 70.4532 48.757L70.1961 48.5162ZM61.0037 58.1608L60.7613 57.9043L59.9459 58.7036L60.188 58.9601L60.4301 59.2162L61.2458 58.4169L61.0037 58.1608ZM60.188 58.9601L60.5038 58.8078C60.3854 58.5535 60.2666 58.2881 60.1454 58.0114L59.8265 58.1562L59.5072 58.3009C59.6298 58.5812 59.751 58.8519 59.8722 59.1123L60.188 58.9601ZM59.8265 58.1562L60.1451 58.3017C60.5859 57.3014 61.0229 56.2926 61.454 55.275L61.1333 55.1341L60.8126 54.9932C60.383 56.0074 59.9473 57.0129 59.5075 58.0107L59.8265 58.1562ZM61.1333 55.1341L61.4551 55.2728C64.0185 49.1035 66.4072 43.0522 68.6213 37.1194L68.2947 36.9932L67.968 36.8669C65.7575 42.7908 63.3719 48.8339 60.8116 54.9954L61.1333 55.1341ZM68.2947 36.9932L68.6188 37.1251C70.9468 31.1994 73.0997 25.9266 75.0777 21.3064L74.7573 21.1643L74.437 21.0222C72.4559 25.6504 70.3002 30.9301 67.9705 36.8612L68.2947 36.9932ZM74.7573 21.1643L75.0777 21.3064C76.2064 18.6636 78.3013 16.4027 81.3982 14.5341L81.22 14.2281L81.0418 13.9221C77.8507 15.8476 75.6373 18.2109 74.437 21.0222L74.7573 21.1643ZM81.22 14.2281L81.3933 14.5369C84.6347 12.651 87.6938 11.3005 90.5716 10.48L90.4773 10.1375L90.383 9.79492C87.4388 10.6344 84.3263 12.011 81.0467 13.9192L81.22 14.2281ZM90.4773 10.1375L90.5266 9.78535C89.6955 9.66441 88.8638 9.60391 88.032 9.60391V9.95961V10.3153C88.8306 10.3153 89.6292 10.3734 90.4281 10.4896L90.4773 10.1375ZM88.032 9.95961L88.0893 9.60875C87.74 9.54945 87.3906 9.49019 87.0413 9.43089C86.692 9.3716 86.3426 9.31234 85.9933 9.25304L85.936 9.60391L85.8787 9.95477C86.228 10.0141 86.5774 10.0733 86.9267 10.1326C87.276 10.1919 87.6254 10.2512 87.9747 10.3105L88.032 9.95961ZM85.936 9.60391L85.9706 9.24995L61.3426 6.76001L61.308 7.11398L61.2734 7.46794L85.9014 9.95787L85.936 9.60391ZM61.308 7.11398L61.3513 6.76101C59.474 6.52208 57.0178 6.34373 53.9853 6.22496L53.972 6.58042L53.9587 6.93587C56.9815 7.05425 59.4157 7.23157 61.2647 7.46694L61.308 7.11398ZM53.972 6.58042L53.9853 6.22496C50.9531 6.10623 47.7462 6.04686 44.3653 6.04686V6.40257V6.75827C47.7381 6.75827 50.9359 6.8175 53.9587 6.93587L53.972 6.58042ZM44.3653 6.40257V6.04686C39.809 6.04686 35.137 6.34427 30.3497 6.93876L30.392 7.29183L30.4343 7.6449C35.1953 7.05372 39.839 6.75827 44.3653 6.75827V6.40257ZM30.392 7.29183L30.3581 6.93779C25.5624 7.41419 21.2277 8.30811 17.3562 9.62216L17.4667 9.95961L17.5771 10.2971C21.3909 9.00262 25.6731 8.11799 30.4259 7.64586L30.392 7.29183ZM17.4667 9.95961L17.3562 9.62216C13.4633 10.9435 10.5953 12.9382 8.79401 15.6283L9.08267 15.8287L9.37129 16.0291C11.0633 13.5022 13.7847 11.5843 17.5771 10.2971L17.4667 9.95961ZM9.08267 15.8287L8.79199 15.6314C7.81808 17.119 7.336 18.8493 7.336 20.8086H7.68533H8.03467C8.03467 18.9738 8.48415 17.3841 9.37335 16.026L9.08267 15.8287ZM7.68533 20.8086H7.336C7.336 22.7767 7.88078 24.6216 8.96347 26.3365L9.25733 26.1442L9.55119 25.9518C8.53788 24.3468 8.03467 22.6347 8.03467 20.8086H7.68533ZM9.25733 26.1442L8.96347 26.3365C10.0409 28.043 11.4207 29.3879 13.1014 30.3657L13.2747 30.0569L13.448 29.7481C11.8681 28.8289 10.5698 27.5653 9.55119 25.9518L9.25733 26.1442ZM13.2747 30.0569L13.0277 30.3084C13.1359 30.4186 13.2056 30.5038 13.246 30.5655C13.2926 30.6367 13.2747 30.6381 13.2747 30.5905H13.624H13.9733C13.9733 30.4243 13.8971 30.2775 13.8273 30.1709C13.7513 30.0547 13.6463 29.9323 13.5217 29.8054L13.2747 30.0569ZM13.624 30.5905H13.2747C13.2747 30.7077 13.1832 30.9205 12.6209 31.1495L12.7507 31.4797L12.8804 31.81C13.4826 31.5648 13.9733 31.1847 13.9733 30.5905H13.624ZM12.7507 31.4797L12.5944 31.1616C12.236 31.3441 11.8186 31.3573 11.3084 31.1495L11.1787 31.4797L11.0489 31.81C11.7032 32.0765 12.3338 32.0897 12.9069 31.7979L12.7507 31.4797ZM11.1787 31.4797L11.3483 31.1688C10.3411 30.599 9.14485 29.6172 7.75768 28.2047L7.51067 28.4563L7.26365 28.7078C8.67115 30.1409 9.92026 31.1748 11.009 31.7907L11.1787 31.4797ZM7.51067 28.4563L7.75768 28.2047C6.37065 26.7924 5.09981 25.3219 3.94488 23.7931L3.668 24.0099L3.39111 24.2268C4.56509 25.7808 5.85601 27.2745 7.26365 28.7078L7.51067 28.4563ZM3.668 24.0099L3.96186 23.8176C2.91789 22.1641 2.17184 20.8179 1.71656 19.7749L1.39733 19.9193L1.07811 20.0638C1.55438 21.155 2.32211 22.5359 3.37415 24.2023L3.668 24.0099ZM1.39733 19.9193L1.72675 19.801C1.03655 17.8097 0.698667 16.0726 0.698667 14.5838H0.349333H0C9.07645e-07 16.1778 0.360784 17.9977 1.06792 20.0377L1.39733 19.9193ZM0.349333 14.5838H0.698667C0.698667 11.8261 1.59732 9.61156 3.38292 7.90702L3.144 7.64753L2.90508 7.38805C0.964464 9.24056 0 11.6501 0 14.5838H0.349333ZM3.144 7.64753L3.38342 7.90656C5.31815 6.05241 7.77246 4.65424 10.7574 3.71906L10.6547 3.37908L10.5519 3.0391C7.48174 4.00099 4.92895 5.44846 2.90458 7.38851L3.144 7.64753ZM10.6547 3.37908L10.7651 3.71653C13.8832 2.65823 17.1763 1.95203 20.6454 1.59879L20.6107 1.24485L20.5759 0.890908C17.0583 1.24908 13.7142 1.9657 10.5442 3.04163L10.6547 3.37908ZM20.6107 1.24485L20.6554 1.59763C24.252 1.12509 27.6721 0.889144 30.916 0.889144V0.533439V0.177734C27.639 0.177734 24.1889 0.416074 20.566 0.892068L20.6107 1.24485ZM30.916 0.533439V0.889144H34.584V0.533439V0.177734H30.916V0.533439Z" fill="black" fill-opacity="0.45"/>
</g>
</g>
<defs>
<clipPath id="clip0_53_210">
<rect width="131" height="106" fill="white"/>
</clipPath>
</defs>
</svg>
