<svg width="138" height="112" viewBox="0 0 138 112" fill="none" xmlns="http://www.w3.org/2000/svg">
<g clip-path="url(#clip0_53_260)">
<path d="M53.0288 36.2312L53.7464 36.1748H53.8016C54.096 36.1748 54.3352 36.2312 54.5192 36.3439C54.7032 36.5319 54.8136 36.6822 54.8504 36.7949C54.9608 36.9829 55.0712 37.4715 55.1816 38.2607C56.4328 45.1761 58.0704 52.054 60.0944 58.8943C61.0512 62.0889 61.9528 64.5131 62.7992 66.1668L63.0752 66.7305L64.5656 65.2647C66.884 62.9721 69.3496 60.3412 71.9624 57.3721L88.8536 37.7533C89.516 37.0016 89.8656 36.607 89.9024 36.5694C90.2704 36.3063 90.5832 36.1748 90.8408 36.1748C91.0248 36.1748 91.172 36.25 91.2824 36.4003C91.4664 36.5882 91.5768 36.7949 91.6136 37.0204C91.8344 37.5842 91.8344 38.2419 91.6136 38.9936L90.8408 42.8272C89.6264 49.5547 88.7248 56.3761 88.136 63.2916C87.8784 66.2231 87.8784 68.9104 88.136 71.3533C88.1728 72.1802 88.2832 72.6876 88.4672 72.8755C88.6512 73.0634 88.9272 73.0634 89.2952 72.8755L89.7368 72.65C90.5464 72.2741 90.9696 72.0862 91.0064 72.0862C92.0368 71.7104 92.7544 71.6352 93.1592 71.8607C93.7112 72.1614 93.8032 72.6688 93.4352 73.3829C93.1776 73.9466 92.6624 74.4916 91.8896 75.0178C90.6752 75.8446 89.2952 76.5399 87.7496 77.1037C86.94 77.3667 86.112 77.4983 85.2656 77.4983H84.3272L83.8304 77.2728C82.9472 76.8218 82.432 76.2016 82.2848 75.4124C81.9168 74.1345 81.8064 71.6352 81.9536 67.9144C82.2112 63.3292 82.892 57.3721 83.996 50.0433C84.1064 49.5547 84.1616 49.2916 84.1616 49.254L82.5608 51.1144L69.8096 65.603C66.8656 68.8352 64.2712 71.4661 62.0264 73.4956C61.8056 73.6835 61.6584 73.7963 61.5848 73.8339C61.4744 73.8714 61.272 73.9278 60.9776 74.003C60.7568 74.003 60.5728 73.9654 60.4256 73.8902C60.168 73.7023 59.8736 73.3265 59.5424 72.7627C58.2544 70.6956 57.132 68.3842 56.1752 65.8285C54.8136 62.2204 53.3048 56.8084 51.6488 49.5923L51.3176 48.2956L51.2624 48.4647C51.2256 48.6151 51.1704 48.803 51.0968 49.0285C50.6552 51.0956 49.8272 54.0459 48.6128 57.8795C46.736 63.5547 44.9328 68.1587 43.2032 71.6916C41.1424 75.8258 39.2104 78.1372 37.4072 78.6258C37.1496 78.701 36.8 78.7386 36.3584 78.7386C35.6224 78.6634 34.96 78.4943 34.3712 78.2312C33.304 77.8178 32.5312 77.16 32.0528 76.258C31.9424 76.0701 31.8688 75.7319 31.832 75.2433C31.832 74.5668 31.924 73.909 32.108 73.2701C32.6232 71.7292 33.2856 70.7708 34.0952 70.3949C34.2424 70.3198 34.408 70.2822 34.592 70.2822C34.776 70.2822 34.9416 70.3574 35.0888 70.5077C35.4936 71.0339 35.8984 71.3909 36.3032 71.5788C36.9288 71.8795 37.4992 72.0674 38.0144 72.1426L38.5664 72.199L38.8424 72.0862C39.6888 71.6728 40.9952 69.2674 42.7616 64.8701C44.9696 59.2701 46.6624 53.9896 47.84 49.0285C48.6864 45.3453 49.2384 42.2634 49.496 39.7829L49.6616 38.8808C49.956 37.9412 50.7656 37.1708 52.0904 36.5694C52.3848 36.4191 52.6976 36.3063 53.0288 36.2312Z" fill="white"/>
<mask id="mask0_53_260" style="mask-type:luminance" maskUnits="userSpaceOnUse" x="31" y="35" width="64" height="45">
<path d="M94.208 35.7051H31.28V79.3024H94.208V35.7051Z" fill="white"/>
<path d="M53.0288 36.2312L53.7464 36.1748H53.8016C54.096 36.1748 54.3352 36.2312 54.5192 36.3439C54.7032 36.5319 54.8136 36.6822 54.8504 36.7949C54.9608 36.9829 55.0712 37.4715 55.1816 38.2607C56.4328 45.1761 58.0704 52.054 60.0944 58.8943C61.0512 62.0889 61.9528 64.5131 62.7992 66.1668L63.0752 66.7305L64.5656 65.2647C66.884 62.9721 69.3496 60.3412 71.9624 57.3721L88.8536 37.7533C89.516 37.0016 89.8656 36.607 89.9024 36.5694C90.2704 36.3063 90.5832 36.1748 90.8408 36.1748C91.0248 36.1748 91.172 36.25 91.2824 36.4003C91.4664 36.5882 91.5768 36.7949 91.6136 37.0204C91.8344 37.5842 91.8344 38.2419 91.6136 38.9936L90.8408 42.8272C89.6264 49.5547 88.7248 56.3761 88.136 63.2916C87.8784 66.2231 87.8784 68.9104 88.136 71.3533C88.1728 72.1802 88.2832 72.6876 88.4672 72.8755C88.6512 73.0634 88.9272 73.0634 89.2952 72.8755L89.7368 72.65C90.5464 72.2741 90.9696 72.0862 91.0064 72.0862C92.0368 71.7104 92.7544 71.6352 93.1592 71.8607C93.7112 72.1614 93.8032 72.6688 93.4352 73.3829C93.1776 73.9466 92.6624 74.4916 91.8896 75.0178C90.6752 75.8446 89.2952 76.5399 87.7496 77.1037C86.94 77.3667 86.112 77.4983 85.2656 77.4983H84.3272L83.8304 77.2728C82.9472 76.8218 82.432 76.2016 82.2848 75.4124C81.9168 74.1345 81.8064 71.6352 81.9536 67.9144C82.2112 63.3292 82.892 57.3721 83.996 50.0433C84.1064 49.5547 84.1616 49.2916 84.1616 49.254L82.5608 51.1144L69.8096 65.603C66.8656 68.8352 64.2712 71.4661 62.0264 73.4956C61.8056 73.6835 61.6584 73.7963 61.5848 73.8339C61.4744 73.8714 61.272 73.9278 60.9776 74.003C60.7568 74.003 60.5728 73.9654 60.4256 73.8902C60.168 73.7023 59.8736 73.3265 59.5424 72.7627C58.2544 70.6956 57.132 68.3842 56.1752 65.8285C54.8136 62.2204 53.3048 56.8084 51.6488 49.5923L51.3176 48.2956L51.2624 48.4647C51.2256 48.6151 51.1704 48.803 51.0968 49.0285C50.6552 51.0956 49.8272 54.0459 48.6128 57.8795C46.736 63.5547 44.9328 68.1587 43.2032 71.6916C41.1424 75.8258 39.2104 78.1372 37.4072 78.6258C37.1496 78.701 36.8 78.7386 36.3584 78.7386C35.6224 78.6634 34.96 78.4943 34.3712 78.2312C33.304 77.8178 32.5312 77.16 32.0528 76.258C31.9424 76.0701 31.8688 75.7319 31.832 75.2433C31.832 74.5668 31.924 73.909 32.108 73.2701C32.6232 71.7292 33.2856 70.7708 34.0952 70.3949C34.2424 70.3198 34.408 70.2822 34.592 70.2822C34.776 70.2822 34.9416 70.3574 35.0888 70.5077C35.4936 71.0339 35.8984 71.3909 36.3032 71.5788C36.9288 71.8795 37.4992 72.0674 38.0144 72.1426L38.5664 72.199L38.8424 72.0862C39.6888 71.6728 40.9952 69.2674 42.7616 64.8701C44.9696 59.2701 46.6624 53.9896 47.84 49.0285C48.6864 45.3453 49.2384 42.2634 49.496 39.7829L49.6616 38.8808C49.956 37.9412 50.7656 37.1708 52.0904 36.5694C52.3848 36.4191 52.6976 36.3063 53.0288 36.2312Z" fill="black"/>
</mask>
<g mask="url(#mask0_53_260)">
<path d="M53.0288 36.231L53.0005 35.8563L52.9743 35.8584L52.9489 35.8641L53.0288 36.231ZM53.7464 36.1747V35.7988H53.7324L53.7181 35.7999L53.7464 36.1747ZM54.5192 36.3438L54.7794 36.078L54.7474 36.0453L54.7087 36.0215L54.5192 36.3438ZM54.8504 36.7948L54.5012 36.9136L54.514 36.9528L54.535 36.9882L54.8504 36.7948ZM55.1816 38.2606L54.8173 38.3136L54.8184 38.3215L54.8198 38.329L55.1816 38.2606ZM60.0944 58.8941L59.7422 59.0027L59.7426 59.0042L60.0944 58.8941ZM62.7992 66.1666L63.1282 65.9986L63.1267 65.9956L63.1252 65.9926L62.7992 66.1666ZM63.0752 66.7304L62.7462 66.8984L62.9699 67.3558L63.3306 67.001L63.0752 66.7304ZM64.5656 65.2646L64.821 65.5352L64.8217 65.5344L64.5656 65.2646ZM71.9624 57.372L72.2362 57.623L72.2388 57.62L71.9624 57.372ZM88.8536 37.7532L88.5802 37.5018L88.5772 37.505L88.8536 37.7532ZM89.9024 36.5693L89.6915 36.2614L89.665 36.2803L89.6422 36.3035L89.9024 36.5693ZM91.2824 36.4002L90.988 36.6257L91.0038 36.647L91.0222 36.6659L91.2824 36.4002ZM91.6136 37.0203L91.2507 37.0821L91.257 37.1222L91.2721 37.1599L91.6136 37.0203ZM91.6136 38.9935L91.2611 38.8856L91.2563 38.9014L91.2533 38.9175L91.6136 38.9935ZM90.8408 42.827L90.4805 42.7511L90.4794 42.7552L90.4791 42.759L90.8408 42.827ZM88.136 63.2914L88.5025 63.3249V63.3241L88.136 63.2914ZM88.136 71.3532L88.5036 71.3363L88.5033 71.3246L88.5018 71.313L88.136 71.3532ZM89.7368 72.6498L89.5844 72.3078L89.5782 72.3105L89.5723 72.3138L89.7368 72.6498ZM91.0064 72.0861V72.4619H91.0701L91.13 72.4401L91.0064 72.0861ZM93.1592 71.8606L92.9829 72.1906L92.9859 72.1921L93.1592 71.8606ZM93.4352 73.3827L93.1095 73.2076L93.1055 73.2155L93.1018 73.2237L93.4352 73.3827ZM87.7496 77.1035L87.8611 77.4617L87.8674 77.4598L87.8732 77.4576L87.7496 77.1035ZM84.3272 77.4982L84.1778 77.8417L84.2492 77.874H84.3272V77.4982ZM83.8304 77.2727L83.6659 77.6087L83.6733 77.6128L83.681 77.6162L83.8304 77.2727ZM82.2848 75.4122L82.6462 75.342L82.6429 75.3239L82.6377 75.3063L82.2848 75.4122ZM81.9536 67.9143L81.5863 67.8928L81.586 67.8958V67.8992L81.9536 67.9143ZM83.996 50.0431L83.6376 49.9586L83.6342 49.9721L83.6324 49.986L83.996 50.0431ZM84.1616 49.2539H84.5296V48.2568L83.8852 49.0058L84.1616 49.2539ZM82.5608 51.1143L82.8346 51.3657L82.8372 51.3623L82.5608 51.1143ZM69.8096 65.6029L70.079 65.8588L70.0812 65.8565L70.0834 65.8539L69.8096 65.6029ZM62.0264 73.4955L62.2619 73.7841L62.2663 73.7807L62.2704 73.777L62.0264 73.4955ZM61.5848 73.8337L61.7011 74.1904L61.7261 74.1818L61.7493 74.1697L61.5848 73.8337ZM60.9776 74.0029V74.3787H61.0229L61.067 74.3674L60.9776 74.0029ZM60.4256 73.8901L60.2118 74.196L60.2353 74.2129L60.2611 74.2261L60.4256 73.8901ZM59.5424 72.7626L59.8578 72.5694L59.8556 72.5649L59.853 72.5608L59.5424 72.7626ZM56.1752 65.8284L56.5189 65.6942L56.5185 65.6931L56.1752 65.8284ZM51.6488 49.5921L52.0072 49.5064L52.0061 49.5019L52.005 49.4974L51.6488 49.5921ZM51.3176 48.2955L51.6738 48.2008L51.3606 46.9751L50.9684 48.1767L51.3176 48.2955ZM51.2624 48.4646L50.9132 48.3458L50.9087 48.3594L50.9054 48.3733L51.2624 48.4646ZM51.0968 49.0284L50.7476 48.9096L50.7413 48.9288L50.7373 48.9483L51.0968 49.0284ZM48.6128 57.8794L48.9617 57.9996L48.9628 57.9951L48.6128 57.8794ZM43.2032 71.6914L43.5311 71.8621L43.5322 71.8594L43.2032 71.6914ZM37.4072 78.6257L37.313 78.2622L37.3093 78.2634L37.306 78.2641L37.4072 78.6257ZM36.3584 78.7384L36.3218 79.1124L36.34 79.1143H36.3584V78.7384ZM34.3712 78.231L34.5187 77.8868L34.5103 77.883L34.5017 77.8796L34.3712 78.231ZM32.0528 76.2579L32.3764 76.079L32.3725 76.0715L32.3683 76.0647L32.0528 76.2579ZM31.832 75.2431H31.464V75.2574L31.4651 75.2721L31.832 75.2431ZM32.108 73.27L31.7598 73.1486L31.7572 73.1561L31.7549 73.164L32.108 73.27ZM34.0952 70.3948L34.2475 70.7368L34.2537 70.7342L34.2598 70.7308L34.0952 70.3948ZM35.0888 70.5076L35.3781 70.2753L35.3646 70.2576L35.349 70.2418L35.0888 70.5076ZM36.3032 71.5787L36.4599 71.2386L36.4555 71.2367L36.3032 71.5787ZM38.0144 72.1424L37.9625 72.5145L37.9699 72.5157L37.9776 72.5164L38.0144 72.1424ZM38.5664 72.1988L38.5296 72.5728L38.6194 72.5818L38.7029 72.5476L38.5664 72.1988ZM38.8424 72.0861L38.9789 72.4349L38.9903 72.4303L39.001 72.4251L38.8424 72.0861ZM42.7616 64.87L43.102 65.0128L43.1031 65.0105L42.7616 64.87ZM47.84 49.0284L48.1977 49.1171L48.1984 49.114L47.84 49.0284ZM49.496 39.7827L49.1342 39.7136L49.1317 39.7282L49.1302 39.7433L49.496 39.7827ZM49.6616 38.8807L49.3113 38.7661L49.3043 38.7886L49.2998 38.8116L49.6616 38.8807ZM52.0904 36.5693L52.2398 36.9127L52.2475 36.9093L52.2549 36.9054L52.0904 36.5693ZM53.0288 36.231L53.0571 36.6058L53.7747 36.5494L53.7464 36.1747L53.7181 35.7999L53.0005 35.8563L53.0288 36.231ZM53.7464 36.1747V36.5505H53.8016V36.1747V35.7988H53.7464V36.1747ZM53.8016 36.1747V36.5505C54.0533 36.5505 54.2204 36.5991 54.33 36.6661L54.5192 36.3438L54.7087 36.0215C54.45 35.863 54.139 35.7988 53.8016 35.7988V36.1747ZM54.5192 36.3438L54.259 36.6095C54.3433 36.6957 54.404 36.7665 54.4456 36.823C54.4662 36.8509 54.4802 36.873 54.4894 36.8897C54.499 36.9066 54.5015 36.9143 54.5012 36.9136L54.8504 36.7948L55.1996 36.676C55.133 36.4723 54.9656 36.2683 54.7794 36.078L54.5192 36.3438ZM54.8504 36.7948L54.535 36.9882C54.5575 37.0267 54.6027 37.1442 54.6576 37.3867C54.7094 37.6164 54.7628 37.9242 54.8173 38.3136L55.1816 38.2606L55.5459 38.2076C55.49 37.8077 55.4329 37.4765 55.3744 37.2177C55.3189 36.9716 55.2537 36.7508 55.1658 36.6014L54.8504 36.7948ZM55.1816 38.2606L54.8198 38.329C56.0733 45.2583 57.7142 52.1493 59.7422 59.0027L60.0944 58.8941L60.4466 58.7855C58.4266 51.958 56.7923 45.0937 55.5433 38.1922L55.1816 38.2606ZM60.0944 58.8941L59.7426 59.0042C60.7016 62.2064 61.6109 64.6565 62.4731 66.3406L62.7992 66.1666L63.1252 65.9926C62.2947 64.3694 61.4008 61.9711 60.4462 58.784L60.0944 58.8941ZM62.7992 66.1666L62.4702 66.3346L62.7462 66.8984L63.0752 66.7304L63.4042 66.5624L63.1282 65.9986L62.7992 66.1666ZM63.0752 66.7304L63.3306 67.001L64.821 65.5352L64.5656 65.2646L64.3102 64.994L62.8198 66.4598L63.0752 66.7304ZM64.5656 65.2646L64.8217 65.5344C67.1471 63.2347 69.6186 60.5974 72.2362 57.623L71.9624 57.372L71.6886 57.1209C69.0806 60.0848 66.6209 62.7093 64.3095 64.9947L64.5656 65.2646ZM71.9624 57.372L72.2388 57.62L89.13 38.0012L88.8536 37.7532L88.5772 37.505L71.686 57.1239L71.9624 57.372ZM88.8536 37.7532L89.127 38.0046C89.4582 37.6288 89.711 37.3425 89.8855 37.1456C89.9727 37.0471 90.04 36.9713 90.0879 36.9179C90.1118 36.8911 90.1306 36.8704 90.1438 36.8555C90.1593 36.8384 90.164 36.8337 90.1626 36.8351L89.9024 36.5693L89.6422 36.3035C89.5962 36.3504 89.2356 36.758 88.5802 37.5018L88.8536 37.7532ZM89.9024 36.5693L90.1133 36.8772C90.4603 36.6292 90.6965 36.5505 90.8408 36.5505V36.1747V35.7988C90.4699 35.7988 90.0805 35.9832 89.6915 36.2614L89.9024 36.5693ZM90.8408 36.1747V36.5505C90.9089 36.5505 90.9471 36.57 90.988 36.6257L91.2824 36.4002L91.5768 36.1747C91.3968 35.9297 91.1407 35.7988 90.8408 35.7988V36.1747ZM91.2824 36.4002L91.0222 36.6659C91.161 36.8078 91.2283 36.9459 91.2507 37.0821L91.6136 37.0203L91.9764 36.9585C91.9253 36.6437 91.7718 36.3684 91.5426 36.1344L91.2824 36.4002ZM91.6136 37.0203L91.2721 37.1599C91.4539 37.6243 91.4649 38.191 91.2611 38.8856L91.6136 38.9935L91.9661 39.1013C92.2039 38.2925 92.2149 37.5439 91.9551 36.8807L91.6136 37.0203ZM91.6136 38.9935L91.2533 38.9175L90.4805 42.7511L90.8408 42.827L91.2011 42.9029L91.9739 39.0694L91.6136 38.9935ZM90.8408 42.827L90.4791 42.759C89.2624 49.4982 88.359 56.3317 87.7695 63.2587L88.136 63.2914L88.5025 63.3241C89.0906 56.4204 89.9903 49.6109 91.2025 42.895L90.8408 42.827ZM88.136 63.2914L87.7695 63.258C87.51 66.2095 87.5097 68.9215 87.7702 71.3934L88.136 71.3532L88.5018 71.313C88.2475 68.899 88.2468 66.2365 88.5025 63.3249L88.136 63.2914ZM88.136 71.3532L87.7684 71.3701C87.7871 71.7944 87.8254 72.1518 87.8872 72.4352C87.9454 72.7032 88.037 72.9674 88.207 73.1411L88.4672 72.8753L88.7274 72.6096C88.7134 72.5953 88.6578 72.5119 88.6056 72.2725C88.557 72.0485 88.5217 71.7388 88.5036 71.3363L88.136 71.3532ZM88.4672 72.8753L88.207 73.1411C88.564 73.5056 89.0464 73.4226 89.4597 73.2113L89.2952 72.8753L89.1307 72.5393C88.9747 72.6186 88.872 72.6404 88.8124 72.6404C88.7653 72.6404 88.7458 72.6284 88.7274 72.6096L88.4672 72.8753ZM89.2952 72.8753L89.4597 73.2113L89.9013 72.9858L89.7368 72.6498L89.5723 72.3138L89.1307 72.5393L89.2952 72.8753ZM89.7368 72.6498L89.8891 72.9918C90.2932 72.8043 90.5994 72.6645 90.808 72.5717C90.9129 72.5251 90.9906 72.4916 91.0432 72.4702C91.0697 72.4593 91.0859 72.4533 91.0943 72.4503C91.0991 72.4488 91.0969 72.4495 91.091 72.451C91.0881 72.4518 91.0804 72.454 91.0701 72.4559C91.0623 72.4574 91.0384 72.4619 91.0064 72.4619V72.0861V71.7102C90.9501 71.7102 90.9041 71.7241 90.8989 71.7253C90.8824 71.7302 90.8666 71.7354 90.8544 71.7396C90.8294 71.7482 90.8007 71.7598 90.7698 71.7722C90.7072 71.7978 90.6215 71.835 90.5147 71.8824C90.3002 71.9775 89.99 72.1195 89.5844 72.3078L89.7368 72.6498ZM91.0064 72.0861L91.13 72.4401C91.6302 72.2575 92.0364 72.1552 92.3551 72.1218C92.6786 72.088 92.8733 72.1293 92.9829 72.1906L93.1592 71.8606L93.3355 71.5306C93.0403 71.3663 92.6738 71.3325 92.2797 71.3739C91.8808 71.4156 91.413 71.5389 90.8827 71.732L91.0064 72.0861ZM93.1592 71.8606L92.9859 72.1921C93.189 72.3029 93.2597 72.4202 93.2803 72.5352C93.3049 72.6705 93.2755 72.8859 93.1095 73.2076L93.4352 73.3827L93.7609 73.5579C93.9629 73.1655 94.0715 72.7701 94.0041 72.398C93.9327 72.0056 93.6814 71.7189 93.3325 71.5291L93.1592 71.8606ZM93.4352 73.3827L93.1018 73.2237C92.8839 73.7007 92.4295 74.1983 91.6854 74.7049L91.8896 75.0176L92.0938 75.3303C92.8953 74.7846 93.4713 74.1923 93.7686 73.5417L93.4352 73.3827ZM91.8896 75.0176L91.6854 74.7049C90.4989 75.5126 89.1465 76.1947 87.6259 76.7495L87.7496 77.1035L87.8732 77.4576C89.4439 76.8848 90.8515 76.1763 92.0938 75.3303L91.8896 75.0176ZM87.7496 77.1035L87.6381 76.7454C86.8642 76.9968 86.0741 77.1223 85.2656 77.1223V77.4982V77.874C86.1499 77.874 87.0158 77.7364 87.8611 77.4617L87.7496 77.1035ZM85.2656 77.4982V77.1223H84.3272V77.4982V77.874H85.2656V77.4982ZM84.3272 77.4982L84.4766 77.1546L83.9798 76.9291L83.8304 77.2727L83.681 77.6162L84.1778 77.8417L84.3272 77.4982ZM83.8304 77.2727L83.9949 76.9366C83.1857 76.5232 82.7665 75.9873 82.6462 75.342L82.2848 75.4122L81.9234 75.4825C82.0975 76.4157 82.7087 77.1201 83.6659 77.6087L83.8304 77.2727ZM82.2848 75.4122L82.6377 75.3063C82.2896 74.0964 82.1737 71.658 82.3212 67.9293L81.9536 67.9143L81.586 67.8992C81.4391 71.6121 81.544 74.1724 81.9319 75.5182L82.2848 75.4122ZM81.9536 67.9143L82.3209 67.9357C82.5777 63.3674 83.2567 57.4235 84.3596 50.1003L83.996 50.0431L83.6324 49.986C82.5273 57.3205 81.8447 63.2907 81.5863 67.8928L81.9536 67.9143ZM83.996 50.0431L84.3544 50.1277C84.41 49.8826 84.4519 49.6925 84.4799 49.5583C84.4939 49.491 84.5053 49.4358 84.513 49.3937C84.5174 49.3692 84.5296 49.3061 84.5296 49.2539H84.1616H83.7936C83.7936 49.2204 83.7987 49.2042 83.7895 49.255C83.7837 49.2881 83.7741 49.3362 83.7605 49.4004C83.7332 49.5294 83.6924 49.715 83.6376 49.9586L83.996 50.0431ZM84.1616 49.2539L83.8852 49.0058L82.2844 50.8662L82.5608 51.1143L82.8372 51.3623L84.438 49.5019L84.1616 49.2539ZM82.5608 51.1143L82.287 50.8632L69.5358 65.3518L69.8096 65.6029L70.0834 65.8539L82.8346 51.3653L82.5608 51.1143ZM69.8096 65.6029L69.5402 65.3469C66.601 68.5739 64.0154 71.1953 61.7824 73.214L62.0264 73.4955L62.2704 73.777C64.527 71.7365 67.1302 69.0963 70.079 65.8588L69.8096 65.6029ZM62.0264 73.4955L61.7909 73.2068C61.683 73.2985 61.5962 73.3692 61.5296 73.4203C61.4965 73.4459 61.47 73.465 61.4497 73.4786C61.428 73.4936 61.4192 73.4981 61.4203 73.4977L61.5848 73.8337L61.7493 74.1697C61.8689 74.1088 62.0507 73.9641 62.2619 73.7841L62.0264 73.4955ZM61.5848 73.8337L61.4685 73.4771C61.3732 73.5098 61.1837 73.5627 60.8882 73.6383L60.9776 74.0029L61.067 74.3674C61.3603 74.2926 61.5756 74.2329 61.7011 74.1904L61.5848 73.8337ZM60.9776 74.0029V73.627C60.7954 73.627 60.6718 73.5958 60.5901 73.5541L60.4256 73.8901L60.2611 74.2261C60.4738 74.3347 60.7182 74.3787 60.9776 74.3787V74.0029ZM60.4256 73.8901L60.6394 73.5842C60.4469 73.4436 60.1846 73.1249 59.8578 72.5694L59.5424 72.7626L59.227 72.9558C59.5626 73.5278 59.889 73.9608 60.2118 74.196L60.4256 73.8901ZM59.5424 72.7626L59.853 72.5608C58.5797 70.5173 57.468 68.2288 56.5189 65.6942L56.1752 65.8284L55.8315 65.9625C56.796 68.5393 57.9291 70.8736 59.2318 72.9644L59.5424 72.7626ZM56.1752 65.8284L56.5185 65.6931C55.1661 62.1098 53.6621 56.718 52.0072 49.5064L51.6488 49.5921L51.2904 49.6778C52.9475 56.8984 54.461 62.3308 55.8318 65.9637L56.1752 65.8284ZM51.6488 49.5921L52.005 49.4974L51.6738 48.2008L51.3176 48.2955L50.9614 48.3902L51.2926 49.6868L51.6488 49.5921ZM51.3176 48.2955L50.9684 48.1767L50.9132 48.3458L51.2624 48.4646L51.6116 48.5834L51.6668 48.4142L51.3176 48.2955ZM51.2624 48.4646L50.9054 48.3733C50.8716 48.5108 50.8197 48.689 50.7476 48.9096L51.0968 49.0284L51.446 49.1471C51.5211 48.9167 51.5796 48.719 51.6194 48.5559L51.2624 48.4646ZM51.0968 49.0284L50.7373 48.9483C50.2997 50.997 49.4761 53.9334 48.2628 57.7636L48.6128 57.8794L48.9628 57.9951C50.1783 54.1582 51.0107 51.1939 51.4563 49.1084L51.0968 49.0284ZM48.6128 57.8794L48.2643 57.7591C46.3904 63.4252 44.5931 68.0116 42.8742 71.5234L43.2032 71.6914L43.5322 71.8594C45.2725 68.3055 47.0815 63.6838 48.9613 57.9996L48.6128 57.8794ZM43.2032 71.6914L42.8753 71.5208C41.8519 73.574 40.869 75.1571 39.9287 76.2816C38.9848 77.411 38.1108 78.0461 37.313 78.2622L37.4072 78.6257L37.5014 78.9891C38.5068 78.7166 39.5004 77.9518 40.4885 76.7698C41.4802 75.5829 42.4937 73.9431 43.5311 71.8621L43.2032 71.6914ZM37.4072 78.6257L37.306 78.2641C37.0959 78.3258 36.7849 78.3626 36.3584 78.3626V78.7384V79.1143C36.8151 79.1143 37.2033 79.0759 37.5084 78.9872L37.4072 78.6257ZM36.3584 78.7384L36.395 78.3645C35.6916 78.2927 35.0674 78.1318 34.5187 77.8868L34.3712 78.231L34.2237 78.5753C34.8526 78.8564 35.5532 79.0338 36.3218 79.1124L36.3584 78.7384ZM34.3712 78.231L34.5017 77.8796C33.505 77.4936 32.807 76.8908 32.3764 76.079L32.0528 76.2579L31.7292 76.4368C32.2554 77.429 33.103 78.1416 34.2407 78.5825L34.3712 78.231ZM32.0528 76.2579L32.3683 76.0647C32.3062 75.9587 32.2355 75.6998 32.1989 75.2142L31.832 75.2431L31.4651 75.2721C31.5021 75.7637 31.5786 76.1812 31.7372 76.4511L32.0528 76.2579ZM31.832 75.2431H32.2C32.2 74.6019 32.2871 73.9799 32.461 73.376L32.108 73.27L31.7549 73.164C31.5609 73.8379 31.464 74.5313 31.464 75.2431H31.832ZM32.108 73.27L32.4562 73.3914C32.9627 71.8767 33.581 71.0465 34.2475 70.7368L34.0952 70.3948L33.9429 70.0528C32.9902 70.4948 32.2837 71.5813 31.7598 73.1486L32.108 73.27ZM34.0952 70.3948L34.2598 70.7308C34.3501 70.6849 34.4583 70.6579 34.592 70.6579V70.282V69.9062C34.3577 69.9062 34.1347 69.9543 33.9306 70.0588L34.0952 70.3948ZM34.592 70.282V70.6579C34.6653 70.6579 34.7405 70.6834 34.8286 70.7733L35.0888 70.5076L35.349 70.2418C35.1427 70.031 34.8867 69.9062 34.592 69.9062V70.282ZM35.0888 70.5076L34.7994 70.7398C35.2247 71.2927 35.6731 71.699 36.1509 71.9207L36.3032 71.5787L36.4555 71.2367C36.1237 71.0826 35.7625 70.7748 35.3781 70.2753L35.0888 70.5076ZM36.3032 71.5787L36.1465 71.9188C36.7951 72.2304 37.4013 72.4326 37.9625 72.5145L38.0144 72.1424L38.0663 71.7704C37.5971 71.702 37.0624 71.5283 36.4599 71.2386L36.3032 71.5787ZM38.0144 72.1424L37.9776 72.5164L38.5296 72.5728L38.5664 72.1988L38.6032 71.8249L38.0512 71.7685L38.0144 72.1424ZM38.5664 72.1988L38.7029 72.5476L38.9789 72.4349L38.8424 72.0861L38.7059 71.7373L38.4299 71.85L38.5664 72.1988ZM38.8424 72.0861L39.001 72.4251C39.2914 72.2834 39.5747 71.9989 39.8537 71.6336C40.1389 71.26 40.4472 70.7646 40.7788 70.1543C41.4423 68.9328 42.2166 67.2167 43.102 65.0128L42.7616 64.87L42.4212 64.7271C41.5402 66.9205 40.7781 68.6058 40.1352 69.7897C39.8135 70.382 39.5261 70.8402 39.2733 71.1713C39.0139 71.511 38.8166 71.682 38.6838 71.7471L38.8424 72.0861ZM42.7616 64.87L43.1031 65.0105C45.3166 59.3966 47.0153 54.0984 48.1977 49.1171L47.84 49.0284L47.4823 48.9397C46.3095 53.8804 44.6226 59.1433 42.4201 64.7294L42.7616 64.87ZM47.84 49.0284L48.1984 49.114C49.0467 45.4226 49.602 42.3241 49.8618 39.8222L49.496 39.7827L49.1302 39.7433C48.8748 42.2024 48.3261 45.2677 47.4816 48.9427L47.84 49.0284ZM49.496 39.7827L49.8577 39.8519L50.0233 38.9499L49.6616 38.8807L49.2998 38.8116L49.1342 39.7136L49.496 39.7827ZM49.6616 38.8807L50.0119 38.9953C50.2614 38.1997 50.9625 37.4925 52.2398 36.9127L52.0904 36.5693L51.941 36.2259C50.5687 36.8488 49.6506 37.6825 49.3113 38.7661L49.6616 38.8807ZM52.0904 36.5693L52.2549 36.9054C52.5217 36.7693 52.8058 36.6666 53.1086 36.5979L53.0288 36.231L52.9489 35.8641C52.5894 35.9458 52.2479 36.0686 51.9259 36.2331L52.0904 36.5693Z" fill="black" fill-opacity="0.45"/>
</g>
<path d="M55.8161 76.3612C56.3372 77.2057 56.9087 77.9555 57.5497 78.423L57.6553 78.5001L57.7713 78.5594C58.3115 78.8353 58.8907 78.9259 59.432 78.9259H59.6359L59.8339 78.8752C60.3208 78.7511 60.7156 78.6433 60.9677 78.5576L61.0796 78.5192L61.1848 78.4655C61.5138 78.2975 61.9142 77.9656 62.2403 77.6883L62.2594 77.6721L62.2774 77.6552C62.4254 77.5218 62.5733 77.3857 62.7227 77.2489C61.4682 79.8884 60.1876 82.5148 58.88 85.1272C56.0586 90.6397 52.624 95.6507 48.576 100.161C45.5095 103.543 41.952 106.237 37.904 108.241C33.856 110.371 29.6854 111.436 25.392 111.436C21.5894 111.436 17.9707 110.308 14.536 108.053C11.1014 105.924 8.52539 102.604 6.80804 98.0937C6.1947 96.4652 5.76539 94.7111 5.52004 92.8319C5.2747 90.9527 5.15204 89.1987 5.15204 87.5702V85.8789C5.15204 84.8766 5.21339 83.8746 5.33604 82.8722C5.58139 81.8698 6.13339 81.3688 6.99204 81.3688C7.23739 81.3688 7.36004 81.494 7.36004 81.7447C7.36004 82.4964 7.2987 83.3108 7.17604 84.1876V86.4427C7.17604 92.3309 8.5867 96.7782 11.408 99.785C14.352 102.792 17.9707 104.295 22.264 104.295C26.5574 104.295 30.728 103.042 34.776 100.537C38.824 98.0309 42.5655 94.8363 46 90.9527C49.4346 87.0692 52.6855 82.2457 55.752 76.4829C55.7738 76.4424 55.7944 76.4018 55.8161 76.3612ZM36.432 0.563477C37.6586 0.563477 38.824 0.626118 39.928 0.751396C43.8535 1.00195 47.9626 1.25251 52.256 1.50307C56.5495 1.75363 60.904 2.06683 65.32 2.44267L94.576 4.88562C96.5386 5.01089 99.4826 5.26146 103.408 5.6373C107.456 5.88787 111.566 6.01314 115.736 6.01314C120.275 6.01314 124.446 5.76257 128.248 5.26146C132.051 4.63505 134.566 3.57019 135.792 2.06683C136.038 1.56571 136.406 1.44043 136.896 1.69099C137.387 1.94155 137.51 2.25475 137.264 2.63059C136.896 4.13395 136.406 5.26146 135.792 6.01314C135.179 7.26593 134.32 8.64401 133.216 10.1474C132.235 11.6507 130.702 12.653 128.616 13.1541C128.126 13.2793 127.451 13.4047 126.592 13.5299H123.832C121.011 13.5299 117.576 13.342 113.528 12.9662C109.603 12.4651 105.739 11.9639 101.936 11.4628C98.2561 12.0892 95.0666 13.8431 92.368 16.7246C89.6695 19.606 87.3386 22.9259 85.376 26.6843C83.4135 30.3174 81.696 33.7626 80.224 37.0199C77.7794 42.1271 75.6873 46.8747 73.9471 51.2623C70.5582 55.0229 67.3304 58.4197 64.2635 61.4528L63.4042 62.2973C63.278 62.0252 63.1514 61.7422 63.0234 61.4479C63.487 60.3921 63.9467 59.3281 64.4 58.2548C67.0986 51.7403 69.6135 45.3511 71.944 39.087C74.3975 32.823 76.6666 27.248 78.752 22.3621C79.9786 19.4807 82.248 17.0377 85.56 15.0333C88.9946 13.0288 92.2455 11.5881 95.312 10.7111C94.4535 10.5859 93.5946 10.5232 92.736 10.5232C92 10.3979 91.264 10.2726 90.528 10.1474L64.584 7.5165C62.6215 7.26593 60.0455 7.07801 56.856 6.95274C53.6666 6.82747 50.2935 6.76482 46.736 6.76482C41.952 6.76482 37.0455 7.07801 32.016 7.70442C26.9867 8.20552 22.448 9.14512 18.4 10.5232C14.352 11.9013 11.408 13.9684 9.56804 16.7246C8.5867 18.2279 8.09604 19.9818 8.09604 21.9863C8.09604 23.9908 8.64804 25.87 9.75204 27.6239C10.856 29.3778 12.2667 30.7559 13.984 31.7581C14.2294 32.0087 14.352 32.1966 14.352 32.3219C14.352 32.6977 14.0454 33.0109 13.432 33.2615C12.9414 33.512 12.3894 33.512 11.776 33.2615C10.672 32.6351 9.38404 31.5702 7.91204 30.0668C6.44004 28.5635 5.0907 26.9975 3.86404 25.3688C2.76004 23.6149 1.96271 22.1742 1.47204 21.0467C0.736042 18.9169 0.368042 17.0377 0.368042 15.4091C0.368042 12.4024 1.34938 9.95945 3.31204 8.08026C5.39739 6.07579 8.0347 4.57244 11.224 3.57019C14.536 2.44267 18.032 1.691 21.712 1.31515C25.5147 0.814041 29.1334 0.563477 32.568 0.563477H36.432Z" fill="white"/>
<mask id="mask1_53_260" style="mask-type:luminance" maskUnits="userSpaceOnUse" x="0" y="0" width="138" height="112">
<path d="M138 0.1875H0V111.812H138V0.1875Z" fill="white"/>
<path d="M55.8162 76.3612C56.3373 77.2057 56.9088 77.9555 57.5498 78.423L57.6555 78.5001L57.7714 78.5594C58.3116 78.8353 58.8908 78.9259 59.4322 78.9259H59.636L59.834 78.8752C60.3209 78.7511 60.7158 78.6433 60.9678 78.5576L61.0797 78.5192L61.185 78.4655C61.5139 78.2975 61.9143 77.9656 62.2404 77.6883L62.2595 77.6721L62.2775 77.6552C62.4255 77.5218 62.5734 77.3857 62.7228 77.2489C61.4683 79.8884 60.1877 82.5148 58.8802 85.1272C56.0587 90.6397 52.6242 95.6507 48.5762 100.161C45.5096 103.543 41.9522 106.237 37.9042 108.241C33.8562 110.371 29.6855 111.436 25.3922 111.436C21.5895 111.436 17.9708 110.308 14.5362 108.053C11.1015 105.924 8.52551 102.604 6.80816 98.0937C6.19482 96.4652 5.76551 94.7111 5.52016 92.8319C5.27482 90.9527 5.15216 89.1987 5.15216 87.5702V85.8789C5.15216 84.8766 5.21351 83.8746 5.33616 82.8722C5.58151 81.8698 6.13351 81.3688 6.99216 81.3688C7.23751 81.3688 7.36016 81.494 7.36016 81.7447C7.36016 82.4964 7.29882 83.3108 7.17616 84.1876V86.4427C7.17616 92.3309 8.58682 96.7782 11.4082 99.785C14.3522 102.792 17.9708 104.295 22.2642 104.295C26.5575 104.295 30.7282 103.042 34.7762 100.537C38.8242 98.0309 42.5656 94.8363 46.0002 90.9527C49.4347 87.0692 52.6856 82.2457 55.7522 76.4829C55.7739 76.4424 55.7945 76.4018 55.8162 76.3612ZM36.4322 0.563477C37.6587 0.563477 38.8242 0.626118 39.9282 0.751396C43.8536 1.00195 47.9627 1.25251 52.2562 1.50307C56.5496 1.75363 60.9042 2.06683 65.3202 2.44267L94.5762 4.88562C96.5387 5.01089 99.4827 5.26146 103.408 5.6373C107.456 5.88787 111.566 6.01314 115.736 6.01314C120.275 6.01314 124.446 5.76257 128.248 5.26146C132.051 4.63505 134.566 3.57019 135.792 2.06683C136.038 1.56571 136.406 1.44043 136.896 1.69099C137.387 1.94155 137.51 2.25475 137.264 2.63059C136.896 4.13395 136.406 5.26146 135.792 6.01314C135.179 7.26593 134.32 8.64401 133.216 10.1474C132.235 11.6507 130.702 12.653 128.616 13.1541C128.126 13.2793 127.451 13.4047 126.592 13.5299H123.832C121.011 13.5299 117.576 13.342 113.528 12.9662C109.603 12.4651 105.739 11.9639 101.936 11.4628C98.2562 12.0892 95.0667 13.8431 92.3682 16.7246C89.6696 19.606 87.3387 22.9259 85.3762 26.6843C83.4136 30.3174 81.6962 33.7626 80.2242 37.0199C77.7795 42.1271 75.6875 46.8747 73.9472 51.2623C70.5583 55.0229 67.3306 58.4197 64.2636 61.4528L63.4044 62.2973C63.2781 62.0252 63.1515 61.7422 63.0235 61.4479C63.4872 60.3921 63.9468 59.3281 64.4002 58.2548C67.0987 51.7403 69.6136 45.3511 71.9442 39.087C74.3976 32.823 76.6667 27.248 78.7522 22.3621C79.9787 19.4807 82.2482 17.0377 85.5602 15.0333C88.9947 13.0288 92.2456 11.5881 95.3122 10.7111C94.4536 10.5859 93.5947 10.5232 92.7362 10.5232C92.0002 10.3979 91.2642 10.2726 90.5282 10.1474L64.5842 7.5165C62.6216 7.26593 60.0456 7.07801 56.8562 6.95274C53.6667 6.82747 50.2936 6.76482 46.7362 6.76482C41.9522 6.76482 37.0456 7.07801 32.0162 7.70442C26.9868 8.20552 22.4482 9.14512 18.4002 10.5232C14.3522 11.9013 11.4082 13.9684 9.56816 16.7246C8.58682 18.2279 8.09616 19.9818 8.09616 21.9863C8.09616 23.9908 8.64816 25.87 9.75216 27.6239C10.8562 29.3778 12.2668 30.7559 13.9842 31.7581C14.2295 32.0087 14.3522 32.1966 14.3522 32.3219C14.3522 32.6977 14.0455 33.0109 13.4322 33.2615C12.9415 33.512 12.3895 33.512 11.7762 33.2615C10.6722 32.6351 9.38416 31.5702 7.91216 30.0668C6.44016 28.5635 5.09082 26.9975 3.86416 25.3688C2.76016 23.6149 1.96283 22.1742 1.47216 21.0467C0.736164 18.9169 0.368164 17.0377 0.368164 15.4091C0.368164 12.4024 1.3495 9.95945 3.31216 8.08026C5.39751 6.07579 8.03482 4.57244 11.2242 3.57019C14.5362 2.44267 18.0322 1.691 21.7122 1.31515C25.5148 0.814041 29.1335 0.563477 32.5682 0.563477H36.4322Z" fill="black"/>
</mask>
<g mask="url(#mask1_53_260)">
<path d="M55.816 76.361L56.1274 76.1607L55.7921 75.6176L55.4926 76.1818L55.816 76.361ZM57.6553 78.4999L57.4415 78.8059L57.4647 78.8228L57.4904 78.8359L57.6553 78.4999ZM57.7712 78.5593L57.6063 78.8953L57.6067 78.8957L57.7712 78.5593ZM59.6359 78.9258V79.3016H59.6811L59.7253 79.2903L59.6359 78.9258ZM60.9677 78.5574L61.0839 78.9137H61.0843L60.9677 78.5574ZM61.0795 78.5191L61.1962 78.8754L61.2205 78.8671L61.2437 78.8555L61.0795 78.5191ZM61.1848 78.4653L61.3489 78.8017H61.3493L61.1848 78.4653ZM62.2402 77.6881L62.0051 77.3991L62.0047 77.3995L62.2402 77.6881ZM62.2593 77.672L62.4941 77.961L62.5 77.9561L62.5055 77.9512L62.2593 77.672ZM62.2774 77.655L62.0338 77.3735L62.0312 77.3762L62.2774 77.655ZM62.7227 77.2488L63.0538 77.413L62.4776 76.9688L62.7227 77.2488ZM58.88 85.1271L59.206 85.3011L59.2075 85.2981L58.88 85.1271ZM48.576 100.161L48.8461 100.416L48.8472 100.415L48.576 100.161ZM37.904 108.241L37.7436 107.903L37.7395 107.905L37.7355 107.907L37.904 108.241ZM14.536 108.053L14.735 107.737L14.731 107.735L14.727 107.732L14.536 108.053ZM6.808 98.0935L6.46451 98.2285L6.46502 98.2296L6.808 98.0935ZM5.336 82.8721L4.979 82.7807L4.97359 82.8029L4.97083 82.8255L5.336 82.8721ZM7.176 84.1875L6.81172 84.1345L6.808 84.1608V84.1875H7.176ZM11.408 99.7848L11.1423 100.045L11.145 100.048L11.1478 100.051L11.408 99.7848ZM39.928 0.751258L39.8875 1.1248L39.8963 1.1258L39.9052 1.12636L39.928 0.751258ZM65.32 2.44253L65.2895 2.81708L65.2902 2.81712L65.32 2.44253ZM94.576 4.88549L94.5462 5.26009L94.5495 5.26039L94.5532 5.26061L94.576 4.88549ZM103.408 5.63716L103.374 6.01135L103.38 6.01195L103.386 6.01233L103.408 5.63716ZM128.248 5.26133L128.295 5.63408L128.301 5.63333L128.307 5.63235L128.248 5.26133ZM135.792 2.06669L136.075 2.3073L136.102 2.27379L136.121 2.23478L135.792 2.06669ZM137.264 2.63045L136.958 2.42198L136.922 2.47614L136.907 2.5393L137.264 2.63045ZM135.792 6.013L135.509 5.77239L135.482 5.80592L135.463 5.84493L135.792 6.013ZM133.216 10.1472L132.922 9.92173L132.915 9.93007L132.91 9.93875L133.216 10.1472ZM128.616 13.1539L128.532 12.7881L128.527 12.7893L128.616 13.1539ZM126.592 13.5298V13.9056H126.618L126.644 13.9018L126.592 13.5298ZM113.528 12.966L113.482 13.339L113.489 13.3398L113.495 13.3403L113.528 12.966ZM101.936 11.4627L101.983 11.0899L101.929 11.0828L101.876 11.0919L101.936 11.4627ZM85.376 26.6841L85.6984 26.8657L85.6995 26.8634L85.7006 26.861L85.376 26.6841ZM80.224 37.0197L80.5545 37.1848L80.5563 37.181L80.5581 37.1772L80.224 37.0197ZM73.947 51.2621L74.2179 51.5166L74.2631 51.4662L74.2882 51.4031L73.947 51.2621ZM64.2635 61.4526L64.5185 61.7232L64.5196 61.7225L64.2635 61.4526ZM63.4042 62.2971L63.0715 62.458L63.2908 62.9304L63.6592 62.5677L63.4042 62.2971ZM63.0233 61.4477L62.6873 61.294L62.62 61.4474L62.687 61.6007L63.0233 61.4477ZM64.4 58.2546L64.7378 58.4034L64.7389 58.4012L64.4 58.2546ZM71.944 39.0868L71.6025 38.9474L71.601 38.9504L71.5999 38.9534L71.944 39.0868ZM85.56 15.0331L85.3775 14.7068L85.3749 14.7083L85.3723 14.7098L85.56 15.0331ZM95.312 10.711L95.4113 11.0729L95.3639 10.3389L95.312 10.711ZM92.736 10.5231L92.6756 10.8938L92.7055 10.8989H92.736V10.5231ZM90.528 10.1472L90.5883 9.7765L90.5766 9.77447L90.5644 9.77323L90.528 10.1472ZM64.584 7.51636L64.5384 7.8893L64.5431 7.88991L64.5476 7.89036L64.584 7.51636ZM32.016 7.70428L32.0517 8.07835L32.0561 8.0779L32.0606 8.07734L32.016 7.70428ZM9.568 16.7244L9.26392 16.5127L9.26179 16.5159L9.568 16.7244ZM13.984 31.758L14.2442 31.4922L14.2094 31.4566L14.1666 31.4317L13.984 31.758ZM13.432 33.2613L13.2953 32.9124L13.2811 32.9182L13.2674 32.9252L13.432 33.2613ZM11.776 33.2613L11.5973 33.5899L11.6177 33.6014L11.6393 33.6103L11.776 33.2613ZM3.864 25.3687L3.55445 25.572L3.56284 25.5853L3.57232 25.5979L3.864 25.3687ZM1.472 21.0466L1.12498 21.1716L1.12982 21.1857L1.13572 21.1992L1.472 21.0466ZM3.312 8.08012L3.56369 8.35429L3.56421 8.3538L3.312 8.08012ZM11.224 3.57005L11.3322 3.92928L11.3363 3.928L11.3404 3.92661L11.224 3.57005ZM21.712 1.31502L21.7486 1.68899L21.7539 1.68845L21.7591 1.68777L21.712 1.31502ZM55.816 76.361L55.5047 76.5613C56.0331 77.4179 56.6352 78.218 57.3359 78.7288L57.5497 78.4229L57.7635 78.1169C57.182 77.693 56.6415 76.9936 56.1274 76.1607L55.816 76.361ZM57.5497 78.4229L57.3359 78.7288L57.4415 78.8059L57.6553 78.4999L57.8691 78.194L57.7635 78.1169L57.5497 78.4229ZM57.6553 78.4999L57.4904 78.8359L57.6063 78.8953L57.7712 78.5593L57.9364 78.2237L57.8202 78.1639L57.6553 78.4999ZM57.7712 78.5593L57.6067 78.8957C58.2124 79.205 58.8524 79.3016 59.432 79.3016V78.9258V78.5499C58.9289 78.5499 58.4104 78.4657 57.9361 78.2233L57.7712 78.5593ZM59.432 78.9258V79.3016H59.6359V78.9258V78.5499H59.432V78.9258ZM59.6359 78.9258L59.7253 79.2903L59.9233 79.2396L59.8338 78.875L59.7444 78.5105L59.5464 78.5612L59.6359 78.9258ZM59.8338 78.875L59.9229 79.2396C60.409 79.1156 60.8168 79.0047 61.0839 78.9137L60.9677 78.5574L60.8514 78.2008C60.6144 78.2812 60.2324 78.386 59.7444 78.5105L59.8338 78.875ZM60.9677 78.5574L61.0843 78.9137L61.1962 78.8754L61.0795 78.5191L60.9625 78.1628L60.8514 78.2008L60.9677 78.5574ZM61.0795 78.5191L61.2437 78.8555L61.3489 78.8017L61.1848 78.4653L61.0207 78.129L60.9154 78.1827L61.0795 78.5191ZM61.1848 78.4653L61.3493 78.8017C61.7239 78.6104 62.1578 78.2477 62.4757 77.9768L62.2402 77.6881L62.0047 77.3995C61.6709 77.6836 61.304 77.9843 61.0199 78.1293L61.1848 78.4653ZM62.2402 77.6881L62.4754 77.9771L62.4941 77.961L62.2593 77.672L62.0242 77.3829L62.0051 77.3991L62.2402 77.6881ZM62.2593 77.672L62.5055 77.9512L62.5239 77.9343L62.2774 77.655L62.0312 77.3762L62.0128 77.3927L62.2593 77.672ZM62.2774 77.655L62.5214 77.9365C62.6704 77.802 62.8198 77.6644 62.9681 77.5288L62.7227 77.2488L62.4776 76.9688C62.3267 77.1063 62.1806 77.2409 62.0338 77.3735L62.2774 77.655ZM62.7227 77.2488L62.3918 77.0845C61.138 79.7218 59.8585 82.3459 58.5525 84.9561L58.88 85.1271L59.2075 85.2981C60.5161 82.6834 61.7979 80.0548 63.0538 77.413L62.7227 77.2488ZM58.88 85.1271L58.5539 84.9531C55.7472 90.4369 52.3307 95.4209 48.3048 99.9066L48.576 100.161L48.8472 100.415C52.9173 95.8802 56.3702 90.8421 59.206 85.3011L58.88 85.1271ZM48.576 100.161L48.3059 99.9055C45.2703 103.254 41.75 105.919 37.7436 107.903L37.904 108.241L38.0644 108.579C42.154 106.554 45.7483 103.833 48.8461 100.416L48.576 100.161ZM37.904 108.241L37.7355 107.907C33.7364 110.011 29.6232 111.06 25.392 111.06V111.436V111.812C29.7475 111.812 33.9757 110.731 38.0725 108.575L37.904 108.241ZM25.392 111.436V111.06C21.6652 111.06 18.1149 109.956 14.735 107.737L14.536 108.053L14.337 108.369C17.8264 110.66 21.5135 111.812 25.392 111.812V111.436ZM14.536 108.053L14.727 107.732C11.3734 105.652 8.8444 102.405 7.15098 97.9575L6.808 98.0935L6.46502 98.2296C8.20625 102.802 10.8293 106.194 14.345 108.375L14.536 108.053ZM6.808 98.0935L7.15145 97.9586C6.54933 96.3598 6.12661 94.6347 5.88476 92.7822L5.52 92.8318L5.15524 92.8814C5.40404 94.7873 5.83998 96.5703 6.46451 98.2285L6.808 98.0935ZM5.52 92.8318L5.88476 92.7822C5.64126 90.9169 5.52 89.1798 5.52 87.57H5.152H4.784C4.784 89.2177 4.90809 90.9883 5.15524 92.8814L5.52 92.8318ZM5.152 87.57H5.52V85.8788H5.152H4.784V87.57H5.152ZM5.152 85.8788H5.52C5.52 84.8922 5.58035 83.9056 5.70117 82.9187L5.336 82.8721L4.97083 82.8255C4.8463 83.8429 4.784 84.861 4.784 85.8788H5.152ZM5.336 82.8721L5.693 82.9634C5.80417 82.509 5.97485 82.2102 6.1785 82.0253C6.37634 81.846 6.63721 81.7445 6.992 81.7445V81.3687V80.9929C6.4881 80.9929 6.04366 81.1421 5.6895 81.4638C5.34115 81.7799 5.11314 82.2328 4.979 82.7807L5.336 82.8721ZM6.992 81.3687V81.7445C7.00749 81.7445 7.01868 81.7457 7.02622 81.7468C7.03369 81.7475 7.03686 81.7487 7.03664 81.7487C7.03627 81.7487 7.03263 81.7472 7.02692 81.7438C7.02409 81.7423 7.02096 81.74 7.01765 81.7374C7.0143 81.7348 7.01099 81.7318 7.00779 81.7284C7.00459 81.725 7.00168 81.7216 6.99906 81.7182C6.99649 81.7148 6.99439 81.7118 6.9927 81.7088C6.98928 81.7032 6.98799 81.6994 6.98788 81.6991C6.9878 81.6987 6.98887 81.7021 6.98994 81.7096C6.99101 81.7175 6.992 81.7288 6.992 81.7445H7.36H7.728C7.728 81.5615 7.68292 81.3548 7.52821 81.1969C7.37354 81.0391 7.1714 80.9929 6.992 80.9929V81.3687ZM7.36 81.7445H6.992C6.992 82.4755 6.93231 83.2719 6.81172 84.1345L7.176 84.1875L7.54028 84.2405C7.665 83.349 7.728 82.5169 7.728 81.7445H7.36ZM7.176 84.1875H6.808V86.4425H7.176H7.544V84.1875H7.176ZM7.176 86.4425H6.808C6.808 92.3872 8.23234 96.9438 11.1423 100.045L11.408 99.7848L11.6737 99.5247C8.941 96.6124 7.544 92.274 7.544 86.4425H7.176ZM11.408 99.7848L11.1478 100.051C14.1632 103.13 17.8765 104.671 22.264 104.671V104.295V103.919C18.0649 103.919 14.5408 102.453 11.6682 99.5191L11.408 99.7848ZM22.264 104.295V104.671C26.6313 104.671 30.8673 103.395 34.9667 100.858L34.776 100.536L34.5853 100.215C30.5887 102.689 26.4833 103.919 22.264 103.919V104.295ZM34.776 100.536L34.9667 100.858C39.0477 98.3318 42.8164 95.1131 46.2731 91.2044L46 90.9526L45.7269 90.7008C42.3141 94.5595 38.6003 97.7301 34.5853 100.215L34.776 100.536ZM46 90.9526L46.2731 91.2044C49.7315 87.2942 52.9983 82.4451 56.0755 76.6624L55.752 76.4828L55.4285 76.3031C52.3727 82.0463 49.1379 86.8439 45.7269 90.7008L46 90.9526ZM55.752 76.4828L56.0755 76.6624C56.0869 76.6403 56.0983 76.6189 56.109 76.5986C56.1196 76.5779 56.1296 76.5591 56.1395 76.5403L55.816 76.361L55.4926 76.1818C55.4808 76.2036 55.4697 76.225 55.4591 76.2453C55.4484 76.2656 55.4385 76.2847 55.4285 76.3031L55.752 76.4828ZM36.432 0.563339V0.939178C37.6464 0.939178 38.7982 1.0012 39.8875 1.1248L39.928 0.751258L39.9685 0.37772C38.8498 0.250761 37.6707 0.1875 36.432 0.1875V0.563339ZM39.928 0.751258L39.9052 1.12636C43.831 1.37697 47.9412 1.62756 52.235 1.87816L52.256 1.50294L52.277 1.12771C47.9843 0.877179 43.8755 0.62666 39.9508 0.376152L39.928 0.751258ZM52.256 1.50294L52.235 1.87816C56.5252 2.12853 60.8764 2.4415 65.2895 2.81708L65.32 2.44253L65.3505 2.06799C60.9316 1.69189 56.5737 1.37846 52.277 1.12771L52.256 1.50294ZM65.32 2.44253L65.2902 2.81712L94.5462 5.26009L94.576 4.88549L94.6058 4.51089L65.3498 2.06795L65.32 2.44253ZM94.576 4.88549L94.5532 5.26061C96.5098 5.3855 99.4491 5.63562 103.374 6.01135L103.408 5.63716L103.442 5.26298C99.516 4.88706 96.5676 4.63604 94.5988 4.51036L94.576 4.88549ZM103.408 5.63716L103.386 6.01233C107.441 6.26335 111.558 6.38884 115.736 6.38884V6.013V5.63716C111.572 5.63716 107.471 5.51212 103.43 5.262L103.408 5.63716ZM115.736 6.013V6.38884C120.288 6.38884 124.474 6.13759 128.295 5.63408L128.248 5.26133L128.201 4.88857C124.416 5.38731 120.262 5.63716 115.736 5.63716V6.013ZM128.248 5.26133L128.307 5.63235C132.122 5.00391 134.756 3.92296 136.075 2.3073L135.792 2.06669L135.509 1.82609C134.374 3.21712 131.98 4.26595 128.189 4.8903L128.248 5.26133ZM135.792 2.06669L136.121 2.23478C136.219 2.03603 136.31 1.97345 136.368 1.95345C136.427 1.93344 136.537 1.92764 136.731 2.02701L136.896 1.69086L137.06 1.3547C136.765 1.20351 136.445 1.13506 136.136 1.24034C135.826 1.34562 135.611 1.59623 135.463 1.89861L135.792 2.06669ZM136.896 1.69086L136.731 2.02701C136.946 2.13646 137.002 2.22312 137.014 2.25325C137.016 2.25786 137.038 2.29862 136.958 2.42198L137.264 2.63045L137.57 2.83893C137.735 2.58645 137.819 2.28268 137.697 1.97409C137.587 1.69102 137.337 1.49581 137.06 1.3547L136.896 1.69086ZM137.264 2.63045L136.907 2.5393C136.545 4.0164 136.072 5.08228 135.509 5.77239L135.792 6.013L136.075 6.25361C136.738 5.44037 137.247 4.25122 137.621 2.72161L137.264 2.63045ZM135.792 6.013L135.463 5.84493C134.862 7.07208 134.016 8.43074 132.922 9.92173L133.216 10.1472L133.51 10.3727C134.624 8.85701 135.495 7.45953 136.121 6.18108L135.792 6.013ZM133.216 10.1472L132.91 9.93875C131.991 11.3468 130.547 12.3039 128.532 12.7881L128.616 13.1539L128.7 13.5198C130.856 13.0017 132.479 11.9544 133.522 10.3557L133.216 10.1472ZM128.616 13.1539L128.527 12.7893C128.054 12.91 127.393 13.0332 126.54 13.1577L126.592 13.5298L126.644 13.9018C127.508 13.7758 128.197 13.6484 128.705 13.5185L128.616 13.1539ZM126.592 13.5298V13.1539H123.832V13.5298V13.9056H126.592V13.5298ZM123.832 13.5298V13.1539C121.026 13.1539 117.602 12.9669 113.561 12.5917L113.528 12.966L113.495 13.3403C117.549 13.7168 120.996 13.9056 123.832 13.9056V13.5298ZM113.528 12.966L113.574 12.5931C109.649 12.092 105.785 11.591 101.983 11.0899L101.936 11.4627L101.889 11.8354C105.692 12.3366 109.557 12.8378 113.482 13.339L113.528 12.966ZM101.936 11.4627L101.876 11.0919C98.1132 11.7323 94.8531 13.5275 92.1019 16.4646L92.368 16.7244L92.6341 16.9842C95.2803 14.1585 98.3988 12.4458 101.996 11.8334L101.936 11.4627ZM92.368 16.7244L92.1019 16.4646C89.3787 19.3725 87.0287 22.7207 85.0514 26.5073L85.376 26.6841L85.7006 26.861C87.6488 23.1308 89.9602 19.8392 92.6341 16.9842L92.368 16.7244ZM85.376 26.6841L85.0536 26.5026C83.0874 30.1424 81.3659 33.5956 79.8898 36.8622L80.224 37.0197L80.5581 37.1772C82.0261 33.9293 83.7391 30.4921 85.6984 26.8657L85.376 26.6841ZM80.224 37.0197L79.8935 36.8546C77.4456 41.9684 75.3498 46.7239 73.6062 51.1208L73.947 51.2621L74.2882 51.4031C76.0244 47.0249 78.1128 42.2856 80.5545 37.1848L80.224 37.0197ZM73.947 51.2621L73.6765 51.0073C70.2913 54.7638 67.0687 58.1554 64.0073 61.1824L64.2635 61.4526L64.5196 61.7225C67.5924 58.6838 70.8249 55.2817 74.2179 51.5166L73.947 51.2621ZM64.2635 61.4526L64.0081 61.1816L63.1492 62.0262L63.4042 62.2971L63.6592 62.5677L64.5185 61.7232L64.2635 61.4526ZM63.4042 62.2971L63.7369 62.1363C63.6121 61.8676 63.487 61.5872 63.3593 61.2948L63.0233 61.4477L62.687 61.6007C62.8161 61.8969 62.9438 62.1829 63.0715 62.458L63.4042 62.2971ZM63.0233 61.4477L63.3589 61.6015C63.8233 60.5446 64.2837 59.4787 64.7378 58.4034L64.4 58.2546L64.0622 58.1058C63.6095 59.1773 63.1506 60.2398 62.6873 61.294L63.0233 61.4477ZM64.4 58.2546L64.7389 58.4012C67.4393 51.8826 69.9557 45.4889 72.2881 39.2203L71.944 39.0868L71.5999 38.9534C69.2712 45.2126 66.7581 51.5978 64.0611 58.108L64.4 58.2546ZM71.944 39.0868L72.2855 39.2263C74.7378 32.9651 77.0058 27.3938 79.0895 22.5122L78.752 22.362L78.4145 22.2118C76.3276 27.102 74.0567 32.6806 71.6025 38.9474L71.944 39.0868ZM78.752 22.362L79.0895 22.5122C80.2785 19.7197 82.4854 17.3309 85.7477 15.3565L85.56 15.0331L85.3723 14.7098C82.0106 16.7443 79.679 19.2414 78.4145 22.2118L78.752 22.362ZM85.56 15.0331L85.7425 15.3594C89.1572 13.3668 92.3798 11.9398 95.4113 11.0729L95.312 10.711L95.2126 10.3491C92.1111 11.2361 88.8322 12.6906 85.3775 14.7068L85.56 15.0331ZM95.312 10.711L95.3639 10.3389C94.4884 10.2112 93.6122 10.1472 92.736 10.1472V10.5231V10.8989C93.5772 10.8989 94.4185 10.9602 95.2601 11.083L95.312 10.711ZM92.736 10.5231L92.7963 10.1523C92.4283 10.0897 92.0603 10.0271 91.6923 9.96442C91.3243 9.90177 90.9563 9.83916 90.5883 9.7765L90.528 10.1472L90.4676 10.518C90.8356 10.5806 91.2036 10.6432 91.5716 10.7059C91.9396 10.7685 92.3076 10.8311 92.6756 10.8938L92.736 10.5231ZM90.528 10.1472L90.5644 9.77323L64.6204 7.14236L64.584 7.51636L64.5476 7.89036L90.4916 10.5212L90.528 10.1472ZM64.584 7.51636L64.6296 7.14341C62.652 6.89096 60.0646 6.70252 56.87 6.57702L56.856 6.9526L56.842 7.32818C60.0263 7.45326 62.5905 7.64061 64.5384 7.8893L64.584 7.51636ZM56.856 6.9526L56.87 6.57702C53.6757 6.45157 50.2975 6.38884 46.736 6.38884V6.76468V7.14052C50.289 7.14052 53.6577 7.2031 56.842 7.32818L56.856 6.9526ZM46.736 6.76468V6.38884C41.9362 6.38884 37.0145 6.70308 31.9714 7.33122L32.016 7.70428L32.0606 8.07734C37.076 7.45269 41.9678 7.14052 46.736 7.14052V6.76468ZM32.016 7.70428L31.9803 7.33021C26.9284 7.83357 22.362 8.77809 18.2836 10.1665L18.4 10.5231L18.5164 10.8796C22.534 9.51191 27.045 8.5772 32.0517 8.07835L32.016 7.70428ZM18.4 10.5231L18.2836 10.1665C14.1827 11.5626 11.1615 13.6703 9.26392 16.5127L9.568 16.7244L9.87204 16.9361C11.6545 14.2662 14.5213 12.2397 18.5164 10.8796L18.4 10.5231ZM9.568 16.7244L9.26179 16.5159C8.23584 18.0877 7.728 19.9159 7.728 21.9862H8.096H8.464C8.464 20.0475 8.9375 18.3678 9.87421 16.9329L9.568 16.7244ZM8.096 21.9862H7.728C7.728 24.0657 8.3019 26.015 9.44244 27.827L9.752 27.6237L10.0616 27.4205C8.9941 25.7246 8.464 23.9156 8.464 21.9862H8.096ZM9.752 27.6237L9.44244 27.827C10.5774 29.63 12.031 31.0511 13.8014 32.0843L13.984 31.758L14.1666 31.4317C12.5023 30.4604 11.1346 29.1253 10.0616 27.4205L9.752 27.6237ZM13.984 31.758L13.7238 32.0237C13.8378 32.1402 13.9112 32.2301 13.9538 32.2953C14.0029 32.3705 13.984 32.3721 13.984 32.3217H14.352H14.72C14.72 32.1461 14.6397 31.991 14.5662 31.8783C14.4861 31.7556 14.3755 31.6263 14.2442 31.4922L13.984 31.758ZM14.352 32.3217H13.984C13.984 32.4456 13.8877 32.6704 13.2953 32.9124L13.432 33.2613L13.5687 33.6103C14.203 33.3511 14.72 32.9496 14.72 32.3217H14.352ZM13.432 33.2613L13.2674 32.9252C12.8899 33.118 12.4501 33.1319 11.9127 32.9124L11.776 33.2613L11.6393 33.6103C12.3286 33.8918 12.9928 33.9058 13.5966 33.5975L13.432 33.2613ZM11.776 33.2613L11.9547 32.9328C10.8936 32.3307 9.6335 31.2934 8.17221 29.8009L7.912 30.0667L7.65179 30.3324C9.1345 31.8467 10.4504 32.9391 11.5973 33.5899L11.776 33.2613ZM7.912 30.0667L8.17221 29.8009C6.71107 28.3087 5.37232 26.7549 4.15568 25.1396L3.864 25.3687L3.57232 25.5979C4.80902 27.2398 6.16893 28.818 7.65179 30.3324L7.912 30.0667ZM3.864 25.3687L4.17356 25.1655C3.07381 23.4183 2.28789 21.996 1.80828 20.8939L1.472 21.0466L1.13572 21.1992C1.63744 22.3521 2.44619 23.8113 3.55445 25.572L3.864 25.3687ZM1.472 21.0466L1.81902 20.9215C1.09194 18.8175 0.736 16.982 0.736 15.409H0.368H0C9.56145e-07 17.0932 0.380063 19.0161 1.12498 21.1716L1.472 21.0466ZM0.368 15.409H0.736C0.736 12.4952 1.68267 10.1553 3.56369 8.35429L3.312 8.08012L3.06031 7.80594C1.016 9.76331 0 12.3093 0 15.409H0.368ZM3.312 8.08012L3.56421 8.3538C5.60232 6.39471 8.18778 4.9174 11.3322 3.92928L11.224 3.57005L11.1158 3.21083C7.88153 4.22717 5.19233 5.75657 3.05979 7.80643L3.312 8.08012ZM11.224 3.57005L11.3404 3.92661C14.625 2.8084 18.0942 2.06223 21.7486 1.68899L21.712 1.31502L21.6754 0.941042C17.9698 1.31949 14.447 2.07667 11.1076 3.2135L11.224 3.57005ZM21.712 1.31502L21.7591 1.68777C25.5479 1.18848 29.1507 0.939178 32.568 0.939178V0.563339V0.1875C29.1159 0.1875 25.4814 0.439331 21.6649 0.942267L21.712 1.31502ZM32.568 0.563339V0.939178H36.432V0.563339V0.1875H32.568V0.563339Z" fill="black" fill-opacity="0.45"/>
</g>
</g>
<defs>
<clipPath id="clip0_53_260">
<rect width="138" height="112" fill="white"/>
</clipPath>
</defs>
</svg>
