<svg width="131" height="106" viewBox="0 0 131 106" fill="none" xmlns="http://www.w3.org/2000/svg">
<g clip-path="url(#clip0_6_28)">
<path d="M50.3389 34.2899L51.0201 34.2366H51.0725C51.352 34.2366 51.5791 34.2899 51.7537 34.3966C51.9284 34.5745 52.0332 34.7168 52.0681 34.8235C52.1729 35.0013 52.2777 35.4638 52.3825 36.2107C53.5703 42.7557 55.1248 49.2651 57.0461 55.7389C57.9544 58.7624 58.8103 61.0567 59.6137 62.6218L59.8757 63.1554L61.2905 61.7681C63.4913 59.5983 65.8319 57.1084 68.3121 54.2983L84.3465 35.7305C84.9753 35.0191 85.3072 34.6456 85.3421 34.6101C85.6915 34.3611 85.9884 34.2366 86.2329 34.2366C86.4076 34.2366 86.5473 34.3077 86.6521 34.45C86.8268 34.6278 86.9316 34.8235 86.9665 35.0369C87.1761 35.5705 87.1761 36.1929 86.9665 36.9044L86.2329 40.5325C85.0801 46.8997 84.2243 53.3557 83.6653 59.9007C83.4208 62.6752 83.4208 65.2185 83.6653 67.5305C83.7003 68.3131 83.8051 68.7933 83.9797 68.9711C84.1544 69.149 84.4164 69.149 84.7657 68.9711L85.1849 68.7577C85.9535 68.402 86.3552 68.2242 86.3901 68.2242C87.3683 67.8685 88.0495 67.7973 88.4337 68.0107C88.9577 68.2953 89.0451 68.7755 88.6957 69.4513C88.4512 69.9849 87.9621 70.5007 87.2285 70.9987C86.0757 71.7812 84.7657 72.4393 83.2985 72.9728C82.53 73.2218 81.744 73.3463 80.9405 73.3463H80.0497L79.5781 73.1329C78.7397 72.706 78.2507 72.1191 78.1109 71.3721C77.7616 70.1627 77.6568 67.7973 77.7965 64.2758C78.0411 59.9362 78.6873 54.2983 79.7353 47.3621C79.8401 46.8997 79.8925 46.6507 79.8925 46.6151L78.3729 48.3758L66.2685 62.0883C63.4739 65.1473 61.0111 67.6372 58.8801 69.558C58.6705 69.7359 58.5308 69.8426 58.4609 69.8782C58.3561 69.9138 58.164 69.9671 57.8845 70.0382C57.6749 70.0382 57.5003 70.0027 57.3605 69.9315C57.116 69.7537 56.8365 69.398 56.5221 68.8644C55.2995 66.9081 54.234 64.7205 53.3257 62.3017C52.0332 58.8869 50.6009 53.7648 49.0289 46.9352L48.7145 45.708L48.6621 45.8681C48.6272 46.0104 48.5748 46.1882 48.5049 46.4017C48.0857 48.358 47.2997 51.1503 46.1469 54.7785C44.3653 60.1497 42.6536 64.507 41.0117 67.8507C39.0555 71.7634 37.2215 73.951 35.5097 74.4134C35.2652 74.4846 34.9333 74.5201 34.5141 74.5201C33.8155 74.449 33.1867 74.2889 32.6277 74.0399C31.6147 73.6487 30.8811 73.0262 30.4269 72.1725C30.3221 71.9946 30.2523 71.6745 30.2173 71.2121C30.2173 70.5718 30.3047 69.9493 30.4793 69.3446C30.9684 67.8862 31.5972 66.9792 32.3657 66.6235C32.5055 66.5523 32.6627 66.5168 32.8373 66.5168C33.012 66.5168 33.1692 66.5879 33.3089 66.7302C33.6932 67.2282 34.0775 67.5661 34.4617 67.744C35.0556 68.0285 35.5971 68.2064 36.0861 68.2775L36.6101 68.3309L36.8721 68.2242C37.6756 67.8329 38.9157 65.5564 40.5925 61.3946C42.6885 56.0946 44.2955 51.097 45.4133 46.4017C46.2168 42.9158 46.7408 39.999 46.9853 37.6513L47.1425 36.7976C47.422 35.9084 48.1905 35.1792 49.4481 34.6101C49.7276 34.4678 50.0245 34.3611 50.3389 34.2899Z" fill="#000BCE"/>
<mask id="mask0_6_28" style="mask-type:luminance" maskUnits="userSpaceOnUse" x="29" y="33" width="61" height="43">
<path d="M89.4293 33.7919H29.6933V75.0537H89.4293V33.7919Z" fill="white"/>
<path d="M50.3389 34.2899L51.0201 34.2366H51.0725C51.352 34.2366 51.5791 34.2899 51.7537 34.3966C51.9284 34.5745 52.0332 34.7168 52.0681 34.8235C52.1729 35.0013 52.2777 35.4638 52.3825 36.2107C53.5703 42.7557 55.1248 49.2651 57.0461 55.7389C57.9544 58.7624 58.8103 61.0567 59.6137 62.6218L59.8757 63.1554L61.2905 61.7681C63.4913 59.5983 65.8319 57.1084 68.3121 54.2983L84.3465 35.7305C84.9753 35.0191 85.3072 34.6456 85.3421 34.6101C85.6915 34.3611 85.9884 34.2366 86.2329 34.2366C86.4076 34.2366 86.5473 34.3077 86.6521 34.45C86.8268 34.6278 86.9316 34.8235 86.9665 35.0369C87.1761 35.5705 87.1761 36.1929 86.9665 36.9044L86.2329 40.5325C85.0801 46.8997 84.2243 53.3557 83.6653 59.9007C83.4208 62.6752 83.4208 65.2185 83.6653 67.5305C83.7003 68.3131 83.8051 68.7933 83.9797 68.9711C84.1544 69.149 84.4164 69.149 84.7657 68.9711L85.1849 68.7577C85.9535 68.402 86.3552 68.2242 86.3901 68.2242C87.3683 67.8685 88.0495 67.7973 88.4337 68.0107C88.9577 68.2953 89.0451 68.7755 88.6957 69.4513C88.4512 69.9849 87.9621 70.5007 87.2285 70.9987C86.0757 71.7812 84.7657 72.4393 83.2985 72.9728C82.53 73.2218 81.744 73.3463 80.9405 73.3463H80.0497L79.5781 73.1329C78.7397 72.706 78.2507 72.1191 78.1109 71.3721C77.7616 70.1627 77.6568 67.7973 77.7965 64.2758C78.0411 59.9362 78.6873 54.2983 79.7353 47.3621C79.8401 46.8997 79.8925 46.6507 79.8925 46.6151L78.3729 48.3758L66.2685 62.0883C63.4739 65.1473 61.0111 67.6372 58.8801 69.558C58.6705 69.7359 58.5308 69.8426 58.4609 69.8782C58.3561 69.9138 58.164 69.9671 57.8845 70.0382C57.6749 70.0382 57.5003 70.0027 57.3605 69.9315C57.116 69.7537 56.8365 69.398 56.5221 68.8644C55.2995 66.9081 54.234 64.7205 53.3257 62.3017C52.0332 58.8869 50.6009 53.7648 49.0289 46.9352L48.7145 45.708L48.6621 45.8681C48.6272 46.0104 48.5748 46.1882 48.5049 46.4017C48.0857 48.358 47.2997 51.1503 46.1469 54.7785C44.3653 60.1497 42.6536 64.507 41.0117 67.8507C39.0555 71.7634 37.2215 73.951 35.5097 74.4134C35.2652 74.4846 34.9333 74.5201 34.5141 74.5201C33.8155 74.449 33.1867 74.2889 32.6277 74.0399C31.6147 73.6487 30.8811 73.0262 30.4269 72.1725C30.3221 71.9946 30.2523 71.6745 30.2173 71.2121C30.2173 70.5718 30.3047 69.9493 30.4793 69.3446C30.9684 67.8862 31.5972 66.9792 32.3657 66.6235C32.5055 66.5523 32.6627 66.5168 32.8373 66.5168C33.012 66.5168 33.1692 66.5879 33.3089 66.7302C33.6932 67.2282 34.0775 67.5661 34.4617 67.744C35.0556 68.0285 35.5971 68.2064 36.0861 68.2775L36.6101 68.3309L36.8721 68.2242C37.6756 67.8329 38.9157 65.5564 40.5925 61.3946C42.6885 56.0946 44.2955 51.097 45.4133 46.4017C46.2168 42.9158 46.7408 39.999 46.9853 37.6513L47.1425 36.7976C47.422 35.9084 48.1905 35.1792 49.4481 34.6101C49.7276 34.4678 50.0245 34.3611 50.3389 34.2899Z" fill="black"/>
</mask>
<g mask="url(#mask0_6_28)">
<path d="M50.3389 34.2899L50.312 33.9352L50.2872 33.9372L50.2631 33.9427L50.3389 34.2899ZM51.0201 34.2366V33.8809H51.0069L50.9932 33.8819L51.0201 34.2366ZM51.7537 34.3966L52.0007 34.1451L51.9703 34.1141L51.9336 34.0916L51.7537 34.3966ZM52.0681 34.8235L51.7366 34.936L51.7488 34.973L51.7688 35.0065L52.0681 34.8235ZM52.3825 36.2107L52.0367 36.2609L52.0377 36.2683L52.0391 36.2755L52.3825 36.2107ZM57.0461 55.7389L56.7118 55.8417L56.7122 55.8431L57.0461 55.7389ZM59.6137 62.6218L59.926 62.4628L59.9246 62.46L59.9232 62.4571L59.6137 62.6218ZM59.8757 63.1554L59.5634 63.3144L59.7758 63.7472L60.1182 63.4115L59.8757 63.1554ZM61.2905 61.7681L61.533 62.0242L61.5337 62.0235L61.2905 61.7681ZM68.3121 54.2983L68.572 54.5359L68.5745 54.5331L68.3121 54.2983ZM84.3465 35.7305L84.087 35.4926L84.0842 35.4957L84.3465 35.7305ZM85.3421 34.6101L85.142 34.3187L85.1168 34.3365L85.0952 34.3585L85.3421 34.6101ZM86.6521 34.45L86.3727 34.6634L86.3877 34.6836L86.4052 34.7015L86.6521 34.45ZM86.9665 35.0369L86.6221 35.0954L86.628 35.1333L86.6424 35.169L86.9665 35.0369ZM86.9665 36.9043L86.6319 36.8023L86.6273 36.8172L86.6245 36.8325L86.9665 36.9043ZM86.2329 40.5325L85.8909 40.4607L85.8899 40.4646L85.8895 40.4682L86.2329 40.5325ZM83.6653 59.9007L84.0133 59.9323V59.9316L83.6653 59.9007ZM83.6653 67.5305L84.0143 67.5145L84.014 67.5035L84.0126 67.4925L83.6653 67.5305ZM85.1849 68.7577L85.0403 68.434L85.0344 68.4365L85.0288 68.4397L85.1849 68.7577ZM86.3901 68.2241V68.5799H86.4506L86.5075 68.5592L86.3901 68.2241ZM88.4337 68.0107L88.2664 68.323L88.2692 68.3245L88.4337 68.0107ZM88.6957 69.4513L88.3866 69.2856L88.3827 69.293L88.3792 69.3009L88.6957 69.4513ZM83.2985 72.9728L83.4044 73.3118L83.4103 73.31L83.4159 73.3079L83.2985 72.9728ZM80.0497 73.3463L79.9079 73.6714L79.9757 73.702H80.0497V73.3463ZM79.5781 73.1329L79.422 73.4509L79.429 73.4548L79.4363 73.458L79.5781 73.1329ZM78.1109 71.3721L78.454 71.3056L78.4508 71.2885L78.4459 71.2718L78.1109 71.3721ZM77.7965 64.2758L77.4479 64.2556L77.4476 64.2584V64.2616L77.7965 64.2758ZM79.7353 47.3621L79.3951 47.282L79.3919 47.2948L79.3902 47.308L79.7353 47.3621ZM79.8925 46.6151H80.2419V45.6714L79.6302 46.3803L79.8925 46.6151ZM78.3729 48.3758L78.6328 48.6138L78.6353 48.6106L78.3729 48.3758ZM66.2685 62.0882L66.5243 62.3305L66.5263 62.3283L66.5284 62.3259L66.2685 62.0882ZM58.8801 69.558L59.1037 69.8312L59.1079 69.828L59.1117 69.8245L58.8801 69.558ZM58.4609 69.8782L58.5713 70.2157L58.5951 70.2076L58.6171 70.1962L58.4609 69.8782ZM57.8845 70.0382V70.3939H57.9275L57.9694 70.3833L57.8845 70.0382ZM57.3605 69.9315L57.1576 70.2211L57.1799 70.2371L57.2044 70.2495L57.3605 69.9315ZM56.5221 68.8644L56.8215 68.6816L56.8194 68.6773L56.817 68.6734L56.5221 68.8644ZM53.3257 62.3017L53.652 62.1747L53.6517 62.1736L53.3257 62.3017ZM49.0289 46.9352L49.3692 46.8541L49.3681 46.8499L49.3671 46.8456L49.0289 46.9352ZM48.7145 45.708L49.0527 45.6184L48.7554 44.4584L48.383 45.5956L48.7145 45.708ZM48.6621 45.8681L48.3306 45.7557L48.3264 45.7685L48.3233 45.7817L48.6621 45.8681ZM48.5049 46.4017L48.1734 46.2893L48.1675 46.3074L48.1636 46.3259L48.5049 46.4017ZM46.1469 54.7785L46.4781 54.8923L46.4791 54.8881L46.1469 54.7785ZM41.0117 67.8507L41.323 68.0121L41.324 68.0097L41.0117 67.8507ZM35.5097 74.4134L35.4203 74.0694L35.4168 74.0705L35.4137 74.0712L35.5097 74.4134ZM34.5141 74.5201L34.4794 74.874L34.4967 74.8758H34.5141V74.5201ZM32.6277 74.0399L32.7677 73.7141L32.7598 73.7105L32.7516 73.7073L32.6277 74.0399ZM30.4269 72.1725L30.7341 72.0032L30.7304 71.996L30.7265 71.9896L30.4269 72.1725ZM30.2173 71.2121H29.868V71.2256L29.869 71.2395L30.2173 71.2121ZM30.4793 69.3446L30.1488 69.2297L30.1463 69.2368L30.1442 69.2443L30.4793 69.3446ZM32.3657 66.6235L32.5103 66.9472L32.5162 66.9447L32.522 66.9415L32.3657 66.6235ZM33.3089 66.7302L33.5836 66.5104L33.5707 66.4936L33.5559 66.4787L33.3089 66.7302ZM34.4617 67.7439L34.6105 67.422L34.6063 67.4203L34.4617 67.7439ZM36.0861 68.2775L36.0369 68.6297L36.0439 68.6307L36.0512 68.6314L36.0861 68.2775ZM36.6101 68.3309L36.5752 68.6848L36.6604 68.6933L36.7397 68.661L36.6101 68.3309ZM36.8721 68.2241L37.0017 68.5542L37.0126 68.55L37.0227 68.545L36.8721 68.2241ZM40.5925 61.3946L40.9157 61.5298L40.9167 61.5277L40.5925 61.3946ZM45.4133 46.4017L45.7529 46.4856L45.7536 46.4828L45.4133 46.4017ZM46.9853 37.6513L46.6419 37.5859L46.6395 37.5998L46.6381 37.614L46.9853 37.6513ZM47.1425 36.7976L46.81 36.6891L46.8033 36.7105L46.7991 36.7322L47.1425 36.7976ZM49.4481 34.6101L49.59 34.9351L49.5973 34.9318L49.6043 34.9282L49.4481 34.6101ZM50.3389 34.2899L50.3658 34.6446L51.047 34.5912L51.0201 34.2366L50.9932 33.8819L50.312 33.9352L50.3389 34.2899ZM51.0201 34.2366V34.5923H51.0725V34.2366V33.8809H51.0201V34.2366ZM51.0725 34.2366V34.5923C51.3115 34.5923 51.4701 34.6382 51.5742 34.7016L51.7537 34.3966L51.9336 34.0916C51.6881 33.9416 51.3929 33.8809 51.0725 33.8809V34.2366ZM51.7537 34.3966L51.5068 34.6481C51.5868 34.7296 51.6444 34.7967 51.6839 34.8502C51.7034 34.8766 51.7167 34.8975 51.7254 34.9133C51.7345 34.9293 51.737 34.9366 51.7366 34.936L52.0681 34.8235L52.3996 34.711C52.3364 34.5183 52.1775 34.3252 52.0007 34.1451L51.7537 34.3966ZM52.0681 34.8235L51.7688 35.0065C51.7901 35.043 51.833 35.1542 51.8851 35.3837C51.9343 35.601 51.985 35.8924 52.0367 36.2609L52.3825 36.2107L52.7284 36.1606C52.6753 35.7821 52.6211 35.4687 52.5656 35.2237C52.5128 34.9908 52.451 34.7818 52.3675 34.6405L52.0681 34.8235ZM52.3825 36.2107L52.0391 36.2755C53.229 42.8336 54.7866 49.3554 56.7118 55.8417L57.0461 55.7389L57.3804 55.6361C55.463 49.1744 53.9116 42.6778 52.7259 36.146L52.3825 36.2107ZM57.0461 55.7389L56.7122 55.8431C57.6225 58.8737 58.4857 61.1926 59.3042 62.7865L59.6137 62.6218L59.9232 62.4571C59.1348 60.9208 58.2863 58.6511 57.3801 55.6347L57.0461 55.7389ZM59.6137 62.6218L59.3014 62.7808L59.5634 63.3144L59.8757 63.1554L60.188 62.9964L59.926 62.4628L59.6137 62.6218ZM59.8757 63.1554L60.1182 63.4115L61.533 62.0242L61.2905 61.7681L61.0481 61.512L59.6333 62.8992L59.8757 63.1554ZM61.2905 61.7681L61.5337 62.0235C63.7411 59.8469 66.0872 57.351 68.572 54.5359L68.3121 54.2983L68.0522 54.0607C65.5765 56.8658 63.2416 59.3497 61.0474 61.5127L61.2905 61.7681ZM68.3121 54.2983L68.5745 54.5331L84.6089 35.9653L84.3465 35.7305L84.0842 35.4957L68.0498 54.0635L68.3121 54.2983ZM84.3465 35.7305L84.6061 35.9685C84.9205 35.6128 85.1605 35.3419 85.3261 35.1555C85.4089 35.0623 85.4728 34.9905 85.5182 34.9399C85.5409 34.9146 85.5587 34.895 85.5713 34.8809C85.586 34.8647 85.5905 34.8603 85.5891 34.8616L85.3421 34.6101L85.0952 34.3585C85.0515 34.4029 84.7091 34.7886 84.087 35.4926L84.3465 35.7305ZM85.3421 34.6101L85.5423 34.9014C85.8717 34.6668 86.096 34.5923 86.2329 34.5923V34.2366V33.8809C85.8808 33.8809 85.5112 34.0554 85.142 34.3187L85.3421 34.6101ZM86.2329 34.2366V34.5923C86.2976 34.5923 86.3339 34.6107 86.3727 34.6634L86.6521 34.45L86.9316 34.2366C86.7608 34.0047 86.5176 33.8809 86.2329 33.8809V34.2366ZM86.6521 34.45L86.4052 34.7015C86.5369 34.8357 86.6008 34.9665 86.6221 35.0954L86.9665 35.0369L87.311 34.9784C87.2624 34.6805 87.1167 34.4199 86.8991 34.1985L86.6521 34.45ZM86.9665 35.0369L86.6424 35.169C86.8149 35.6085 86.8254 36.1449 86.6319 36.8023L86.9665 36.9043L87.3012 37.0064C87.5269 36.241 87.5373 35.5325 87.2907 34.9048L86.9665 35.0369ZM86.9665 36.9043L86.6245 36.8325L85.8909 40.4607L86.2329 40.5325L86.5749 40.6044L87.3085 36.9762L86.9665 36.9043ZM86.2329 40.5325L85.8895 40.4682C84.7346 46.8463 83.877 53.3137 83.3174 59.8697L83.6653 59.9007L84.0133 59.9316C84.5715 53.3977 85.4256 46.953 86.5763 40.5969L86.2329 40.5325ZM83.6653 59.9007L83.3174 59.869C83.0711 62.6624 83.0708 65.2291 83.3181 67.5686L83.6653 67.5305L84.0126 67.4925C83.7712 65.2078 83.7705 62.688 84.0133 59.9323L83.6653 59.9007ZM83.6653 67.5305L83.3164 67.5465C83.3342 67.9481 83.3705 68.2864 83.4292 68.5546C83.4844 68.8082 83.5714 69.0583 83.7328 69.2226L83.9797 68.9711L84.2267 68.7196C84.2134 68.7061 84.1607 68.6272 84.1111 68.4006C84.065 68.1886 84.0314 67.8955 84.0143 67.5145L83.6653 67.5305ZM83.9797 68.9711L83.7328 69.2226C84.0716 69.5676 84.5296 69.489 84.9219 69.2891L84.7657 68.9711L84.6096 68.6531C84.4615 68.7282 84.364 68.7488 84.3074 68.7488C84.2627 68.7488 84.2442 68.7374 84.2267 68.7196L83.9797 68.9711ZM84.7657 68.9711L84.9219 69.2891L85.3411 69.0757L85.1849 68.7577L85.0288 68.4397L84.6096 68.6531L84.7657 68.9711ZM85.1849 68.7577L85.3296 69.0814C85.7131 68.9039 86.0038 68.7716 86.2018 68.6837C86.3014 68.6396 86.3751 68.608 86.4251 68.5877C86.4502 68.5774 86.4656 68.5717 86.4736 68.5688C86.4782 68.5674 86.4761 68.5681 86.4705 68.5695C86.4677 68.5702 86.4604 68.5724 86.4506 68.5742C86.4432 68.5756 86.4205 68.5799 86.3901 68.5799V68.2241V67.8684C86.3367 67.8684 86.293 67.8816 86.2881 67.8827C86.2724 67.8873 86.2574 67.8923 86.2459 67.8962C86.2221 67.9044 86.1949 67.9154 86.1655 67.9271C86.1061 67.9513 86.0247 67.9865 85.9234 68.0314C85.7198 68.1213 85.4253 68.2558 85.0403 68.434L85.1849 68.7577ZM86.3901 68.2241L86.5075 68.5592C86.9823 68.3863 87.3679 68.2896 87.6704 68.2579C87.9775 68.2259 88.1623 68.2651 88.2664 68.323L88.4337 68.0107L88.6011 67.6984C88.3209 67.543 87.973 67.511 87.5988 67.5501C87.2201 67.5896 86.7761 67.7062 86.2728 67.8891L86.3901 68.2241ZM88.4337 68.0107L88.2692 68.3245C88.462 68.4294 88.5291 68.5404 88.5487 68.6492C88.5721 68.7773 88.5441 68.9811 88.3866 69.2856L88.6957 69.4513L89.0049 69.6171C89.1967 69.2457 89.2997 68.8715 89.2358 68.5194C89.168 68.148 88.9294 67.8766 88.5983 67.697L88.4337 68.0107ZM88.6957 69.4513L88.3792 69.3009C88.1724 69.7523 87.741 70.2232 87.0347 70.7027L87.2285 70.9986L87.4224 71.2946C88.1833 70.7781 88.73 70.2175 89.0122 69.6018L88.6957 69.4513ZM87.2285 70.9986L87.0347 70.7027C85.9084 71.4671 84.6246 72.1127 83.1812 72.6377L83.2985 72.9728L83.4159 73.3079C84.9069 72.7658 86.2431 72.0953 87.4224 71.2946L87.2285 70.9986ZM83.2985 72.9728L83.1927 72.6338C82.458 72.8718 81.708 72.9906 80.9405 72.9906V73.3463V73.702C81.78 73.702 82.602 73.5718 83.4044 73.3118L83.2985 72.9728ZM80.9405 73.3463V72.9906H80.0497V73.3463V73.702H80.9405V73.3463ZM80.0497 73.3463L80.1916 73.0212L79.72 72.8078L79.5781 73.1329L79.4363 73.458L79.9079 73.6714L80.0497 73.3463ZM79.5781 73.1329L79.7343 72.8149C78.9661 72.4236 78.5682 71.9164 78.454 71.3056L78.1109 71.3721L77.7679 71.4387C77.9331 72.3219 78.5134 72.9885 79.422 73.4509L79.5781 73.1329ZM78.1109 71.3721L78.4459 71.2718C78.1155 70.1268 78.0054 67.819 78.1455 64.2901L77.7965 64.2758L77.4476 64.2616C77.3082 67.7756 77.4077 70.1987 77.7759 71.4724L78.1109 71.3721ZM77.7965 64.2758L78.1452 64.2961C78.389 59.9725 79.0335 54.347 80.0805 47.4161L79.7353 47.3621L79.3902 47.308C78.3411 54.2496 77.6931 59.8999 77.4479 64.2556L77.7965 64.2758ZM79.7353 47.3621L80.0756 47.4421C80.1283 47.2102 80.1682 47.0302 80.1947 46.9032C80.208 46.8395 80.2188 46.7872 80.2261 46.7474C80.2303 46.7243 80.2419 46.6645 80.2419 46.6151H79.8925H79.5432C79.5432 46.5834 79.5481 46.5681 79.5394 46.6162C79.5338 46.6475 79.5247 46.693 79.5118 46.7538C79.4859 46.8758 79.4471 47.0515 79.3951 47.282L79.7353 47.3621ZM79.8925 46.6151L79.6302 46.3803L78.1106 48.1411L78.3729 48.3758L78.6353 48.6106L80.1549 46.8499L79.8925 46.6151ZM78.3729 48.3758L78.113 48.1382L66.0086 61.8506L66.2685 62.0882L66.5284 62.3259L78.6328 48.6134L78.3729 48.3758ZM66.2685 62.0882L66.0128 61.846C63.2227 64.9001 60.7683 67.3811 58.6485 69.2916L58.8801 69.558L59.1117 69.8245C61.2539 67.8933 63.725 65.3945 66.5243 62.3305L66.2685 62.0882ZM58.8801 69.558L58.6566 69.2849C58.5542 69.3717 58.4718 69.4385 58.4085 69.4869C58.3771 69.5111 58.3519 69.5292 58.3327 69.542C58.3121 69.5563 58.3037 69.5605 58.3048 69.5602L58.4609 69.8782L58.6171 70.1962C58.7306 70.1385 58.9032 70.0016 59.1037 69.8312L58.8801 69.558ZM58.4609 69.8782L58.3505 69.5406C58.2601 69.5716 58.0802 69.6217 57.7996 69.6932L57.8845 70.0382L57.9694 70.3833C58.2478 70.3125 58.4522 70.2559 58.5713 70.2157L58.4609 69.8782ZM57.8845 70.0382V69.6825C57.7116 69.6825 57.5942 69.653 57.5167 69.6135L57.3605 69.9315L57.2044 70.2495C57.4063 70.3523 57.6383 70.3939 57.8845 70.3939V70.0382ZM57.3605 69.9315L57.5635 69.642C57.3808 69.509 57.1317 69.2073 56.8215 68.6816L56.5221 68.8644L56.2228 69.0472C56.5413 69.5886 56.8512 69.9984 57.1576 70.2211L57.3605 69.9315ZM56.5221 68.8644L56.817 68.6734C55.6083 66.7394 54.5529 64.5735 53.652 62.1747L53.3257 62.3017L52.9995 62.4287C53.9151 64.8674 54.9907 67.0766 56.2273 69.0554L56.5221 68.8644ZM53.3257 62.3017L53.6517 62.1736C52.3679 58.7823 50.9401 53.6794 49.3692 46.8541L49.0289 46.9352L48.6887 47.0163C50.2617 53.8501 51.6985 58.9915 52.9998 62.4297L53.3257 62.3017ZM49.0289 46.9352L49.3671 46.8456L49.0527 45.6184L48.7145 45.708L48.3764 45.7977L48.6908 47.0249L49.0289 46.9352ZM48.7145 45.708L48.383 45.5956L48.3306 45.7557L48.6621 45.8681L48.9936 45.9805L49.0461 45.8204L48.7145 45.708ZM48.6621 45.8681L48.3233 45.7817C48.2911 45.9119 48.2419 46.0805 48.1734 46.2893L48.5049 46.4017L48.8365 46.5141C48.9077 46.296 48.9633 46.1089 49.001 45.9545L48.6621 45.8681ZM48.5049 46.4017L48.1636 46.3259C47.7483 48.2648 46.9665 51.044 45.8147 54.669L46.1469 54.7785L46.4791 54.8881C47.633 51.2567 48.4232 48.4512 48.8462 46.4774L48.5049 46.4017ZM46.1469 54.7785L45.8161 54.6647C44.0373 60.0273 42.3312 64.368 40.6994 67.6917L41.0117 67.8507L41.324 68.0097C42.976 64.6461 44.6934 60.272 46.4778 54.8923L46.1469 54.7785ZM41.0117 67.8507L40.7005 67.6892C39.729 69.6324 38.7959 71.1306 37.9034 72.1949C37.0073 73.2638 36.1777 73.8649 35.4203 74.0694L35.5097 74.4134L35.5992 74.7574C36.5535 74.4995 37.4967 73.7756 38.4347 72.6569C39.3762 71.5336 40.3382 69.9817 41.323 68.0121L41.0117 67.8507ZM35.5097 74.4134L35.4137 74.0712C35.2142 74.1296 34.919 74.1644 34.5141 74.1644V74.5201V74.8758C34.9477 74.8758 35.3162 74.8395 35.6058 74.7556L35.5097 74.4134ZM34.5141 74.5201L34.5489 74.1662C33.8812 74.0983 33.2886 73.946 32.7677 73.7141L32.6277 74.0399L32.4877 74.3657C33.0847 74.6318 33.7498 74.7997 34.4794 74.874L34.5141 74.5201ZM32.6277 74.0399L32.7516 73.7073C31.8055 73.342 31.1429 72.7715 30.7341 72.0032L30.4269 72.1725L30.1198 72.3418C30.6192 73.2808 31.4238 73.9553 32.5038 74.3725L32.6277 74.0399ZM30.4269 72.1725L30.7265 71.9896C30.6675 71.8893 30.6003 71.6442 30.5657 71.1847L30.2173 71.2121L29.869 71.2395C29.9042 71.7047 29.9768 72.0999 30.1274 72.3553L30.4269 72.1725ZM30.2173 71.2121H30.5667C30.5667 70.6052 30.6494 70.0165 30.8145 69.4449L30.4793 69.3446L30.1442 69.2443C29.96 69.8821 29.868 70.5384 29.868 71.2121H30.2173ZM30.4793 69.3446L30.8099 69.4595C31.2907 68.026 31.8776 67.2403 32.5103 66.9472L32.3657 66.6235L32.2212 66.2998C31.3168 66.7181 30.6461 67.7464 30.1488 69.2297L30.4793 69.3446ZM32.3657 66.6235L32.522 66.9415C32.6077 66.8981 32.7104 66.8725 32.8373 66.8725V66.5168V66.1611C32.6149 66.1611 32.4032 66.2066 32.2095 66.3055L32.3657 66.6235ZM32.8373 66.5168V66.8725C32.9069 66.8725 32.9783 66.8967 33.0619 66.9817L33.3089 66.7302L33.5559 66.4787C33.3601 66.2792 33.1171 66.1611 32.8373 66.1611V66.5168ZM33.3089 66.7302L33.0343 66.95C33.4379 67.4733 33.8636 67.8578 34.3172 68.0676L34.4617 67.7439L34.6063 67.4203C34.2914 67.2744 33.9485 66.9831 33.5836 66.5104L33.3089 66.7302ZM34.4617 67.7439L34.313 68.0659C34.9287 68.3607 35.5041 68.5521 36.0369 68.6297L36.0861 68.2775L36.1354 67.9254C35.69 67.8606 35.1824 67.6963 34.6105 67.422L34.4617 67.7439ZM36.0861 68.2775L36.0512 68.6314L36.5752 68.6848L36.6101 68.3309L36.6451 67.9769L36.1211 67.9236L36.0861 68.2775ZM36.6101 68.3309L36.7397 68.661L37.0017 68.5542L36.8721 68.2241L36.7425 67.8941L36.4805 68.0008L36.6101 68.3309ZM36.8721 68.2241L37.0227 68.545C37.2983 68.4109 37.5673 68.1416 37.8321 67.7959C38.1028 67.4423 38.3956 66.9735 38.7103 66.3958C39.3402 65.2398 40.0752 63.6156 40.9157 61.5298L40.5925 61.3946L40.2694 61.2595C39.4331 63.3353 38.7096 64.9303 38.0993 66.0508C37.794 66.6114 37.5212 67.045 37.2812 67.3584C37.0349 67.6799 36.8477 67.8418 36.7216 67.9033L36.8721 68.2241ZM40.5925 61.3946L40.9167 61.5277C43.018 56.2145 44.6305 51.2001 45.7529 46.4856L45.4133 46.4017L45.0738 46.3177C43.9605 50.9938 42.3591 55.9747 40.2684 61.2616L40.5925 61.3946ZM45.4133 46.4017L45.7536 46.4828C46.5588 42.989 47.0859 40.0566 47.3326 37.6887L46.9853 37.6513L46.6381 37.614C46.3957 39.9414 45.8748 42.8425 45.0731 46.3206L45.4133 46.4017ZM46.9853 37.6513L47.3287 37.7168L47.4859 36.8631L47.1425 36.7976L46.7991 36.7322L46.6419 37.5859L46.9853 37.6513ZM47.1425 36.7976L47.4751 36.9061C47.7119 36.1531 48.3774 35.4838 49.59 34.9351L49.4481 34.6101L49.3063 34.285C48.0036 34.8746 47.1321 35.6637 46.81 36.6891L47.1425 36.7976ZM49.4481 34.6101L49.6043 34.9282C49.8576 34.7993 50.1272 34.7022 50.4147 34.6372L50.3389 34.2899L50.2631 33.9427C49.9218 34.0199 49.5976 34.1362 49.292 34.2919L49.4481 34.6101Z" fill="black" fill-opacity="0.45"/>
</g>
<path d="M52.9848 72.2707C53.4794 73.0699 54.022 73.7796 54.6305 74.2221L54.7308 74.295L54.8408 74.3512C55.3536 74.6123 55.9035 74.698 56.4173 74.698H56.6109L56.7988 74.65C57.261 74.5326 57.6358 74.4305 57.8751 74.3494L57.9813 74.3131L58.0812 74.2623C58.3935 74.1033 58.7736 73.7892 59.0831 73.5267L59.1013 73.5114L59.1184 73.4954C59.2588 73.3691 59.3992 73.2403 59.5411 73.1108C58.3502 75.609 57.1345 78.0946 55.8933 80.5671C53.215 85.7842 49.9547 90.5269 46.112 94.7953C43.201 97.9967 39.824 100.546 35.9813 102.443C32.1387 104.459 28.1796 105.466 24.104 105.466C20.4942 105.466 17.0591 104.399 13.7987 102.265C10.5382 100.249 8.0929 97.1074 6.46267 92.8389C5.88043 91.2977 5.4729 89.6376 5.24 87.8591C5.0071 86.0806 4.89067 84.4205 4.89067 82.8792V81.2785C4.89067 80.3299 4.9489 79.3816 5.06533 78.4329C5.29823 77.4842 5.82223 77.0101 6.63733 77.0101C6.87023 77.0101 6.98667 77.1285 6.98667 77.3658C6.98667 78.0772 6.92843 78.848 6.812 79.6779V81.8121C6.812 87.3849 8.1511 91.594 10.8293 94.4396C13.624 97.2852 17.0591 98.7081 21.1347 98.7081C25.2102 98.7081 29.1693 97.5225 33.012 95.151C36.8547 92.7795 40.4063 89.756 43.6667 86.0806C46.927 82.4051 50.013 77.8399 52.924 72.3859C52.9446 72.3475 52.9642 72.3091 52.9848 72.2707ZM34.584 0.533569C35.7483 0.533569 36.8547 0.592855 37.9027 0.711422C41.629 0.948556 45.5297 1.18569 49.6053 1.42283C53.681 1.65997 57.8147 1.95638 62.0067 2.31209L89.7787 4.62417C91.6417 4.74273 94.4363 4.97988 98.1627 5.33558C102.005 5.57273 105.906 5.69129 109.865 5.69129C114.174 5.69129 118.133 5.45414 121.743 4.97988C125.352 4.38703 127.74 3.37921 128.904 1.95639C129.137 1.48211 129.486 1.36354 129.952 1.60068C130.418 1.83782 130.534 2.13424 130.301 2.48995C129.952 3.91276 129.486 4.97988 128.904 5.69129C128.322 6.87696 127.507 8.18122 126.459 9.60404C125.527 11.0269 124.072 11.9754 122.092 12.4497C121.626 12.5682 120.986 12.6868 120.171 12.8054H117.551C114.872 12.8054 111.612 12.6275 107.769 12.2718C104.043 11.7976 100.375 11.3233 96.7653 10.849C93.272 11.4419 90.2443 13.1018 87.6827 15.8289C85.121 18.556 82.9083 21.698 81.0453 25.255C79.1823 28.6935 77.552 31.9541 76.1547 35.0369C73.8341 39.8706 71.8481 44.3639 70.1961 48.5164C66.9791 52.0755 63.9151 55.2904 61.0037 58.1609L60.188 58.9602C60.0682 58.7027 59.9481 58.4348 59.8265 58.1563C60.2666 57.1571 60.703 56.1501 61.1333 55.1342C63.695 48.9688 66.0823 42.9218 68.2947 36.9933C70.6237 31.0649 72.7777 25.7886 74.7573 21.1644C75.9217 18.4374 78.076 16.1253 81.22 14.2282C84.4803 12.3311 87.5664 10.9676 90.4773 10.1376C89.6624 10.019 88.847 9.95974 88.032 9.95974C87.3333 9.84119 86.6347 9.7226 85.936 9.60404L61.308 7.11411C59.445 6.87696 56.9997 6.69911 53.972 6.58055C50.9443 6.46199 47.7423 6.4027 44.3653 6.4027C39.824 6.4027 35.1663 6.69911 30.392 7.29196C25.6178 7.76622 21.3093 8.65548 17.4667 9.95974C13.624 11.264 10.8293 13.2204 9.08267 15.8289C8.1511 17.2517 7.68533 18.9117 7.68533 20.8087C7.68533 22.7058 8.20933 24.4843 9.25733 26.1443C10.3053 27.8043 11.6444 29.1085 13.2747 30.0571C13.5076 30.2942 13.624 30.4721 13.624 30.5906C13.624 30.9463 13.3329 31.2427 12.7507 31.4799C12.2849 31.717 11.7609 31.717 11.1787 31.4799C10.1307 30.887 8.908 29.8792 7.51067 28.4564C6.11333 27.0336 4.83243 25.5515 3.668 24.0101C2.62 22.3501 1.86311 20.9866 1.39733 19.9195C0.698666 17.9038 0.349333 16.1253 0.349333 14.5839C0.349333 11.7383 1.28089 9.42619 3.144 7.64766C5.12357 5.75058 7.6271 4.32776 10.6547 3.37921C13.7987 2.31209 17.1173 1.60069 20.6107 1.24498C24.2204 0.770711 27.6556 0.533569 30.916 0.533569H34.584Z" fill="white"/>
<mask id="mask1_6_28" style="mask-type:luminance" maskUnits="userSpaceOnUse" x="0" y="0" width="131" height="106">
<path d="M131 0.177856H0V105.822H131V0.177856Z" fill="white"/>
<path d="M52.9848 72.2707C53.4794 73.0699 54.022 73.7796 54.6305 74.2221L54.7308 74.295L54.8408 74.3512C55.3536 74.6123 55.9035 74.698 56.4173 74.698H56.6109L56.7988 74.65C57.261 74.5326 57.6358 74.4305 57.8751 74.3494L57.9813 74.3131L58.0812 74.2623C58.3935 74.1033 58.7736 73.7892 59.0831 73.5267L59.1013 73.5114L59.1184 73.4954C59.2588 73.3691 59.3992 73.2403 59.5411 73.1108C58.3502 75.609 57.1345 78.0946 55.8933 80.5671C53.215 85.7842 49.9547 90.5269 46.112 94.7953C43.201 97.9967 39.824 100.546 35.9813 102.443C32.1387 104.459 28.1796 105.466 24.104 105.466C20.4942 105.466 17.0591 104.399 13.7987 102.265C10.5382 100.249 8.0929 97.1074 6.46267 92.8389C5.88043 91.2977 5.4729 89.6376 5.24 87.8591C5.0071 86.0806 4.89067 84.4205 4.89067 82.8792V81.2785C4.89067 80.3299 4.9489 79.3816 5.06533 78.4329C5.29823 77.4842 5.82223 77.0101 6.63733 77.0101C6.87023 77.0101 6.98667 77.1285 6.98667 77.3658C6.98667 78.0772 6.92843 78.848 6.812 79.6779V81.8121C6.812 87.3849 8.1511 91.594 10.8293 94.4396C13.624 97.2852 17.0591 98.7081 21.1347 98.7081C25.2102 98.7081 29.1693 97.5225 33.012 95.151C36.8547 92.7795 40.4063 89.756 43.6667 86.0806C46.927 82.4051 50.013 77.8399 52.924 72.3859C52.9446 72.3475 52.9642 72.3091 52.9848 72.2707ZM34.584 0.533569C35.7483 0.533569 36.8547 0.592855 37.9027 0.711422C41.629 0.948556 45.5297 1.18569 49.6053 1.42283C53.681 1.65997 57.8147 1.95638 62.0067 2.31209L89.7787 4.62417C91.6417 4.74273 94.4363 4.97988 98.1627 5.33558C102.005 5.57273 105.906 5.69129 109.865 5.69129C114.174 5.69129 118.133 5.45414 121.743 4.97988C125.352 4.38703 127.74 3.37921 128.904 1.95639C129.137 1.48211 129.486 1.36354 129.952 1.60068C130.418 1.83782 130.534 2.13424 130.301 2.48995C129.952 3.91276 129.486 4.97988 128.904 5.69129C128.322 6.87696 127.507 8.18122 126.459 9.60404C125.527 11.0269 124.072 11.9754 122.092 12.4497C121.626 12.5682 120.986 12.6868 120.171 12.8054H117.551C114.872 12.8054 111.612 12.6275 107.769 12.2718C104.043 11.7976 100.375 11.3233 96.7653 10.849C93.272 11.4419 90.2443 13.1018 87.6827 15.8289C85.121 18.556 82.9083 21.698 81.0453 25.255C79.1823 28.6935 77.552 31.9541 76.1547 35.0369C73.8341 39.8706 71.8481 44.3639 70.1961 48.5164C66.9791 52.0755 63.9151 55.2904 61.0037 58.1609L60.188 58.9602C60.0682 58.7027 59.9481 58.4348 59.8265 58.1563C60.2666 57.1571 60.703 56.1501 61.1333 55.1342C63.695 48.9688 66.0823 42.9218 68.2947 36.9933C70.6237 31.0649 72.7777 25.7886 74.7573 21.1644C75.9217 18.4374 78.076 16.1253 81.22 14.2282C84.4803 12.3311 87.5664 10.9676 90.4773 10.1376C89.6624 10.019 88.847 9.95974 88.032 9.95974C87.3333 9.84119 86.6347 9.7226 85.936 9.60404L61.308 7.11411C59.445 6.87696 56.9997 6.69911 53.972 6.58055C50.9443 6.46199 47.7423 6.4027 44.3653 6.4027C39.824 6.4027 35.1663 6.69911 30.392 7.29196C25.6178 7.76622 21.3093 8.65548 17.4667 9.95974C13.624 11.264 10.8293 13.2204 9.08267 15.8289C8.1511 17.2517 7.68533 18.9117 7.68533 20.8087C7.68533 22.7058 8.20933 24.4843 9.25733 26.1443C10.3053 27.8043 11.6444 29.1085 13.2747 30.0571C13.5076 30.2942 13.624 30.4721 13.624 30.5906C13.624 30.9463 13.3329 31.2427 12.7507 31.4799C12.2849 31.717 11.7609 31.717 11.1787 31.4799C10.1307 30.887 8.908 29.8792 7.51067 28.4564C6.11333 27.0336 4.83243 25.5515 3.668 24.0101C2.62 22.3501 1.86311 20.9866 1.39733 19.9195C0.698666 17.9038 0.349333 16.1253 0.349333 14.5839C0.349333 11.7383 1.28089 9.42619 3.144 7.64766C5.12357 5.75058 7.6271 4.32776 10.6547 3.37921C13.7987 2.31209 17.1173 1.60069 20.6107 1.24498C24.2204 0.770711 27.6556 0.533569 30.916 0.533569H34.584Z" fill="black"/>
</mask>
<g mask="url(#mask1_6_28)">
<path d="M52.9848 72.2707L53.2803 72.0811L52.9621 71.5671L52.6777 72.101L52.9848 72.2707ZM54.7307 74.295L54.5278 74.5845L54.5498 74.6005L54.5742 74.613L54.7307 74.295ZM54.8408 74.3512L54.6843 74.6692L54.6846 74.6695L54.8408 74.3512ZM56.6109 74.698V75.0537H56.6538L56.6957 75.043L56.6109 74.698ZM57.8751 74.3494L57.9855 74.6866H57.9858L57.8751 74.3494ZM57.9813 74.3131L58.092 74.6503L58.1151 74.6425L58.1371 74.6315L57.9813 74.3131ZM58.0812 74.2622L58.237 74.5806H58.2374L58.0812 74.2622ZM59.0831 73.5266L58.8599 73.2531L58.8595 73.2535L59.0831 73.5266ZM59.1013 73.5114L59.3241 73.7849L59.3297 73.7803L59.335 73.7756L59.1013 73.5114ZM59.1184 73.4953L58.8871 73.2289L58.8847 73.2314L59.1184 73.4953ZM59.5411 73.1108L59.8555 73.2663L59.3084 72.8458L59.5411 73.1108ZM55.8933 80.5671L56.2028 80.7318L56.2042 80.729L55.8933 80.5671ZM46.112 94.7953L46.3684 95.0368L46.3695 95.0358L46.112 94.7953ZM35.9813 102.443L35.829 102.123L35.8252 102.125L35.8213 102.127L35.9813 102.443ZM13.7987 102.265L13.9876 101.966L13.9838 101.963L13.98 101.961L13.7987 102.265ZM6.46267 92.8389L6.1366 92.9666L6.13709 92.9677L6.46267 92.8389ZM5.06533 78.4329L4.72644 78.3465L4.72131 78.3674L4.71869 78.3888L5.06533 78.4329ZM6.812 79.6778L6.46619 79.6277L6.46267 79.6526V79.6778H6.812ZM10.8293 94.4396L10.5771 94.6857L10.5797 94.6886L10.5823 94.6911L10.8293 94.4396ZM37.9027 0.711413L37.8642 1.06494L37.8726 1.06589L37.881 1.06642L37.9027 0.711413ZM62.0067 2.31208L61.9777 2.66656L61.9784 2.6666L62.0067 2.31208ZM89.7787 4.62416L89.7504 4.9787L89.7535 4.97898L89.757 4.97919L89.7787 4.62416ZM98.1627 5.33557L98.1302 5.68971L98.1358 5.69028L98.1417 5.69064L98.1627 5.33557ZM121.743 4.97987L121.787 5.33266L121.793 5.33195L121.798 5.33102L121.743 4.97987ZM128.904 1.95638L129.172 2.18409L129.198 2.15238L129.216 2.11546L128.904 1.95638ZM130.301 2.48994L130.011 2.29263L129.977 2.34389L129.962 2.40366L130.301 2.48994ZM128.904 5.69128L128.636 5.46356L128.61 5.49529L128.592 5.53221L128.904 5.69128ZM126.459 9.60403L126.179 9.39061L126.173 9.3985L126.168 9.40672L126.459 9.60403ZM122.092 12.4497L122.012 12.1034L122.007 12.1046L122.092 12.4497ZM120.171 12.8054V13.1611H120.195L120.22 13.1575L120.171 12.8054ZM107.769 12.2718L107.726 12.6248L107.732 12.6255L107.738 12.6261L107.769 12.2718ZM96.7653 10.849L96.81 10.4962L96.7587 10.4895L96.708 10.4981L96.7653 10.849ZM81.0453 25.255L81.3513 25.4269L81.3524 25.4247L81.3534 25.4224L81.0453 25.255ZM76.1547 35.0369L76.4684 35.1931L76.4701 35.1896L76.4719 35.186L76.1547 35.0369ZM70.1961 48.5163L70.4532 48.7572L70.4962 48.7095L70.5199 48.6497L70.1961 48.5163ZM61.0037 58.1609L61.2458 58.417L61.2469 58.4163L61.0037 58.1609ZM60.188 58.9602L59.8722 59.1124L60.0804 59.5595L60.4301 59.2163L60.188 58.9602ZM59.8265 58.1563L59.5075 58.0108L59.4436 58.1559L59.5072 58.3011L59.8265 58.1563ZM61.1333 55.1342L61.454 55.2751L61.4551 55.273L61.1333 55.1342ZM68.2947 36.9933L67.9705 36.8613L67.9691 36.8642L67.968 36.867L68.2947 36.9933ZM81.22 14.2282L81.0467 13.9194L81.0443 13.9208L81.0418 13.9222L81.22 14.2282ZM90.4773 10.1376L90.5716 10.4801L90.5266 9.78547L90.4773 10.1376ZM88.032 9.95973L87.9747 10.3106L88.003 10.3154H88.032V9.95973ZM85.936 9.60403L85.9933 9.25316L85.9821 9.25124L85.9706 9.25007L85.936 9.60403ZM61.308 7.1141L61.2647 7.46706L61.2692 7.46763L61.2734 7.46806L61.308 7.1141ZM30.392 7.29195L30.4259 7.64598L30.4301 7.64556L30.4343 7.64502L30.392 7.29195ZM9.08267 15.8289L8.79401 15.6285L8.79199 15.6316L9.08267 15.8289ZM13.2747 30.057L13.5217 29.8055L13.4886 29.7718L13.448 29.7482L13.2747 30.057ZM12.7507 31.4799L12.6209 31.1496L12.6074 31.1551L12.5944 31.1617L12.7507 31.4799ZM11.1787 31.4799L11.009 31.7908L11.0284 31.8017L11.0489 31.8101L11.1787 31.4799ZM3.668 24.0101L3.37415 24.2024L3.38212 24.2151L3.39111 24.2269L3.668 24.0101ZM1.39733 19.9195L1.06792 20.0378L1.07251 20.0511L1.07811 20.0639L1.39733 19.9195ZM3.144 7.64765L3.38292 7.90714L3.38342 7.90668L3.144 7.64765ZM10.6547 3.3792L10.7574 3.71918L10.7613 3.71797L10.7651 3.71666L10.6547 3.3792ZM20.6107 1.24497L20.6454 1.59891L20.6504 1.5984L20.6554 1.59775L20.6107 1.24497ZM52.9848 72.2707L52.6892 72.4602C53.1909 73.2709 53.7624 74.0282 54.4275 74.5116L54.6305 74.2221L54.8335 73.9325C54.2815 73.5313 53.7683 72.8693 53.2803 72.0811L52.9848 72.2707ZM54.6305 74.2221L54.4275 74.5116L54.5278 74.5845L54.7307 74.295L54.9337 74.0054L54.8335 73.9325L54.6305 74.2221ZM54.7307 74.295L54.5742 74.613L54.6843 74.6692L54.8408 74.3512L54.9976 74.0335L54.8872 73.977L54.7307 74.295ZM54.8408 74.3512L54.6846 74.6695C55.2596 74.9623 55.8671 75.0537 56.4173 75.0537V74.698V74.3423C55.9398 74.3423 55.4476 74.2626 54.9973 74.0332L54.8408 74.3512ZM56.4173 74.698V75.0537H56.6109V74.698V74.3423H56.4173V74.698ZM56.6109 74.698L56.6957 75.043L56.8837 74.995L56.7988 74.65L56.7139 74.3049L56.526 74.353L56.6109 74.698ZM56.7988 74.65L56.8833 74.995C57.3448 74.8776 57.7319 74.7727 57.9855 74.6866L57.8751 74.3494L57.7647 74.0118C57.5397 74.088 57.1771 74.1872 56.7139 74.3049L56.7988 74.65ZM57.8751 74.3494L57.9858 74.6866L58.092 74.6503L57.9813 74.3131L57.8702 73.9759L57.7647 74.0118L57.8751 74.3494ZM57.9813 74.3131L58.1371 74.6315L58.237 74.5806L58.0812 74.2622L57.9254 73.9439L57.8255 73.9948L57.9813 74.3131ZM58.0812 74.2622L58.2374 74.5806C58.593 74.3995 59.0048 74.0563 59.3067 73.7998L59.0831 73.5266L58.8595 73.2535C58.5427 73.5224 58.1944 73.8069 57.9247 73.9442L58.0812 74.2622ZM59.0831 73.5266L59.3063 73.8002L59.3241 73.7849L59.1013 73.5114L58.878 73.2378L58.8599 73.2531L59.0831 73.5266ZM59.1013 73.5114L59.335 73.7756L59.3524 73.7596L59.1184 73.4953L58.8847 73.2314L58.8672 73.2471L59.1013 73.5114ZM59.1184 73.4953L59.35 73.7618C59.4915 73.6344 59.6333 73.5042 59.7741 73.3758L59.5411 73.1108L59.3084 72.8458C59.1652 72.976 59.0265 73.1034 58.8871 73.2289L59.1184 73.4953ZM59.5411 73.1108L59.227 72.9554C58.0368 75.4514 56.8222 77.9349 55.5824 80.4053L55.8933 80.5671L56.2042 80.729C57.4465 78.2543 58.6632 75.7665 59.8555 73.2663L59.5411 73.1108ZM55.8933 80.5671L55.5838 80.4024C52.9195 85.5925 49.6762 90.3095 45.8545 94.5548L46.112 94.7953L46.3695 95.0358C50.2331 90.7442 53.5109 85.976 56.2028 80.7318L55.8933 80.5671ZM46.112 94.7953L45.8556 94.5538C42.9739 97.7228 39.6322 100.245 35.829 102.123L35.9813 102.443L36.1336 102.763C40.0158 100.847 43.4277 98.2705 46.3684 95.0368L46.112 94.7953ZM35.9813 102.443L35.8213 102.127C32.0251 104.118 28.1205 105.111 24.104 105.111V105.466V105.822C28.2386 105.822 32.2523 104.799 36.1413 102.759L35.9813 102.443ZM24.104 105.466V105.111C20.5662 105.111 17.196 104.066 13.9876 101.966L13.7987 102.265L13.6097 102.564C16.9222 104.733 20.4223 105.822 24.104 105.822V105.466ZM13.7987 102.265L13.98 101.961C10.7965 99.9929 8.39577 96.9192 6.78824 92.7102L6.46267 92.8389L6.13709 92.9677C7.78999 97.2955 10.28 100.506 13.6174 102.569L13.7987 102.265ZM6.46267 92.8389L6.7887 92.7112C6.21712 91.1981 5.81584 89.5654 5.58626 87.8121L5.24 87.8591L4.89374 87.906C5.12992 89.7098 5.54375 91.3973 6.1366 92.9666L6.46267 92.8389ZM5.24 87.8591L5.58626 87.8121C5.35511 86.0467 5.24 84.4027 5.24 82.8792H4.89067H4.54133C4.54133 84.4386 4.65913 86.1143 4.89374 87.906L5.24 87.8591ZM4.89067 82.8792H5.24V81.2785H4.89067H4.54133V82.8792H4.89067ZM4.89067 81.2785H5.24C5.24 80.3448 5.29729 79.4111 5.41198 78.477L5.06533 78.4329L4.71869 78.3888C4.60048 79.3517 4.54133 80.3153 4.54133 81.2785H4.89067ZM5.06533 78.4329L5.40422 78.5193C5.50976 78.0893 5.67178 77.8065 5.8651 77.6315C6.0529 77.4618 6.30054 77.3658 6.63733 77.3658V77.0101V76.6544C6.15899 76.6544 5.7371 76.7956 5.4009 77.1001C5.07022 77.3992 4.85378 77.8278 4.72644 78.3465L5.06533 78.4329ZM6.63733 77.0101V77.3658C6.65204 77.3658 6.66266 77.3668 6.66982 77.3679C6.67691 77.3686 6.67992 77.3697 6.67971 77.3697C6.67936 77.3697 6.6759 77.3683 6.67049 77.3651C6.66779 77.3636 6.66483 77.3615 6.66168 77.359C6.6585 77.3565 6.65536 77.3537 6.65232 77.3505C6.64928 77.3473 6.64652 77.3441 6.64404 77.3409C6.64159 77.3377 6.6396 77.3348 6.638 77.332C6.63475 77.3266 6.63353 77.3231 6.63342 77.3227C6.63335 77.3224 6.63436 77.3256 6.63538 77.3327C6.63639 77.3402 6.63733 77.3508 6.63733 77.3658H6.98667H7.336C7.336 77.1925 7.29321 76.9969 7.14635 76.8475C6.99952 76.6981 6.80763 76.6544 6.63733 76.6544V77.0101ZM6.98667 77.3658H6.63733C6.63733 78.0576 6.58067 78.8113 6.46619 79.6277L6.812 79.6778L7.1578 79.728C7.27619 78.8843 7.336 78.0967 7.336 77.3658H6.98667ZM6.812 79.6778H6.46267V81.8121H6.812H7.16133V79.6778H6.812ZM6.812 81.8121H6.46267C6.46267 87.4383 7.81476 91.7508 10.5771 94.6857L10.8293 94.4396L11.0816 94.1935C8.48747 91.4371 7.16133 87.3312 7.16133 81.8121H6.812ZM10.8293 94.4396L10.5823 94.6911C13.4448 97.6057 16.9697 99.0638 21.1347 99.0638V98.708V98.3523C17.1485 98.3523 13.8032 96.9647 11.0763 94.1881L10.8293 94.4396ZM21.1347 98.708V99.0638C25.2805 99.0638 29.3016 97.8568 33.1931 95.4551L33.012 95.151L32.8309 94.8469C29.0371 97.1881 25.1399 98.3523 21.1347 98.3523V98.708ZM33.012 95.151L33.1931 95.4551C37.0671 93.0644 40.6446 90.0182 43.9259 86.3189L43.6667 86.0805L43.4075 85.8422C40.1677 89.4942 36.6423 92.4949 32.8309 94.8469L33.012 95.151ZM43.6667 86.0805L43.9259 86.3189C47.2089 82.6181 50.3099 78.0288 53.2311 72.5559L52.924 72.3859L52.6169 72.2159C49.7161 77.6514 46.6454 82.192 43.4075 85.8422L43.6667 86.0805ZM52.924 72.3859L53.2311 72.5559C53.2419 72.5349 53.2527 72.5147 53.2629 72.4955C53.273 72.4759 53.2824 72.4581 53.2918 72.4403L52.9848 72.2707L52.6777 72.101C52.6665 72.1216 52.6561 72.1419 52.6459 72.1611C52.6358 72.1803 52.6264 72.1984 52.6169 72.2159L52.924 72.3859ZM34.584 0.533561V0.889266C35.7368 0.889266 36.8302 0.947964 37.8642 1.06494L37.9027 0.711413L37.9411 0.357886C36.8791 0.237728 35.7599 0.177856 34.584 0.177856V0.533561ZM37.9027 0.711413L37.881 1.06642C41.6077 1.3036 45.5094 1.54077 49.5854 1.77795L49.6053 1.42282L49.6252 1.0677C45.5503 0.830589 41.65 0.59349 37.9243 0.356402L37.9027 0.711413ZM49.6053 1.42282L49.5854 1.77795C53.6579 2.0149 57.7885 2.3111 61.9777 2.66656L62.0067 2.31208L62.0357 1.95761C57.8409 1.60165 53.7041 1.30501 49.6252 1.0677L49.6053 1.42282ZM62.0067 2.31208L61.9784 2.6666L89.7504 4.9787L89.7787 4.62416L89.807 4.26963L62.035 1.95756L62.0067 2.31208ZM89.7787 4.62416L89.757 4.97919C91.6144 5.09739 94.4045 5.33412 98.1302 5.68971L98.1627 5.33557L98.1951 4.98143C94.4681 4.62566 91.6693 4.38808 89.8003 4.26914L89.7787 4.62416ZM98.1627 5.33557L98.1417 5.69064C101.991 5.92821 105.899 6.04698 109.865 6.04698V5.69128V5.33557C105.913 5.33557 102.019 5.21723 98.1836 4.98051L98.1627 5.33557ZM109.865 5.69128V6.04698C114.186 6.04698 118.16 5.8092 121.787 5.33266L121.743 4.97987L121.698 4.62708C118.105 5.0991 114.161 5.33557 109.865 5.33557V5.69128ZM121.743 4.97987L121.798 5.33102C125.42 4.73625 127.921 3.71321 129.172 2.18409L128.904 1.95638L128.636 1.72866C127.558 3.04517 125.285 4.03782 121.687 4.62872L121.743 4.97987ZM128.904 1.95638L129.216 2.11546C129.309 1.92736 129.396 1.86813 129.451 1.8492C129.507 1.83027 129.611 1.82478 129.796 1.91882L129.952 1.60068L130.108 1.28253C129.827 1.13943 129.524 1.07466 129.23 1.1743C128.936 1.27394 128.732 1.51112 128.592 1.7973L128.904 1.95638ZM129.952 1.60068L129.796 1.91882C129.999 2.02241 130.053 2.10442 130.064 2.13294C130.066 2.13731 130.087 2.17588 130.011 2.29263L130.301 2.48994L130.592 2.68724C130.748 2.44829 130.828 2.16079 130.713 1.86874C130.608 1.60084 130.37 1.41608 130.108 1.28253L129.952 1.60068ZM130.301 2.48994L129.962 2.40366C129.619 3.80163 129.17 4.81041 128.636 5.46356L128.904 5.69128L129.172 5.919C129.802 5.14933 130.285 4.02388 130.64 2.57621L130.301 2.48994ZM128.904 5.69128L128.592 5.53221C128.021 6.69362 127.218 7.97949 126.179 9.39061L126.459 9.60403L126.738 9.81745C127.795 8.38293 128.622 7.06032 129.216 5.85035L128.904 5.69128ZM126.459 9.60403L126.168 9.40672C125.295 10.7393 123.925 11.6452 122.012 12.1034L122.092 12.4497L122.172 12.7959C124.219 12.3056 125.759 11.3144 126.749 9.80134L126.459 9.60403ZM122.092 12.4497L122.007 12.1046C121.559 12.2188 120.932 12.3354 120.121 12.4533L120.171 12.8054L120.22 13.1575C121.04 13.0383 121.694 12.9176 122.177 12.7947L122.092 12.4497ZM120.171 12.8054V12.4497H117.551V12.8054V13.1611H120.171V12.8054ZM117.551 12.8054V12.4497C114.887 12.4497 111.637 12.2727 107.801 11.9176L107.769 12.2718L107.738 12.6261C111.587 12.9823 114.858 13.1611 117.551 13.1611V12.8054ZM107.769 12.2718L107.813 11.9188C104.087 11.4446 100.419 10.9704 96.81 10.4962L96.7653 10.849L96.7206 11.2018C100.331 11.6761 103.999 12.1504 107.726 12.6248L107.769 12.2718ZM96.7653 10.849L96.708 10.4981C93.1365 11.1042 90.0417 12.8032 87.4301 15.583L87.6827 15.8289L87.9352 16.0747C90.4473 13.4004 93.4075 11.7794 96.8226 11.1999L96.7653 10.849ZM87.6827 15.8289L87.4301 15.583C84.845 18.3351 82.6142 21.5039 80.7372 25.0876L81.0453 25.255L81.3534 25.4224C83.2028 21.8921 85.397 18.7768 87.9352 16.0747L87.6827 15.8289ZM81.0453 25.255L80.7393 25.0832C78.8728 28.528 77.2386 31.7963 75.8375 34.8878L76.1547 35.0369L76.4719 35.186C77.8653 32.112 79.4915 28.859 81.3513 25.4269L81.0453 25.255ZM76.1547 35.0369L75.841 34.8807C73.5172 39.7205 71.5277 44.2212 69.8726 48.3826L70.1961 48.5163L70.5199 48.6497C72.1681 44.5061 74.1505 40.0207 76.4684 35.1931L76.1547 35.0369ZM70.1961 48.5163L69.9393 48.2752C66.7258 51.8304 63.6667 55.0403 60.7606 57.9052L61.0037 58.1609L61.2469 58.4163C64.1638 55.5404 67.2323 52.3206 70.4532 48.7572L70.1961 48.5163ZM61.0037 58.1609L60.7613 57.9045L59.9459 58.7037L60.188 58.9602L60.4301 59.2163L61.2458 58.417L61.0037 58.1609ZM60.188 58.9602L60.5038 58.8079C60.3854 58.5536 60.2666 58.2883 60.1454 58.0115L59.8265 58.1563L59.5072 58.3011C59.6298 58.5814 59.751 58.8521 59.8722 59.1124L60.188 58.9602ZM59.8265 58.1563L60.1451 58.3018C60.5859 57.3015 61.0229 56.2928 61.454 55.2751L61.1333 55.1342L60.8126 54.9934C60.383 56.0075 59.9473 57.0131 59.5075 58.0108L59.8265 58.1563ZM61.1333 55.1342L61.4551 55.273C64.0185 49.1036 66.4072 43.0524 68.6213 37.1196L68.2947 36.9933L67.968 36.867C65.7575 42.7909 63.3719 48.834 60.8116 54.9955L61.1333 55.1342ZM68.2947 36.9933L68.6188 37.1253C70.9468 31.1995 73.0997 25.9267 75.0777 21.3066L74.7573 21.1644L74.437 21.0223C72.4559 25.6505 70.3002 30.9302 67.9705 36.8613L68.2947 36.9933ZM74.7573 21.1644L75.0777 21.3066C76.2064 18.6637 78.3013 16.4028 81.3982 14.5342L81.22 14.2282L81.0418 13.9222C77.8507 15.8477 75.6373 18.2111 74.437 21.0223L74.7573 21.1644ZM81.22 14.2282L81.3933 14.537C84.6347 12.6511 87.6938 11.3006 90.5716 10.4801L90.4773 10.1376L90.383 9.79504C87.4388 10.6345 84.3263 12.0111 81.0467 13.9194L81.22 14.2282ZM90.4773 10.1376L90.5266 9.78547C89.6955 9.66454 88.8638 9.60403 88.032 9.60403V9.95973V10.3154C88.8306 10.3154 89.6292 10.3735 90.4281 10.4897L90.4773 10.1376ZM88.032 9.95973L88.0893 9.60887C87.74 9.54957 87.3906 9.49031 87.0413 9.43102C86.692 9.37172 86.3426 9.31246 85.9933 9.25316L85.936 9.60403L85.8787 9.9549C86.228 10.0142 86.5774 10.0735 86.9267 10.1327C87.276 10.192 87.6254 10.2513 87.9747 10.3106L88.032 9.95973ZM85.936 9.60403L85.9706 9.25007L61.3426 6.76014L61.308 7.1141L61.2734 7.46806L85.9014 9.95799L85.936 9.60403ZM61.308 7.1141L61.3513 6.76113C59.474 6.5222 57.0178 6.34385 53.9853 6.22508L53.972 6.58054L53.9587 6.936C56.9815 7.05437 59.4157 7.23169 61.2647 7.46706L61.308 7.1141ZM53.972 6.58054L53.9853 6.22508C50.9531 6.10635 47.7462 6.04698 44.3653 6.04698V6.40269V6.75839C47.7381 6.75839 50.9359 6.81762 53.9587 6.936L53.972 6.58054ZM44.3653 6.40269V6.04698C39.809 6.04698 35.137 6.34439 30.3497 6.93888L30.392 7.29195L30.4343 7.64502C35.1953 7.05384 39.839 6.75839 44.3653 6.75839V6.40269ZM30.392 7.29195L30.3581 6.93792C25.5624 7.41431 21.2277 8.30823 17.3562 9.62228L17.4667 9.95973L17.5771 10.2972C21.3909 9.00275 25.6731 8.11811 30.4259 7.64598L30.392 7.29195ZM17.4667 9.95973L17.3562 9.62228C13.4633 10.9436 10.5953 12.9384 8.79401 15.6285L9.08267 15.8289L9.37129 16.0292C11.0633 13.5023 13.7847 11.5844 17.5771 10.2972L17.4667 9.95973ZM9.08267 15.8289L8.79199 15.6316C7.81808 17.1191 7.336 18.8494 7.336 20.8087H7.68533H8.03467C8.03467 18.9739 8.48415 17.3843 9.37335 16.0262L9.08267 15.8289ZM7.68533 20.8087H7.336C7.336 22.7768 7.88078 24.6217 8.96347 26.3367L9.25733 26.1443L9.55119 25.9519C8.53788 24.3469 8.03467 22.6348 8.03467 20.8087H7.68533ZM9.25733 26.1443L8.96347 26.3367C10.0409 28.0431 11.4207 29.388 13.1014 30.3659L13.2747 30.057L13.448 29.7482C11.8681 28.829 10.5698 27.5654 9.55119 25.9519L9.25733 26.1443ZM13.2747 30.057L13.0277 30.3086C13.1359 30.4188 13.2056 30.5039 13.246 30.5656C13.2926 30.6368 13.2747 30.6382 13.2747 30.5906H13.624H13.9733C13.9733 30.4244 13.8971 30.2776 13.8273 30.171C13.7513 30.0548 13.6463 29.9324 13.5217 29.8055L13.2747 30.057ZM13.624 30.5906H13.2747C13.2747 30.7078 13.1832 30.9206 12.6209 31.1496L12.7507 31.4799L12.8804 31.8101C13.4826 31.5649 13.9733 31.1848 13.9733 30.5906H13.624ZM12.7507 31.4799L12.5944 31.1617C12.236 31.3442 11.8186 31.3574 11.3084 31.1496L11.1787 31.4799L11.0489 31.8101C11.7032 32.0766 12.3338 32.0898 12.9069 31.798L12.7507 31.4799ZM11.1787 31.4799L11.3483 31.1689C10.3411 30.5991 9.14485 29.6173 7.75768 28.2049L7.51067 28.4564L7.26365 28.7079C8.67115 30.1411 9.92026 31.1749 11.009 31.7908L11.1787 31.4799ZM7.51067 28.4564L7.75768 28.2049C6.37065 26.7925 5.09981 25.322 3.94488 23.7932L3.668 24.0101L3.39111 24.2269C4.56509 25.7809 5.85601 27.2746 7.26365 28.7079L7.51067 28.4564ZM3.668 24.0101L3.96186 23.8177C2.91789 22.1642 2.17184 20.818 1.71656 19.775L1.39733 19.9195L1.07811 20.0639C1.55438 21.1551 2.32211 22.5361 3.37415 24.2024L3.668 24.0101ZM1.39733 19.9195L1.72675 19.8011C1.03655 17.8099 0.698667 16.0727 0.698667 14.5839H0.349333H0C9.07645e-07 16.1779 0.360784 17.9978 1.06792 20.0378L1.39733 19.9195ZM0.349333 14.5839H0.698667C0.698667 11.8263 1.59732 9.61168 3.38292 7.90714L3.144 7.64765L2.90508 7.38817C0.964464 9.24068 0 11.6503 0 14.5839H0.349333ZM3.144 7.64765L3.38342 7.90668C5.31815 6.05253 7.77246 4.65436 10.7574 3.71918L10.6547 3.3792L10.5519 3.03922C7.48174 4.00111 4.92895 5.44858 2.90458 7.38863L3.144 7.64765ZM10.6547 3.3792L10.7651 3.71666C13.8832 2.65835 17.1763 1.95215 20.6454 1.59891L20.6107 1.24497L20.5759 0.89103C17.0583 1.24921 13.7142 1.96582 10.5442 3.04175L10.6547 3.3792ZM20.6107 1.24497L20.6554 1.59775C24.252 1.12521 27.6721 0.889266 30.916 0.889266V0.533561V0.177856C27.639 0.177856 24.1889 0.416196 20.566 0.89219L20.6107 1.24497ZM30.916 0.533561V0.889266H34.584V0.533561V0.177856H30.916V0.533561Z" fill="black" fill-opacity="0.45"/>
</g>
</g>
<defs>
<clipPath id="clip0_6_28">
<rect width="131" height="106" fill="white"/>
</clipPath>
</defs>
</svg>
