<svg width="21" height="21" viewBox="0 0 21 21" fill="none" xmlns="http://www.w3.org/2000/svg">
<path d="M20.6429 14.7529C20.9481 14.0703 20.1274 13.4889 19.4416 13.7876C17.8153 14.4948 16.0139 14.6961 14.2716 14.3653C12.5294 14.0346 10.927 13.1871 9.67305 11.9331C8.4191 10.6791 7.5716 9.07679 7.24084 7.33455C6.91008 5.5923 7.11137 3.79084 7.81853 2.16457C8.11726 1.47878 7.53586 0.658085 6.85489 0.963237C5.30845 1.65297 3.95297 2.70847 2.9053 4.03873C1.85763 5.36899 1.14922 6.9341 0.84114 8.59912C0.53306 10.2641 0.634557 11.9791 1.13688 13.5962C1.6392 15.2132 2.52728 16.6839 3.72454 17.8813C4.9218 19.0787 6.39232 19.9669 8.00932 20.4694C9.62632 20.9719 11.3413 21.0736 13.0063 20.7657C14.6714 20.4579 16.2366 19.7496 17.567 18.7021C18.8974 17.6546 19.953 16.2992 20.6429 14.7529Z" fill="white"/>
</svg>
