<svg width="85" height="54" viewBox="0 0 85 54" xmlns="http://www.w3.org/2000/svg">
<path fill-rule="evenodd" clip-rule="evenodd" d="M56.8618 1.00522C56.742 1.05387 56.7087 2.47211 56.7087 7.51502C56.7087 14.9776 56.7663 14.6119 55.6869 13.9923C55.3394 13.7928 54.8071 13.4875 54.504 13.3137C54.2009 13.1399 53.7966 12.9972 53.6056 12.9963C53.0868 12.9941 44.7889 17.8245 44.6017 18.2378C44.5027 18.4563 44.4606 20.0168 44.4606 23.4636V28.3779L44.7362 28.6778C45.0836 29.0559 53.3065 33.8114 53.6127 33.8114C53.8736 33.8114 62.0196 29.1197 62.4346 28.7304L62.7102 28.4719V16.3206V4.16921L62.4346 3.91252C62.1073 3.60778 57.3343 0.919362 57.1454 0.933404C57.0737 0.938701 56.946 0.971096 56.8618 1.00522ZM4.59303 15.1572C2.30264 16.4796 0.332168 17.6765 0.214342 17.8169C0.016045 18.0531 0 18.5644 0 24.6397C0 30.4459 0.0222915 31.2295 0.192418 31.4008C0.298364 31.5072 0.422314 31.594 0.468 31.5938C0.513807 31.5935 1.73519 30.9132 3.1823 30.082C4.95276 29.0651 5.86365 28.471 5.9669 28.2657C6.07811 28.0447 6.12098 27.0757 6.12221 24.7508C6.12356 22.3697 6.16361 21.4914 6.27715 21.3492C6.54281 21.0164 8.79058 19.7695 9.12483 19.7695C9.46006 19.7695 11.711 21.0309 11.9686 21.3631C12.0771 21.503 12.1189 22.447 12.1217 24.823C12.1249 27.4834 12.1588 28.1382 12.3044 28.3472C12.4028 28.4884 13.6719 29.284 15.1247 30.1152C17.6915 31.5837 17.7731 31.6202 18.008 31.4065C18.2428 31.1928 18.2497 31.0004 18.2497 24.6102V18.0338L17.9741 17.7621C17.4562 17.2516 9.49411 12.7484 9.11356 12.7507C8.87742 12.7522 7.35449 13.5628 4.59303 15.1572ZM30.4977 13.262C30.1272 13.4753 29.7511 13.7381 29.6619 13.8458C29.5328 14.0018 29.5163 14.004 29.5807 13.8571C29.6252 13.7554 29.5418 13.8109 29.3954 13.9802C29.2491 14.1496 29.1644 14.2196 29.2074 14.1356C29.259 14.035 29.2211 14.0079 29.0963 14.0561C28.9921 14.0964 28.9338 14.173 28.9667 14.2266C28.9997 14.2802 28.9414 14.3568 28.8372 14.3971C28.7127 14.4451 28.6741 14.4179 28.7245 14.3176C28.7667 14.2336 28.7144 14.2726 28.6084 14.4041C28.5023 14.5356 28.4156 14.6013 28.4156 14.5502C28.4156 14.499 28.1951 14.5818 27.9256 14.7341C27.6562 14.8864 27.4357 15.0562 27.4357 15.1115C27.4357 15.1668 27.3878 15.1981 27.3293 15.1812C27.2706 15.1642 26.1726 15.7565 24.889 16.4973C23.3418 17.3902 22.5108 17.9423 22.4233 18.1352C22.2156 18.5938 22.2518 27.9959 22.4629 28.3789C22.665 28.7456 30.9155 33.564 31.3424 33.5646C31.6683 33.5651 39.7068 28.9886 40.1431 28.5542L40.4187 28.2797V23.2239C40.4187 18.5533 40.4022 18.1516 40.2022 17.9504C39.8666 17.6129 31.6389 12.8715 31.391 12.8728C31.2702 12.8735 30.8683 13.0485 30.4977 13.262ZM71.2933 15.3305C68.6619 16.859 67.0176 17.8873 66.9189 18.0662C66.6954 18.4714 66.6845 27.9435 66.907 28.3815C67.0912 28.7439 75.3512 33.5456 75.8108 33.5573C75.978 33.5616 77.3024 32.9019 78.7878 32.0744C81.2925 30.6789 81.4612 30.563 81.4262 30.2615C81.3931 29.9777 80.8869 29.6511 77.182 27.5218C74.8683 26.1922 72.9264 25.0263 72.8663 24.9311C72.7341 24.721 72.7197 21.7383 72.8501 21.5322C72.9637 21.3523 75.6916 19.7667 75.8707 19.7765C75.9415 19.7803 76.6332 20.1584 77.4079 20.6168L78.8165 21.4501L78.8514 22.8502C78.8857 24.2299 78.9807 24.5733 79.3286 24.5733C79.5946 24.5733 84.41 21.7495 84.7262 21.4082C84.9782 21.1361 85.0016 20.9928 84.9999 19.7318C84.9988 18.8791 84.9404 18.2426 84.8468 18.0637C84.6207 17.6315 76.404 12.8701 75.8951 12.8765C75.6223 12.8799 74.2764 13.5976 71.2933 15.3305ZM52.0544 20.7308L50.6459 21.5651L50.612 23.3516L50.5784 25.1382L51.9989 25.9643C52.7803 26.4187 53.491 26.7904 53.5783 26.7904C53.6656 26.7904 54.3782 26.4237 55.1616 25.9755L56.5862 25.1605L56.5851 23.358L56.5841 21.5555L55.13 20.7241C54.3302 20.2667 53.628 19.8935 53.5694 19.8946C53.5108 19.8957 52.8291 20.272 52.0544 20.7308ZM74.9847 21.7138L74.2147 22.1679L74.2498 23.2104L74.2847 24.2528L75.0782 24.7138L75.8718 25.175L76.548 24.7948C77.5545 24.2288 77.5549 24.2283 77.5549 23.149V22.1894L76.7772 21.7231C76.3493 21.4667 75.9443 21.2574 75.8769 21.2582C75.8096 21.2589 75.4081 21.4639 74.9847 21.7138ZM27.252 25.6819C27.3565 25.8851 27.4695 26.0514 27.5032 26.0514C27.5369 26.0514 27.479 25.8851 27.3745 25.6819C27.27 25.4786 27.157 25.3123 27.1233 25.3123C27.0896 25.3123 27.1475 25.4786 27.252 25.6819ZM27.8032 26.6673C27.9406 26.9382 28.0807 27.16 28.1144 27.16C28.1481 27.16 28.0631 26.9382 27.9256 26.6673C27.7882 26.3963 27.6481 26.1746 27.6144 26.1746C27.5807 26.1746 27.6657 26.3963 27.8032 26.6673ZM28.5381 28.0222C28.6755 28.2932 28.8156 28.5149 28.8493 28.5149C28.883 28.5149 28.798 28.2932 28.6605 28.0222C28.5231 27.7512 28.383 27.5295 28.3493 27.5295C28.3156 27.5295 28.4006 27.7512 28.5381 28.0222ZM29.4546 29.685C29.7769 30.2948 30.097 30.8491 30.1659 30.9168C30.2348 30.9845 30.0288 30.5411 29.708 29.9314C29.3872 29.3217 29.067 28.7674 28.9966 28.6996C28.9261 28.6319 29.1322 29.0753 29.4546 29.685ZM37.404 34.5973C33.4746 36.8572 33.2389 37.0127 32.978 37.5179C32.7068 38.043 32.7024 38.1244 32.7031 42.5522C32.7035 45.1364 32.7553 47.2393 32.8248 47.4909C32.9835 48.0656 33.3879 48.4243 34.7233 49.1752C36.127 49.9645 36.5908 50.1091 37.5271 50.0491C38.4246 49.9916 38.9288 49.6868 39.2707 48.9952C39.4811 48.5694 39.5032 48.1299 39.5372 43.6962C39.5577 41.0372 39.5301 38.8576 39.476 38.853C39.422 38.8482 39.1296 38.8345 38.8265 38.8225L38.2753 38.8009L38.214 43.5229L38.1528 48.2448L37.8618 48.4818C37.3178 48.9245 37.0292 48.9091 36.0253 48.3843C35.5113 48.1155 34.8565 47.7468 34.5702 47.565L34.0497 47.2344V42.6458V38.0571L38.0252 35.7547L42.0007 33.4524L45.5271 35.4881C47.4667 36.6076 49.261 37.6596 49.5144 37.8259L49.9752 38.128L49.9431 42.7092L49.911 47.2905L46.0528 49.5363C43.9308 50.7716 42.1203 51.7851 42.0294 51.7887C41.9386 51.7921 41.4009 51.5207 40.8344 51.1854L39.8046 50.5759L39.1131 50.922L38.4215 51.2683L39.9349 52.1783C42.1285 53.4974 41.6877 53.5915 46.5427 50.7678C48.7321 49.4946 50.6612 48.3166 50.8296 48.1503L51.1358 47.8479L51.1703 42.7529L51.2047 37.6579L50.8902 37.2821C50.7173 37.0754 49.9302 36.5323 49.1411 36.0752C42.5442 32.2544 42.4625 32.2101 42.0074 32.2101C41.6435 32.2101 40.7389 32.6792 37.404 34.5973ZM53.3178 36.4552C52.6124 36.7637 52.329 37.7795 52.7487 38.4942C53.0193 38.9547 53.4412 39.1676 54.0517 39.1514C54.7181 39.1339 55.3614 38.4751 55.3614 37.8103C55.3614 37.1879 55.0475 36.6544 54.5611 36.4499C54.0494 36.235 53.8191 36.236 53.3178 36.4552ZM53.6029 36.5338C53.1039 36.6712 52.8059 36.9839 52.7164 37.464C52.5152 38.5427 53.5289 39.314 54.5393 38.8511C54.8898 38.6905 55.239 38.1325 55.2384 37.734C55.238 37.4951 54.8329 36.6444 54.7193 36.6444C54.7011 36.6444 54.5212 36.5979 54.3194 36.541C54.1178 36.4841 53.7953 36.4809 53.6029 36.5338ZM53.4706 36.9858C53.3482 37.1088 53.3974 38.4921 53.5242 38.4921C53.5915 38.4921 53.6466 38.3497 53.6466 38.1755C53.6466 37.9178 53.6978 37.8663 53.9222 37.8984C54.0993 37.9237 54.2118 38.0368 54.237 38.2149C54.2584 38.3674 54.3274 38.4921 54.3901 38.4921C54.547 38.4921 54.5336 38.0784 54.3715 37.9154C54.2764 37.8198 54.2842 37.7092 54.399 37.5243C54.5248 37.3218 54.5272 37.2343 54.4101 37.1166C54.2537 36.9593 53.5889 36.8666 53.4706 36.9858ZM53.6466 37.3749C53.6466 37.5666 53.7248 37.6298 53.9618 37.6298C54.3639 37.6298 54.3281 37.2178 53.921 37.1593C53.7127 37.1295 53.6466 37.1814 53.6466 37.3749ZM42.2824 38.8482C41.1489 39.2418 40.6637 39.8951 40.6637 41.0273C40.6637 42.3189 41.3323 42.9072 43.1133 43.1828C45.7134 43.5852 46.0904 43.6618 46.3662 43.8437C46.7728 44.1116 46.7855 44.8656 46.3896 45.2334C45.8221 45.7607 44.0979 45.9304 42.9107 45.5759C42.2073 45.3658 41.9806 45.15 41.77 44.4908L41.6206 44.0229L40.989 44.0597L40.3575 44.0965L40.3996 44.5892C40.5304 46.1208 41.9425 46.9911 44.2966 46.9911C45.6028 46.9911 46.3824 46.8165 47.0897 46.3653C47.8333 45.8911 48.1859 45.1466 48.1089 44.2129C47.9994 42.8851 47.3481 42.4892 44.4911 42.0139C43.4636 41.8429 42.5135 41.6441 42.3796 41.5722C42.0297 41.3837 41.9424 40.8945 42.1908 40.5132C42.5294 39.9934 43.1432 39.8124 44.3672 39.8713C45.6219 39.9316 45.9782 40.1222 46.3583 40.9361C46.6021 41.4586 46.603 41.459 47.2157 41.4229L47.8288 41.3867L47.7867 40.9588C47.6873 39.9502 46.961 39.1191 45.9023 38.8031C45.0109 38.5368 43.1103 38.5605 42.2824 38.8482Z"/>
</svg>
