<svg width="65" height="102" viewBox="0 0 65 102" xmlns="http://www.w3.org/2000/svg">
<path fill-rule="evenodd" clip-rule="evenodd" d="M24.4219 1.52252C12.0786 5.58633 1.89808 17.0755 1.82699 27.0223C1.81407 28.8286 1.27661 30.8341 0.632514 31.4782C-0.210838 32.3215 -0.210838 32.8515 0.632514 33.3728C1.43063 33.8661 1.80329 43.8258 1.80329 64.7049C1.80329 95.2692 1.80653 95.3155 4.22672 96.8665C9.32991 100.135 16.3654 101.219 32.5 101.219C48.6346 101.219 55.6701 100.135 60.7733 96.8665C63.1924 95.3155 63.1967 95.2627 63.1967 64.8568C63.1967 44.3611 63.5801 34.0169 64.3675 33.2295C65.2108 32.3862 65.2108 31.8562 64.3675 31.3349C63.7234 30.9364 63.1859 29.0645 63.173 27.1742C63.1181 19.151 55.5947 8.68724 46.5989 4.12151C40.7536 1.15416 29.5337 -0.159874 24.4219 1.52252ZM21.6786 3.86086C12.9984 7.20087 5.61615 15.5999 3.34029 24.7217C2.64557 27.5081 2.78774 27.7709 4.60369 27.0536C17.241 22.0645 47.7589 22.0645 60.3963 27.0536C62.2122 27.7709 62.3544 27.5081 61.6597 24.7217C58.3886 11.6061 45.5294 1.5656 32.1898 1.71316C29.3991 1.7444 24.6686 2.71054 21.6786 3.86086ZM19.5751 26.0012C13.4196 26.8974 6.67168 28.7489 5.24563 29.9337C4.08993 30.8923 4.29565 31.3909 6.30763 32.5079C7.6809 33.2694 9.65196 33.9102 10.6892 33.9318C12.3737 33.9652 12.5741 35.2953 12.5741 46.4194C12.5741 54.4447 12.9564 58.6324 13.6511 58.2037C14.2575 57.8289 14.7282 52.6277 14.7282 46.2923C14.7282 37.0144 15.0104 35.0465 16.3438 35.0465C17.6966 35.0465 17.9595 37.3203 17.9595 49.0485C17.9595 57.6652 18.3741 63.0506 19.0365 63.0506C19.6699 63.0506 20.1136 59.2808 20.1136 53.8954C20.1136 48.8601 20.5574 44.7402 21.1013 44.7402C22.8408 44.7402 23.0659 47.1712 22.509 59.9486C21.9608 72.5213 22.537 78.1296 24.3767 78.1296C24.9217 78.1296 25.7607 75.8268 26.2411 73.0135C27.0478 68.2862 27.1555 68.6966 27.6531 78.4086C27.959 84.3735 28.657 88.9047 29.2688 88.8864C29.9516 88.8649 30.2446 82.746 30.069 72.182C29.9129 62.8147 30.2166 55.511 30.7616 55.511C32.2717 55.511 33.0385 58.4407 33.0385 64.216C33.0385 74.1821 34.8728 69.5259 36.1491 56.3188C38.1256 35.864 38.0566 36.1258 41.4343 36.1085C43.037 36.101 45.4378 35.8016 46.7713 35.4451L49.1947 34.7956L49.2701 59.9626C49.3121 73.8052 49.7386 86.1 50.219 87.2848C52.0113 91.7083 52.7221 81.1131 52.1879 57.9635C51.7129 37.3881 51.8443 34.8021 53.3867 34.3141C59.7759 32.2968 61.0436 31.4987 59.9504 30.1814C59.33 29.435 56.5361 28.2373 53.74 27.5221C48.5301 26.1876 25.3708 25.1568 19.5751 26.0012Z"/>
</svg>
