<svg width="156" height="169" viewBox="0 0 156 169" fill="none" xmlns="http://www.w3.org/2000/svg">
<path fill-rule="evenodd" clip-rule="evenodd" d="M28.1479 0.138206C20.4649 0.867088 13.9877 4.09134 8.396 9.97037C5.1769 13.3547 2.82956 17.2938 1.37205 21.758C0.449366 24.5834 0.22041 25.9665 0.0662084 29.6441C-0.290948 38.1642 1.87402 44.8204 7.07824 51.2011L8.62099 53.0931L6.99518 56.5204C3.87214 63.1045 1.31644 72.2024 0.350418 80.1746C-0.17683 84.5223 -0.0955761 94.4861 0.503175 98.938C2.39477 113.003 7.83192 126.008 16.4102 136.987C18.9211 140.201 23.9939 145.505 27.136 148.204L29.1938 149.971L28.4961 157.544C28.1122 161.71 27.7958 165.481 27.7926 165.924C27.7839 167.16 29.5726 168.943 30.8582 168.979C34.0249 169.068 34.463 168.252 35.1571 160.969C35.4651 157.738 35.7862 155.026 35.8707 154.941C35.9552 154.856 36.7204 155.226 37.5712 155.762C40.2262 157.436 47.3105 160.833 51.0207 162.211C59.6492 165.416 68.1274 166.881 77.9837 166.871C87.9082 166.861 96.3608 165.4 104.947 162.211C108.657 160.833 115.741 157.436 118.396 155.762C119.247 155.226 119.996 154.84 120.06 154.905C120.125 154.969 120.429 157.659 120.736 160.882C121.043 164.105 121.476 167.081 121.697 167.494C122.574 169.131 125.358 169.524 126.868 168.223C128.142 167.125 128.194 166.217 127.449 157.983L126.724 149.975L128.807 148.206C143.331 135.867 152.868 118.24 155.464 98.938C156.063 94.4861 156.144 84.5223 155.617 80.1746C154.65 72.1966 152.095 63.1045 148.966 56.5078L147.334 53.0675L148.734 51.3883C152.083 47.3695 154.434 42.4967 155.493 37.3815C156.425 32.8835 156.04 26.1576 154.599 21.758C151.89 13.4871 145.627 6.42405 137.802 2.81282C127.888 -1.76172 115.545 -0.629988 106.751 5.66019C104.628 7.17854 100.416 11.3131 99.2823 12.9905L98.7486 13.7803L96.0401 13.0911C90.1515 11.5922 86.017 11.1396 78.1642 11.1335C70.2624 11.1273 65.645 11.6218 59.9272 13.0864L57.2188 13.7803L56.685 12.9905C55.5515 11.3131 51.3389 7.17854 49.2162 5.66019C43.3453 1.46073 35.6016 -0.568677 28.1479 0.138206ZM24.8978 6.27077C18.0591 8.04483 12.1882 12.5061 8.72391 18.5604C4.6576 25.6671 4.35281 35.2371 7.96445 42.3997C9.24682 44.9423 11.0799 47.7291 11.4631 47.7175C11.6025 47.7136 12.3926 46.6821 13.2189 45.4259C21.0991 33.4432 33.9895 22.8263 47.52 17.1744L51.5444 15.4938L50.7701 14.4374C49.4751 12.6695 45.498 9.58951 42.7769 8.2468C37.278 5.53323 30.5899 4.79425 24.8978 6.27077ZM119.333 6.0414C114.328 7.19008 110.273 9.41315 106.614 13.0132C104.468 15.1256 104.278 15.4209 104.905 15.6759C121.166 22.2983 132.373 30.8973 141.694 43.9069C142.819 45.4764 143.889 47.0182 144.073 47.3331C144.359 47.8228 144.54 47.7493 145.328 46.8235C146.99 44.8702 149.412 39.4268 150.057 36.1975C152.596 23.4881 145.075 10.7721 132.614 6.70572C129.147 5.57399 122.76 5.25445 119.333 6.0414ZM73.4696 16.561C65.5233 17.3425 59.6167 18.5709 53.6075 20.6923C36.152 26.854 21.1276 40.2444 12.9571 56.9218C8.11468 66.8055 5.88832 75.6444 5.50733 86.4955C5.08481 98.5305 7.4224 109.689 12.6086 120.397C23.2055 142.275 43.6342 157.158 68.0526 160.79C72.7845 161.494 83.1828 161.494 87.9147 160.79C108.801 157.684 126.671 146.494 138.279 129.253C145.873 117.974 149.979 105.264 150.46 91.5446C150.888 79.3458 148.542 68.3091 143.177 57.2825C132.712 35.7755 112.287 20.8044 88.5564 17.2466C85.0055 16.7142 76.0498 16.3074 73.4696 16.561ZM71.4834 28.8229C70.9868 28.9105 69.0367 29.2419 67.1498 29.5593C62.6758 30.3116 56.1368 32.4608 51.518 34.6961C34.2752 43.0409 21.7567 59.6112 18.3592 78.5859C17.283 84.5977 17.283 93.4424 18.3592 99.4541C22.7938 124.221 41.7693 143.381 66.8486 148.414C72.7549 149.6 83.2125 149.6 89.1187 148.414C114.198 143.381 133.174 124.221 137.608 99.4541C138.684 93.4424 138.684 84.5977 137.608 78.5859C133.698 56.7462 118.082 38.7044 96.9975 31.6677C90.5398 29.5124 86.9982 28.9386 79.2476 28.7929C75.4738 28.7219 71.9799 28.7352 71.4834 28.8229ZM72.5667 34.2442C59.2534 35.9011 48.4397 41.1331 39.1457 50.4138C32.6306 56.9196 28.4069 63.7385 25.6164 72.2561C23.0726 80.0203 22.3742 89.9916 23.7942 98.2712C27.6882 120.976 45.9227 139.17 68.7749 143.151C73.6386 143.998 82.3288 143.998 87.1925 143.151C110.045 139.17 128.279 120.976 132.173 98.2712C133.593 89.9916 132.895 80.0203 130.351 72.2561C127.552 63.7126 123.324 56.8836 116.831 50.417C108.703 42.3232 99.2419 37.1922 88.5647 35.0878C84.7841 34.3427 75.6468 33.8608 72.5667 34.2442ZM76.7035 44.2827L75.8169 45.1677V63.3898V81.6118L74.4627 82.3443C73.718 82.7472 72.8549 83.2575 72.5451 83.4786C72.0922 83.8017 70.4848 83.0242 64.3395 79.5078C60.136 77.1026 56.3925 75.1348 56.0209 75.1348C54.6566 75.1348 53.6859 77.0932 54.4522 78.2989C54.6125 78.5513 58.226 80.7592 62.4815 83.2052L70.2194 87.6521L70.4426 89.6891C71.2255 96.8343 80.4329 99.0733 84.4017 93.0839C85.2467 91.809 85.3868 91.2254 85.3868 88.9872C85.3868 86.6617 85.2669 86.2069 84.2875 84.8134C83.6826 83.9532 82.5046 82.8723 81.6693 82.411L80.1504 81.5725V63.3703V45.1677L79.2639 44.2827C78.7764 43.7958 78.2004 43.3973 77.9837 43.3973C77.767 43.3973 77.191 43.7958 76.7035 44.2827ZM55.2376 49.7996C52.9752 50.9328 52.414 53.3881 53.9903 55.2588C55.1538 56.6398 56.8952 57.0203 58.4282 56.2286C59.8175 55.5113 60.2884 54.6598 60.2884 52.8659C60.2884 51.3302 59.3931 50.0798 57.8829 49.5064C56.7165 49.0635 56.7045 49.0646 55.2376 49.7996ZM97.4897 49.7996C95.9383 50.5764 95.2366 51.8481 95.4717 53.457C95.8393 55.9747 98.4658 57.3723 100.68 56.2286C102.022 55.5354 102.613 54.535 102.613 52.9532C102.613 51.4074 101.678 50.0365 100.296 49.5554C98.8818 49.0631 98.9761 49.0548 97.4897 49.7996ZM39.8846 65.3773C36.811 66.6339 37.0118 71.1839 40.1869 72.2301C44.2337 73.5638 46.8273 67.9474 43.1879 65.7311C41.981 64.9961 41.0586 64.8977 39.8846 65.3773ZM112.833 65.4552C110.708 66.6223 110.199 69.2619 111.745 71.0973C112.82 72.3726 114.229 72.7152 115.765 72.0747C118.344 70.9981 118.85 68.2691 116.841 66.2627C115.546 64.9694 114.208 64.7 112.833 65.4552ZM34.1066 85.6519C31.9817 86.819 31.4728 89.4586 33.0192 91.294C34.0935 92.5692 35.5034 92.9119 37.0386 92.2713C39.6185 91.1948 40.124 88.4657 38.1151 86.4594C36.8201 85.1661 35.4817 84.8967 34.1066 85.6519ZM118.349 85.7774C117.079 86.489 116.624 87.3718 116.624 89.1275C116.624 91.6669 119.139 93.2743 121.543 92.2713C123.968 91.2593 124.592 88.5941 122.854 86.6689C121.656 85.3414 119.788 84.9717 118.349 85.7774ZM40.0652 107.471C38.0096 108.284 37.0743 110.703 38.071 112.627C39.4635 115.317 43.263 115.182 44.5865 112.397C45.251 110.998 44.8826 109.225 43.7075 108.163C42.99 107.514 40.9405 107.125 40.0652 107.471ZM112.571 107.795C110.611 108.857 110.217 111.48 111.745 113.294C112.82 114.569 114.229 114.912 115.765 114.271C118.344 113.195 118.85 110.466 116.841 108.459C115.479 107.099 114.218 106.903 112.571 107.795ZM54.7125 123.51C52.757 125.046 52.7816 127.668 54.7656 129.227C56.7616 130.795 60.0063 129.479 60.4899 126.905C61.0894 123.713 57.2935 121.483 54.7125 123.51ZM96.3734 123.795C93.9929 126.173 95.8111 129.954 99.335 129.954C101.022 129.954 102.54 128.245 102.54 126.348C102.54 125.173 102.313 124.622 101.485 123.795C100.657 122.969 100.106 122.741 98.9291 122.741C97.7526 122.741 97.2015 122.969 96.3734 123.795ZM77.0028 127.331C75.8534 127.54 74.3724 129.449 74.3724 130.721C74.3724 132.87 76.0051 134.643 77.9837 134.643C81.0706 134.643 82.7224 130.8 80.6019 128.552C79.5828 127.472 78.4127 127.075 77.0028 127.331Z" fill="#D2D2D2"/>
</svg>
