<svg width="75" height="67" viewBox="0 0 75 67" xmlns="http://www.w3.org/2000/svg">
<path fill-rule="evenodd" clip-rule="evenodd" d="M0.231518 0.150058C0.104234 0.277341 0 15.3728 0 33.6953V67.0094L24.1666 66.921L48.3332 66.8326V33.4638V0.0950168L24.3981 0.00660664C11.2339 -0.0418985 0.359145 0.022775 0.231518 0.150058ZM10.5814 16.1774C10.9801 16.6029 11.4716 17.3873 11.6732 17.9198C12.1803 19.2577 12.1803 54.2061 11.6732 55.544C11.4716 56.0765 10.9801 56.8605 10.5814 57.2864L9.85618 58.0604H14.4483H19.0405L18.3153 57.2864C17.9166 56.8605 17.4251 56.0765 17.2235 55.544C16.9802 54.9024 16.8564 48.4292 16.8564 36.3655V18.1555L20.5545 18.163C23.5278 18.1692 24.556 18.3078 25.8006 18.8713C29.0959 20.363 30.6467 22.772 30.8858 26.7708C31.077 29.9694 30.2091 32.3038 28.1296 34.1825C26.1288 35.9899 24.8986 36.3879 21.311 36.3879C19.5861 36.3879 18.2266 36.5107 18.2899 36.661C18.3528 36.8114 22.1197 41.6777 26.6606 47.4753L34.9168 58.0167L38.4852 58.0384L42.054 58.0604L39.0924 55.2223C37.4635 53.6616 33.6602 49.216 30.6401 45.3438L25.1498 38.303L26.6176 37.9304C31.1283 36.7849 35.0053 32.3788 35.6516 27.6632C35.9492 25.4932 35.0297 22.2031 33.5714 20.2195C32.9453 19.3681 31.5875 18.1661 30.5534 17.5483C27.694 15.8392 24.9901 15.4161 16.8826 15.4092L9.85618 15.4034L10.5814 16.1774ZM52.2893 47.7353V65.2846H63.6446H75L74.9109 47.8262L74.8218 30.3677L63.5555 30.2769L52.2893 30.1865V47.7353ZM64.8865 43.2798C64.3416 43.4432 63.5287 43.9213 63.0805 44.3424L62.2655 45.1082V44.1879C62.2655 43.3661 62.1375 43.2681 61.0615 43.2681H59.8574V50.8579V58.4481L60.9755 58.3401L62.0935 58.2324L62.2655 52.9003C62.3725 49.5882 62.5995 47.2854 62.8648 46.8217C63.3794 45.9228 65.4197 45.1859 66.5838 45.478C67.3537 45.6713 67.4256 45.5887 67.4256 44.5154C67.4256 42.9787 66.8418 42.6946 64.8865 43.2798Z"/>
</svg>
