<svg width="25" height="15" viewBox="0 0 25 15" fill="none" xmlns="http://www.w3.org/2000/svg">
<path fill-rule="evenodd" clip-rule="evenodd" d="M24.254 14.1542C23.8146 14.5931 23.2189 14.8396 22.5978 14.8396C21.9767 14.8396 21.381 14.5931 20.9415 14.1542L12.4415 5.65419L3.94154 14.1542C3.49724 14.5682 2.9096 14.7936 2.3024 14.7829C1.69521 14.7721 1.11588 14.5262 0.686468 14.0968C0.257053 13.6673 0.0110783 13.088 0.000365148 12.4808C-0.010348 11.8736 0.215036 11.286 0.629036 10.8417L10.7853 0.685437C11.2247 0.246529 11.8204 0 12.4415 0C13.0626 0 13.6583 0.246529 14.0978 0.685437L24.254 10.8417C24.6929 11.2811 24.9395 11.8768 24.9395 12.4979C24.9395 13.119 24.6929 13.7147 24.254 14.1542Z" fill="white"/>
</svg>
