<svg width="34" height="34" viewBox="0 0 34 34" xmlns="http://www.w3.org/2000/svg">
<path d="M17 0C17.4831 0 17.9464 0.1919 18.2879 0.533484C18.6295 0.875068 18.8214 1.33836 18.8214 1.82143V5.46429C18.8214 5.94736 18.6295 6.41065 18.2879 6.75223C17.9464 7.09381 17.4831 7.28571 17 7.28571C16.5169 7.28571 16.0536 7.09381 15.7121 6.75223C15.3705 6.41065 15.1786 5.94736 15.1786 5.46429V1.82143C15.1786 1.33836 15.3705 0.875068 15.7121 0.533484C16.0536 0.1919 16.5169 0 17 0ZM23.0714 17C23.0714 18.6102 22.4318 20.1545 21.2931 21.2931C20.1545 22.4318 18.6102 23.0714 17 23.0714C15.3898 23.0714 13.8455 22.4318 12.7069 21.2931C11.5682 20.1545 10.9286 18.6102 10.9286 17C10.9286 15.3898 11.5682 13.8455 12.7069 12.7069C13.8455 11.5682 15.3898 10.9286 17 10.9286C18.6102 10.9286 20.1545 11.5682 21.2931 12.7069C22.4318 13.8455 23.0714 15.3898 23.0714 17ZM29.0214 7.55286C29.2004 7.38611 29.3439 7.18502 29.4435 6.96159C29.543 6.73817 29.5966 6.49698 29.6009 6.25241C29.6052 6.00785 29.5602 5.76492 29.4686 5.53812C29.377 5.31132 29.2406 5.1053 29.0677 4.93234C28.8947 4.75938 28.6887 4.62302 28.4619 4.53142C28.2351 4.43981 27.9922 4.39482 27.7476 4.39914C27.503 4.40345 27.2618 4.45698 27.0384 4.55653C26.815 4.65608 26.6139 4.79962 26.4471 4.97857L23.868 7.55286C23.526 7.89455 23.3337 8.35811 23.3335 8.84157C23.3333 9.32503 23.5251 9.78877 23.8668 10.1308C24.2085 10.4728 24.672 10.6651 25.1555 10.6653C25.639 10.6655 26.1027 10.4737 26.4447 10.132L29.019 7.55529L29.0214 7.55286ZM34 17C34 17.4831 33.8081 17.9464 33.4665 18.2879C33.1249 18.6295 32.6616 18.8214 32.1786 18.8214H28.5357C28.0526 18.8214 27.5894 18.6295 27.2478 18.2879C26.9062 17.9464 26.7143 17.4831 26.7143 17C26.7143 16.5169 26.9062 16.0536 27.2478 15.7121C27.5894 15.3705 28.0526 15.1786 28.5357 15.1786H32.1786C32.6616 15.1786 33.1249 15.3705 33.4665 15.7121C33.8081 16.0536 34 16.5169 34 17ZM26.4471 29.0214C26.7924 29.3432 27.2491 29.5183 27.721 29.51C28.1929 29.5017 28.6431 29.3105 28.9768 28.9768C29.3105 28.6431 29.5017 28.1929 29.51 27.721C29.5183 27.2491 29.3432 26.7924 29.0214 26.4471L26.4471 23.868C26.278 23.6987 26.0771 23.5643 25.8559 23.4726C25.6348 23.3809 25.3978 23.3336 25.1584 23.3335C24.919 23.3334 24.682 23.3804 24.4608 23.4719C24.2396 23.5634 24.0386 23.6976 23.8692 23.8668C23.6999 24.036 23.5655 24.2369 23.4738 24.458C23.3821 24.6791 23.3348 24.9161 23.3347 25.1555C23.3345 25.639 23.5263 26.1027 23.868 26.4447L26.4447 29.019L26.4471 29.0214ZM17 26.7143C17.4831 26.7143 17.9464 26.9062 18.2879 27.2478C18.6295 27.5894 18.8214 28.0526 18.8214 28.5357V32.1786C18.8214 32.6616 18.6295 33.1249 18.2879 33.4665C17.9464 33.8081 17.4831 34 17 34C16.5169 34 16.0536 33.8081 15.7121 33.4665C15.3705 33.1249 15.1786 32.6616 15.1786 32.1786V28.5357C15.1786 28.0526 15.3705 27.5894 15.7121 27.2478C16.0536 26.9062 16.5169 26.7143 17 26.7143ZM10.132 26.4471C10.3013 26.278 10.4357 26.0771 10.5274 25.8559C10.6191 25.6348 10.6664 25.3978 10.6665 25.1584C10.6666 24.919 10.6196 24.682 10.5281 24.4608C10.4366 24.2396 10.3024 24.0386 10.1332 23.8692C9.96403 23.6999 9.76314 23.5655 9.54202 23.4738C9.3209 23.3821 9.08388 23.3348 8.8445 23.3347C8.60512 23.3346 8.36806 23.3816 8.14685 23.4731C7.92565 23.5646 7.72464 23.6988 7.55529 23.868L4.97857 26.4471C4.79962 26.6139 4.65608 26.815 4.55653 27.0384C4.45698 27.2618 4.40345 27.503 4.39914 27.7476C4.39482 27.9922 4.43981 28.2351 4.53142 28.4619C4.62302 28.6887 4.75938 28.8947 4.93234 29.0677C5.1053 29.2406 5.31132 29.377 5.53812 29.4686C5.76492 29.5602 6.00785 29.6052 6.25241 29.6009C6.49698 29.5966 6.73817 29.543 6.96159 29.4435C7.18502 29.3439 7.38611 29.2004 7.55286 29.0214L10.1271 26.4471H10.132ZM7.28571 17C7.28571 17.4831 7.09381 17.9464 6.75223 18.2879C6.41065 18.6295 5.94736 18.8214 5.46429 18.8214H1.82143C1.33836 18.8214 0.875068 18.6295 0.533484 18.2879C0.1919 17.9464 0 17.4831 0 17C0 16.5169 0.1919 16.0536 0.533484 15.7121C0.875068 15.3705 1.33836 15.1786 1.82143 15.1786H5.46429C5.94736 15.1786 6.41065 15.3705 6.75223 15.7121C7.09381 16.0536 7.28571 16.5169 7.28571 17ZM7.55286 10.132C7.89487 10.4743 8.35887 10.6668 8.84278 10.667C9.3267 10.6672 9.79088 10.4752 10.1332 10.1332C10.4756 9.7912 10.668 9.3272 10.6682 8.84329C10.6685 8.35938 10.4764 7.8952 10.1344 7.55286L7.55286 4.97857C7.38611 4.79962 7.18502 4.65608 6.96159 4.55653C6.73817 4.45698 6.49698 4.40345 6.25241 4.39914C6.00785 4.39482 5.76492 4.43981 5.53812 4.53142C5.31132 4.62302 5.1053 4.75938 4.93234 4.93234C4.75938 5.1053 4.62302 5.31132 4.53142 5.53812C4.43981 5.76492 4.39482 6.00785 4.39914 6.25241C4.40345 6.49698 4.45698 6.73817 4.55653 6.96159C4.65608 7.18502 4.79962 7.38611 4.97857 7.55286L7.55286 10.1271V10.132Z"/>
</svg>
