<svg width="20" height="23" viewBox="0 0 20 23" xmlns="http://www.w3.org/2000/svg">
<path fill-rule="evenodd" clip-rule="evenodd" d="M10.5819 7.9735C10.5819 16.6226 10.5868 16.0567 10.5084 16.4225C10.4375 16.7536 10.2655 17.1773 10.0821 17.4728C9.42322 18.5344 8.2044 19.1509 6.98046 19.0415C5.40796 18.9011 4.18191 17.7289 3.9483 16.1426C3.9191 15.9443 3.92344 15.4054 3.95584 15.2078C4.07545 14.4784 4.38219 13.8618 4.8775 13.3553C5.41865 12.8018 6.10375 12.4627 6.87328 12.3674C7.26544 12.3188 7.85687 12.3727 8.22602 12.4906C8.25159 12.4987 8.2524 12.4364 8.2524 10.4797V8.46051L8.09163 8.44361C7.63283 8.39542 7.13924 8.3843 6.74465 8.41328C5.81041 8.48189 4.92906 8.71863 4.10073 9.12348C3.52291 9.4059 3.06383 9.70442 2.5644 10.1225C2.35041 10.3016 1.90979 10.7447 1.71903 10.9727C0.734973 12.1483 0.164928 13.5268 0.0181691 15.0856C-0.0091848 15.3763 -0.00491165 16.0875 0.0260008 16.3862C0.0903125 17.0077 0.204201 17.5339 0.394206 18.0874C1.28561 20.6841 3.55933 22.5616 6.26589 22.9358C6.62426 22.9853 6.84695 22.9998 7.252 23C7.67316 23.0002 7.88571 22.9855 8.28099 22.929C10.5942 22.5982 12.5872 21.1805 13.6872 19.0835C14.1458 18.2092 14.4271 17.2011 14.497 16.181C14.507 16.034 14.5121 14.5788 14.5121 11.8135V7.66644L14.7657 7.83672C15.6865 8.45478 16.6823 8.89481 17.7634 9.16139C18.3943 9.31695 19.0148 9.40069 19.7392 9.42803L20 9.43787V7.47577V5.51368L19.7106 5.49655C18.5951 5.4305 17.5994 5.06203 16.6915 4.3793C15.6562 3.60073 14.9187 2.45257 14.6361 1.17924C14.5681 0.872981 14.5126 0.388559 14.5122 0.0970713L14.5121 0H12.547H10.5819V7.9735Z"/>
</svg>
