<svg width="75" height="75" viewBox="0 0 75 75" xmlns="http://www.w3.org/2000/svg">
<path fill-rule="evenodd" clip-rule="evenodd" d="M0.814712 0.980606L0 1.79499V37.5V73.2049L0.814712 74.0193L1.62909 74.834H37.3517H73.0746L74.0373 73.8033L75 72.7725V37.0778C75 17.4454 74.9164 1.46645 74.8138 1.56866C74.7116 1.6712 74.2706 1.39742 73.8335 0.960363L73.039 0.165894H37.3341H1.62909L0.814712 0.980606ZM0.159956 37.5C0.159956 57.2124 0.200111 65.2277 0.248894 55.3118C0.297677 45.3962 0.297677 29.2679 0.248894 19.4711C0.200111 9.67463 0.159956 17.7876 0.159956 37.5ZM14.9336 36.8362V39.9889H19.7456H24.5575V53.5951V67.2013H28.208H31.8584V53.5951V39.9889H36.6704H41.4823V36.8362V33.6836H28.208H14.9336V36.8362ZM54.5907 34.0297C50.328 34.5902 46.8777 36.6172 45.3743 39.4437C44.7856 40.5504 44.6429 41.3688 44.6429 43.6393C44.6429 48.5273 46.267 50.4385 53.2205 53.7348C58.0523 56.0253 59.4027 57.1865 59.4027 59.0508C59.4027 60.4327 58.116 61.7807 56.4617 62.1315C53.1939 62.8251 48.7653 61.947 45.9727 60.0517C45.3119 59.6034 44.7033 59.2367 44.6203 59.2367C44.5371 59.2367 44.469 60.8751 44.469 62.8775V66.5183L46.875 67.2746C50.1713 68.3107 57.5353 68.3711 60.5386 67.3868C63.0375 66.5678 64.9254 65.1272 66.1988 63.0677C67.1217 61.5746 67.2013 61.2063 67.2013 58.4329C67.2013 55.7442 67.1031 55.2534 66.289 53.8685C64.7761 51.2947 63.4925 50.4375 55.8421 46.8922C51.8091 45.0232 51.1749 41.8254 54.5346 40.2999C56.9937 39.1835 61.2574 39.5505 64.4496 41.1537L66.0398 41.9525V38.4945V35.0366L64.7011 34.6762C63.2645 34.2892 58.3387 33.663 57.2456 33.7281C56.8805 33.75 55.6858 33.8857 54.5907 34.0297Z"/>
</svg>
