<svg width="105" height="24" viewBox="0 0 105 24" xmlns="http://www.w3.org/2000/svg">
<path fill-rule="evenodd" clip-rule="evenodd" d="M12.9906 1.344C12.6075 2.00823 9.52792 7.3434 6.14705 13.2L0 23.8483L13.6941 23.8589C21.2258 23.8647 27.3948 23.8628 27.4029 23.8547C27.4239 23.8337 13.7495 0.139624 13.7154 0.137818C13.6999 0.13702 13.3737 0.679813 12.9906 1.344ZM27.4708 1.99508C27.5405 2.16587 37.6939 19.7055 37.7272 19.7126C37.7639 19.7205 47.9955 2.04906 47.9979 1.97366C47.9984 1.9561 47.1353 1.94665 46.0797 1.95266L44.1605 1.96358L40.9656 7.49512C39.2083 10.5375 37.7592 13.0377 37.7453 13.0511C37.7314 13.0646 36.3151 10.6415 34.5981 7.66659C32.881 4.69165 31.4319 2.18675 31.378 2.10009L31.2797 1.94257H29.3645C27.8489 1.94257 27.4538 1.95354 27.4708 1.99508ZM101.668 1.97059C101.652 1.98597 101.64 5.8326 101.64 10.5187V19.0387H103.32H105V10.4906V1.94257H103.348C102.439 1.94257 101.683 1.95518 101.668 1.97059ZM51.0653 6.13907C49.616 6.37043 48.4513 6.89008 47.4528 7.75089C45.925 9.06805 45.1237 11.2235 45.353 13.3997C45.516 14.9471 46.0971 16.1757 47.1771 17.2566C48.8534 18.9343 51.4176 19.699 54.0686 19.3119C55.795 19.0598 57.4121 18.2511 58.457 17.1171C58.6197 16.9405 58.7384 16.783 58.721 16.7669C58.7035 16.7508 58.0672 16.3775 57.307 15.9373L55.9247 15.1371L55.6688 15.369C55.1642 15.8262 54.5356 16.1431 53.7826 16.3198C53.4656 16.3941 53.2726 16.4099 52.7035 16.4077C52.0981 16.4054 51.9592 16.3914 51.6057 16.2974C50.6216 16.0355 49.8186 15.5153 49.3201 14.8166C49.1358 14.5583 48.9242 14.1497 48.9234 14.0506C48.9231 14.0089 49.9874 13.9981 54.1062 13.9981C58.5175 13.9981 59.2927 13.9893 59.3119 13.9391C59.3807 13.7598 59.4334 12.9543 59.4096 12.4439C59.3241 10.6064 58.7071 9.13937 57.537 7.99133C56.6116 7.08339 55.3251 6.43252 53.9604 6.18196C53.2609 6.05355 51.7421 6.03103 51.0653 6.13907ZM76.7213 6.14486C74.1549 6.54337 72.1716 8.11966 71.3992 10.3749C71.116 11.2016 70.993 12.068 71.0308 12.969C71.0783 14.1012 71.3069 15.0126 71.7707 15.9191C73.0699 18.4583 76.0267 19.7832 79.3464 19.3135C80.8968 19.0942 82.2402 18.4454 83.2625 17.4221C83.6995 16.9847 84.188 16.3542 84.1581 16.2662C84.1441 16.225 81.4059 14.6261 81.357 14.6306C81.3422 14.632 81.245 14.7665 81.141 14.9295C80.9265 15.2659 80.506 15.6746 80.1615 15.8813C79.6057 16.2149 78.9948 16.3869 78.2373 16.423C76.375 16.5117 74.941 15.5252 74.4986 13.8511C74.3715 13.3704 74.3411 12.3374 74.4396 11.8513C74.595 11.084 74.9359 10.4545 75.4676 9.95297C76.7323 8.75994 79.0912 8.68879 80.4914 9.80142C80.7634 10.0175 81.0728 10.3751 81.2555 10.6843C81.2949 10.7511 81.3467 10.8049 81.3706 10.8039C81.3945 10.8029 82.0284 10.4454 82.7792 10.0095C83.7004 9.47466 84.1425 9.19541 84.1387 9.15105C84.1287 9.03537 83.6515 8.40937 83.3043 8.05652C82.389 7.12623 81.2195 6.51581 79.7548 6.20379C79.2898 6.10475 79.1169 6.09021 78.2427 6.0769C77.415 6.06429 77.1692 6.0753 76.7213 6.14486ZM91.1466 6.12269C88.4094 6.53816 86.4346 8.1126 85.6513 10.504C85.4201 11.2098 85.3307 11.7997 85.3287 12.6329C85.3269 13.4073 85.3717 13.79 85.5398 14.4391C86.2468 17.1681 88.7064 19.0716 91.9154 19.3732C93.9772 19.5671 96.0568 19.0243 97.5908 17.8919C97.9768 17.607 98.7673 16.8214 98.7171 16.7727C98.6957 16.7519 98.0562 16.3744 97.2959 15.9337L95.9137 15.1325L95.6997 15.3342C94.4767 16.4872 92.4012 16.7661 90.7752 15.9958C90.1407 15.6953 89.6403 15.2868 89.302 14.7934C89.1505 14.5723 88.912 14.115 88.912 14.0455C88.912 14.011 90.3012 13.9956 94.1101 13.9877L99.3083 13.9771L99.3581 13.641C99.3855 13.4562 99.4091 13.0822 99.4106 12.8098C99.4237 10.4305 98.45 8.47985 96.646 7.27107C95.7996 6.70395 95.007 6.38513 93.9316 6.17918C93.3284 6.06367 91.7467 6.03158 91.1466 6.12269ZM61.6506 12.7169V19.0387H63.3293H65.008L65.0204 15.8988L65.0328 12.7589L65.1504 12.3809C65.5325 11.1522 66.4158 10.2918 67.6363 9.95919C68.0711 9.84074 69.2026 9.82385 69.6199 9.92957C69.7637 9.96599 69.8913 9.98586 69.9035 9.97368C69.9482 9.92895 69.9268 6.44285 69.8817 6.41496C69.8575 6.4 69.5976 6.41017 69.3041 6.43747C67.1783 6.63549 65.4544 7.76601 65.077 9.20948C65.0211 9.42287 65.0163 9.32432 65.0138 7.91782L65.011 6.39513H63.3308H61.6506V12.7169ZM51.7899 9.04424C50.8584 9.16534 49.999 9.61983 49.467 10.2726C49.2577 10.5294 48.9503 11.0959 48.8985 11.3202L48.8719 11.4358H52.3674H55.863L55.8349 11.3202C55.7779 11.0861 55.4746 10.5251 55.2681 10.2723C54.5 9.33172 53.1756 8.86407 51.7899 9.04424ZM91.7053 9.06028C90.7851 9.20415 90.0368 9.60593 89.4891 10.2502C89.3048 10.4672 88.9569 11.1011 88.8905 11.3412L88.8643 11.4358H92.3727H95.8811L95.8213 11.2662C95.6087 10.6637 95.1524 10.0514 94.6511 9.69603C93.8462 9.12547 92.7718 8.8936 91.7053 9.06028Z"/>
</svg>
