<svg width="75" height="76" viewBox="0 0 75 76" xmlns="http://www.w3.org/2000/svg">
<path fill-rule="evenodd" clip-rule="evenodd" d="M51.9162 1.71299C51.3066 2.21407 50.7328 2.70316 50.6412 2.80045C50.5496 2.8974 49.2156 4.09913 47.6767 5.47111C46.1382 6.84275 44.489 8.341 44.0119 8.8001C43.5351 9.2592 40.8255 11.733 37.9902 14.2973C35.1553 16.8617 31.7071 20.0091 30.3274 21.2918C28.9481 22.5745 26.5043 24.8074 24.8972 26.2533L21.9746 28.883L15.2353 23.7626C6.76194 17.3251 7.24869 17.4058 2.54272 21.664C0.521738 23.493 0.0276528 24.2697 0.0116608 25.6433C-0.00299849 26.9133 -0.251874 26.6548 10.5913 36.6261L12.0503 37.9678L7.10776 42.4928C4.38946 44.9816 1.67849 47.474 1.08279 48.0317C0.199233 48.859 0 49.2988 0 50.4232C0 51.6769 0.187572 51.9824 2.08229 53.8118C5.1824 56.8046 6.41278 57.5616 7.76676 57.3074C8.38279 57.1918 9.47357 56.6027 10.1905 55.9981C10.9075 55.3937 13.8537 53.1345 16.7376 50.9782L21.9813 47.0572L23.0994 48.0011C23.7144 48.5198 29.3662 53.6672 35.6584 59.4393C51.9686 74.4005 52.3327 74.7173 53.658 75.0895C55.095 75.4929 55.9209 75.2747 59.6367 73.5099C73.5047 66.9232 73.9448 66.668 74.6795 64.783C75.048 63.8384 75.1286 12.3123 74.7634 11.2839C74.2714 9.89755 72.6602 8.66417 69.1319 6.97335C67.1163 6.00717 63.4161 4.2234 60.9091 3.00934C55.4975 0.388659 53.8216 0.147114 51.9162 1.71299ZM53.8373 22.887C52.5716 23.8419 51.1186 24.9233 50.6089 25.2898C49.8093 25.8645 36.4757 36.0101 34.6006 37.4707C33.8776 38.0337 33.2856 37.546 49.4751 49.7212C51.674 51.375 54.0728 53.2061 54.8058 53.7908L56.1385 54.8536L56.2274 46.5085C56.2764 41.9185 56.2764 34.3353 56.2274 29.657L56.1385 21.1502L53.8373 22.887ZM0.0839578 25.623C0.0876226 26.3559 0.155922 26.6165 0.235548 26.202C0.315175 25.7876 0.312176 25.1879 0.228885 24.8694C0.145594 24.5509 0.080293 24.89 0.0839578 25.623ZM0.0906211 50.4438C0.0906211 51.2684 0.155588 51.6059 0.235215 51.1935C0.314509 50.781 0.314509 50.1067 0.235215 49.6942C0.155588 49.2818 0.0906211 49.6193 0.0906211 50.4438Z"/>
</svg>
