<svg width="75" height="77" viewBox="0 0 75 77" xmlns="http://www.w3.org/2000/svg">
    <path fill-rule="evenodd" clip-rule="evenodd" d="M61.5474 2.83366C54.1868 3.89398 45.0906 5.22418 41.3336 5.78975L34.5028 6.81828L34.4672 21.8544L34.4318 36.8905L39.6949 36.7999C42.5897 36.75 51.7175 36.6677 59.9791 36.6171L75 36.525V18.7031C75 8.90099 74.9844 0.886728 74.9651 0.893559C74.9459 0.90039 68.908 1.77348 61.5474 2.83366ZM29.2751 7.59296C28.7767 7.66182 25.7028 8.06359 22.4442 8.48571C17.4611 9.13115 2.2447 11.2667 0.52277 11.5621L0 11.6519V24.3195V36.9871H11.9663C18.5477 36.9871 25.4483 36.9457 27.3008 36.8951L30.6691 36.8031V22.1181C30.6691 8.21888 30.656 7.43417 30.4252 7.45034C30.2909 7.45982 29.7735 7.52395 29.2751 7.59296ZM0 52.9355C0 59.9584 0.04921 65.7046 0.109433 65.7046C0.544377 65.7046 28.7575 69.5784 30.2353 69.841L30.7076 69.9249L30.642 55.1986C30.6059 47.0991 30.5501 40.4487 30.5182 40.42C30.4862 40.3911 23.6066 40.3222 15.23 40.2669L0 40.1662V52.9355ZM34.3871 55.4234C34.4317 63.57 34.5074 70.2723 34.5552 70.3175C34.603 70.3628 37.3083 70.759 40.5669 71.198C46.3475 71.9767 70.0987 75.3481 73.362 75.853L75 76.1066V58.359V40.6116H54.653H34.306L34.3871 55.4234Z"/>
</svg>